<svg width="57" height="36" viewBox="0 0 57 36" fill="none" xmlns="http://www.w3.org/2000/svg">
<rect width="57" height="36" rx="5" fill="white"/>
<path d="M38.4972 25L45.4 25C45.5591 25 45.7117 24.9385 45.8243 24.8291C45.9368 24.7197 46 24.5714 46 24.4166L46 4.58333C46 4.42862 45.9368 4.28025 45.8243 4.17085C45.7117 4.06146 45.5591 4 45.4 4L31 4C30.5076 4.0004 30.0229 4.11823 29.5883 4.34314L21.25 8.66666L10.6 8.66666C10.4409 8.66666 10.2883 8.72812 10.1757 8.83752C10.0632 8.94691 10 9.09529 10 9.24999L10 24.4166C10 24.5714 10.0632 24.7197 10.1757 24.8291C10.2883 24.9385 10.4409 25 10.6 25L12.7054 25L14.8274 31.5909C14.8509 31.664 14.889 31.7319 14.9396 31.7907C14.9901 31.8495 15.052 31.898 15.1218 31.9335C15.1917 31.969 15.268 31.9908 15.3465 31.9977C15.425 32.0045 15.5041 31.9962 15.5793 31.9734L38.4972 25ZM17.9748 25.7434L16.8291 26.092L16.4775 25L26.4434 25L19.0851 27.239L18.7266 26.1257C18.6791 25.9781 18.5732 25.8549 18.4322 25.7832C18.2912 25.7115 18.1267 25.6972 17.9748 25.7434ZM31 5.16667L44.8 5.16666L44.8 8.66666C44.7984 10.0394 44.2444 11.3571 43.2565 12.338C42.2686 13.3188 40.9253 13.885 39.5136 13.9155C39.3575 13.8862 39.1958 13.9184 39.0641 14.005L33.3037 17.7885C33.1079 17.9195 32.8874 18.0115 32.6548 18.0591C32.4223 18.1068 32.1824 18.1092 31.9488 18.0663C31.7153 18.0233 31.4929 17.9359 31.2943 17.8089C31.0958 17.6819 30.925 17.518 30.792 17.3265C30.6589 17.1351 30.5662 16.9199 30.5191 16.6934C30.472 16.467 30.4716 16.2337 30.5177 16.007C30.5638 15.7804 30.6557 15.5648 30.788 15.3729C30.9202 15.1809 31.0903 15.0163 31.2883 14.8886C31.2935 14.8851 31.2986 14.8813 31.3037 14.878L36.1515 11.4724C36.2283 11.4184 36.291 11.3474 36.3342 11.2653C36.3774 11.1832 36.3999 11.0922 36.4 11L36.4 9.24999C36.4 9.09528 36.3368 8.94691 36.2243 8.83752C36.1117 8.72812 35.9591 8.66666 35.8 8.66666L23.8 8.66666L30.1529 5.37251C30.4138 5.23763 30.7046 5.16695 31 5.16667ZM40.6 20.3333L40.6 21.5L15.4 21.5L15.4 20.3333C15.4 20.1786 15.3368 20.0302 15.2243 19.9208C15.1117 19.8114 14.9591 19.75 14.8 19.75L13.6 19.75L13.6 13.9167L14.8 13.9167C14.9591 13.9167 15.1117 13.8552 15.2243 13.7458C15.3368 13.6364 15.4 13.488 15.4 13.3333L15.4 12.1667L33.115 12.1667L30.6083 13.9276C30.5049 13.9964 30.406 14.0713 30.3122 14.152C29.7596 13.7018 29.0806 13.4233 28.3633 13.3526C27.6459 13.2819 26.9233 13.4223 26.289 13.7556C25.6547 14.0889 25.138 14.5998 24.8059 15.2219C24.4737 15.8441 24.3414 16.5489 24.426 17.245C24.5107 17.9411 24.8085 18.5965 25.2807 19.1261C25.753 19.6558 26.378 20.0354 27.0748 20.2156C27.7715 20.3959 28.5079 20.3686 29.1885 20.1372C29.8691 19.9058 30.4625 19.481 30.8919 18.9179C31.373 19.1643 31.9138 19.2793 32.4568 19.2507C32.9998 19.2222 33.5247 19.0511 33.9756 18.7556L39.5691 15.0813C40.555 15.0577 41.5226 14.8181 42.4 14.3805L42.4 19.75L41.2 19.75C41.0409 19.75 40.8883 19.8114 40.7757 19.9208C40.6632 20.0302 40.6 20.1786 40.6 20.3333ZM29.8102 17.9718C29.8586 18.0415 29.9103 18.1083 29.964 18.173C29.6849 18.56 29.2914 18.8554 28.8357 19.0201C28.38 19.1849 27.8836 19.2112 27.4122 19.0956C26.9408 18.98 26.5166 18.728 26.1958 18.3728C25.875 18.0177 25.6727 17.5761 25.6157 17.1067C25.5587 16.6373 25.6497 16.1622 25.8766 15.7441C26.1035 15.3261 26.4556 14.9849 26.8864 14.7658C27.3171 14.5466 27.8062 14.4598 28.2888 14.5169C28.7714 14.5739 29.2248 14.7721 29.589 15.0852C29.3644 15.5435 29.2667 16.0508 29.3055 16.557C29.3443 17.0633 29.5182 17.5509 29.8102 17.9718ZM11.2 23.8333L11.2 9.83333L35.2 9.83333L35.2 10.7018L34.7756 11L14.8 11C14.6409 11 14.4883 11.0615 14.3757 11.1708C14.2632 11.2802 14.2 11.4286 14.2 11.5833L14.2 12.75L13 12.75C12.8409 12.75 12.6883 12.8114 12.5757 12.9208C12.4632 13.0302 12.4 13.1786 12.4 13.3333L12.4 20.3333C12.4 20.488 12.4632 20.6364 12.5757 20.7458C12.6883 20.8552 12.8409 20.9166 13 20.9166L14.2 20.9166L14.2 22.0833C14.2 22.238 14.2632 22.3864 14.3757 22.4958C14.4883 22.6052 14.6409 22.6666 14.8 22.6666L41.2 22.6666C41.3591 22.6666 41.5117 22.6052 41.6243 22.4958C41.7368 22.3864 41.8 22.238 41.8 22.0833L41.8 20.9166L43 20.9166C43.1591 20.9166 43.3117 20.8552 43.4243 20.7458C43.5368 20.6364 43.6 20.488 43.6 20.3333L43.6 13.6112C44.0559 13.2444 44.4595 12.82 44.8 12.3494L44.8 23.8333L11.2 23.8333ZM13.9628 25L15.22 25L15.8631 26.9972C15.9106 27.1448 16.0165 27.268 16.1575 27.3398C16.2985 27.4115 16.463 27.4258 16.6148 27.3796L17.7606 27.031L18.119 28.1442C18.1426 28.2173 18.1807 28.2852 18.2312 28.344C18.2818 28.4028 18.3437 28.4513 18.4135 28.4868C18.4834 28.5223 18.5597 28.5441 18.6382 28.5509C18.7166 28.5577 18.7957 28.5495 18.8709 28.5266L30.4609 25L34.4796 25L15.7934 30.6857L13.9628 25Z" fill="#2C2C2C"/>
</svg>
