<svg width="58" height="36" viewBox="0 0 58 36" fill="none" xmlns="http://www.w3.org/2000/svg">
<rect width="57" height="36" rx="5" fill="white"/>
<path d="M5.1702 15.1737L4.06708 12.4847L2.96984 15.1737H5.1702ZM29.4787 14.1023C29.2567 14.2362 28.9947 14.2409 28.681 14.2409H26.7227V12.7431H28.7081C28.9888 12.7431 29.2825 12.756 29.4728 12.8653C29.6819 12.964 29.8112 13.1731 29.8112 13.4621C29.81 13.7558 29.6878 13.9931 29.4787 14.1023ZM43.4492 15.1737L42.3331 12.4847L41.2241 15.1737H43.4492ZM17.4067 18.0836H15.7538L15.7479 12.8018L13.4101 18.0836H11.9945L9.6508 12.7971V18.0836H6.372L5.75289 16.5788H2.39537L1.76922 18.0836H0.0187964L2.90523 11.3392H5.3006L8.04253 17.7253V11.3392H10.674L12.7839 15.915L14.7223 11.3392H17.4067V18.0836ZM23.9937 18.0836H18.6085V11.3392H23.9937V12.7443H20.2203V13.9602H23.9032V15.3429H20.2203V16.6904H23.9937V18.0836ZM31.5863 13.1555C31.5863 14.2304 30.8685 14.786 30.4503 14.9529C30.8027 15.0868 31.1046 15.3241 31.2479 15.5203C31.4758 15.8563 31.5146 16.1558 31.5146 16.7573V18.0825H29.8887L29.8828 17.2319C29.8828 16.8266 29.9216 16.2428 29.6279 15.9185C29.3918 15.6812 29.0335 15.6295 28.4531 15.6295H26.7227V18.0825H25.1109V11.3381H28.8185C29.642 11.3381 30.2494 11.3604 30.771 11.6611C31.2808 11.9631 31.5863 12.4036 31.5863 13.1555ZM34.1661 18.0836H32.5214V11.3392H34.1661V18.0836ZM53.2492 18.0836H50.9642L47.9086 13.0215V18.0836H44.6251L43.9978 16.5788H40.6485L40.04 18.0836H38.1533C37.3697 18.0836 36.377 17.9098 35.8155 17.3377C35.2492 16.7655 34.9543 15.989 34.9543 14.7626C34.9543 13.7628 35.1306 12.8477 35.8237 12.1252C36.3453 11.5871 37.1606 11.3392 38.2719 11.3392H39.8332V12.7842H38.3048C37.7163 12.7842 37.3838 12.8712 37.0643 13.1836C36.7894 13.4679 36.6014 14.0048 36.6014 14.7109C36.6014 15.4333 36.7447 15.955 37.0443 16.2945C37.2922 16.5611 37.7433 16.6422 38.1674 16.6422H38.891L41.1631 11.3381H43.5784L46.3074 17.7171V11.3381H48.7615L51.5951 16.0348V11.3381H53.2468L53.2492 18.0836ZM0 19.4076H2.75485L3.37631 17.9098H4.76725L5.38636 19.4076H10.8056V18.2622L11.2896 19.4123H14.1032L14.5872 18.2446V19.4064H28.0561L28.0502 16.9476H28.311C28.4931 16.9535 28.5471 16.9711 28.5471 17.2719V19.4064H35.5135V18.8343C36.0751 19.1351 36.9491 19.4064 38.0992 19.4064H41.0303L41.6576 17.9086H43.0486L43.6618 19.4064H49.309V17.9838L50.1642 19.4064H54.6894V10H50.2112V11.1113L49.5839 10H44.9881V11.1113L44.4125 10H38.205C37.1653 10 36.2525 10.1445 35.5147 10.5498V10H31.2303V10.5498C30.7604 10.1328 30.1213 10 29.4094 10H13.7555L12.7052 12.4294L11.6268 10H6.69741V11.1113L6.15584 10H1.95248L0 14.4736V19.4076Z" fill="#2C2C2C"/>
<path d="M57.3547 24.3826H54.4165C54.1228 24.3826 53.9278 24.3932 53.7645 24.5048C53.5942 24.6141 53.5284 24.7762 53.5284 24.99C53.5284 25.2449 53.6717 25.4176 53.8808 25.4928C54.0512 25.5515 54.2333 25.5692 54.5023 25.5692L55.3763 25.5927C56.2586 25.615 56.846 25.7665 57.2055 26.1354C57.2712 26.1871 57.31 26.2447 57.3547 26.3022V24.3826ZM57.3547 28.8304C56.9635 29.4025 56.1999 29.6938 55.1672 29.6938H52.0541V28.2477H55.1543C55.4621 28.2477 55.6771 28.2077 55.8063 28.0808C55.9191 27.9763 55.9966 27.8247 55.9966 27.6403C55.9966 27.4441 55.9179 27.2879 55.7993 27.1939C55.6818 27.0905 55.5114 27.0447 55.2318 27.0447C53.7175 26.993 51.8297 27.0917 51.8297 24.9571C51.8297 23.9785 52.4511 22.9482 54.1428 22.9482H57.3535V21.6055H54.3696C53.4697 21.6055 52.8153 21.8216 52.3525 22.1564V21.6055H47.9412C47.2351 21.6055 46.4069 21.7805 46.0157 22.1564V21.6055H38.1353V22.1564C37.508 21.7042 36.4495 21.6055 35.962 21.6055H30.7636V22.1564C30.2678 21.676 29.1635 21.6055 28.4915 21.6055H22.674L21.343 23.0457L20.0966 21.6055H11.4067V31.019H19.9333L21.3054 29.5552L22.5977 31.019L27.8536 31.0237V28.8092H28.3705C29.0684 28.8198 29.8907 28.7916 30.6155 28.4779V31.019H34.9481V28.566H35.1572C35.4239 28.566 35.4509 28.5766 35.4509 28.8433V31.019H48.6202C49.4566 31.019 50.3307 30.8052 50.8147 30.4163V31.019H54.9922C55.8615 31.019 56.7109 30.8968 57.3558 30.5855V28.8304H57.3547ZM50.9239 26.1354C51.2376 26.4608 51.4056 26.8708 51.4056 27.5651C51.4056 29.016 50.4987 29.6938 48.8728 29.6938H45.7326V28.2477H48.8598C49.1653 28.2477 49.3826 28.2077 49.5189 28.0808C49.6293 27.9763 49.7092 27.8247 49.7092 27.6403C49.7092 27.4441 49.6234 27.2879 49.513 27.1939C49.3897 27.0905 49.2193 27.0447 48.9385 27.0447C47.4313 26.993 45.5434 27.0917 45.5434 24.9571C45.5434 23.9785 46.1579 22.9482 47.8484 22.9482H51.0802V24.3838H48.1233C47.8296 24.3838 47.6392 24.3944 47.4771 24.506C47.3009 24.6153 47.2351 24.7774 47.2351 24.9912C47.2351 25.2461 47.3855 25.4188 47.5876 25.494C47.7579 25.5527 47.94 25.5703 48.2149 25.5703L49.083 25.5938C49.9583 25.6138 50.5597 25.7654 50.9239 26.1354ZM36.3778 25.7184C36.1617 25.8464 35.895 25.857 35.5813 25.857H33.623V24.3415H35.6083C35.895 24.3415 36.1828 24.3474 36.3778 24.4637C36.5869 24.573 36.7115 24.7821 36.7115 25.0711C36.7115 25.3601 36.5869 25.5927 36.3778 25.7184ZM37.3505 26.5583C37.7088 26.6911 38.0025 26.9284 38.14 27.1246C38.3679 27.4535 38.4008 27.7613 38.4067 28.3557V29.6926H36.7878V28.8492C36.7878 28.4439 36.8266 27.8424 36.527 27.5287C36.2909 27.2867 35.9326 27.2291 35.344 27.2291H33.6206V29.6926H32.0006V22.9459H35.7223C36.5388 22.9459 37.1332 22.9823 37.6619 23.2643C38.1705 23.572 38.4901 23.9926 38.4901 24.7621C38.4936 25.8405 37.7758 26.3903 37.3505 26.5583ZM39.3876 22.9471H44.7681V24.3427H40.9935V25.5692H44.6765V26.946H40.9935V28.2888L44.7681 28.2947V29.695H39.3876V22.9471ZM28.5103 26.0602H26.4275V24.3427H28.5291C29.1106 24.3427 29.5148 24.58 29.5148 25.1697C29.5159 25.7536 29.1306 26.0602 28.5103 26.0602ZM24.8215 29.0794L22.3463 26.3316L24.8215 23.6707V29.0794ZM18.4296 28.2876H14.4659V26.9448H18.0055V25.568H14.4659V24.3415H18.5071L20.2704 26.3069L18.4296 28.2876ZM31.2464 25.1697C31.2464 27.0435 29.8484 27.4312 28.4387 27.4312H26.4275V29.6938H23.2943L21.3089 27.4606L19.246 29.6938H12.8599V22.9471H19.3435L21.3266 25.158L23.3777 22.9471H28.5291C29.8085 22.9471 31.2464 23.3018 31.2464 25.1697Z" fill="#2C2C2C"/>
</svg>
