<svg width="23" height="27" viewBox="0 0 23 27" fill="none" xmlns="http://www.w3.org/2000/svg">
<path d="M21.3571 11.1786C21.3571 19.0952 11.1786 25.881 11.1786 25.881C11.1786 25.881 1 19.0952 1 11.1786C1 8.47905 2.07238 5.89009 3.98123 3.98123C5.89009 2.07238 8.47905 1 11.1786 1C13.8781 1 16.4671 2.07238 18.3759 3.98123C20.2848 5.89009 21.3571 8.47905 21.3571 11.1786Z" stroke="white" stroke-width="2" stroke-linecap="round" stroke-linejoin="round"/>
<path d="M11.1785 14.5713C13.0523 14.5713 14.5714 13.0523 14.5714 11.1784C14.5714 9.30462 13.0523 7.78558 11.1785 7.78558C9.30468 7.78558 7.78564 9.30462 7.78564 11.1784C7.78564 13.0523 9.30468 14.5713 11.1785 14.5713Z" stroke="white" stroke-width="2" stroke-linecap="round" stroke-linejoin="round"/>
</svg>
