<svg width="325" height="82" viewBox="0 0 325 82" fill="none" xmlns="http://www.w3.org/2000/svg">
<path d="M324.72 81.5744H241.66L241.55 81.2244C229.25 42.5844 192.17 17.1244 153.35 20.6744C120.19 23.7144 91.03 48.0444 80.8 81.2144L80.69 81.5644H0V80.5644H79.95C85.1 64.1044 94.73 49.6544 107.82 38.7544C120.98 27.7944 136.69 21.1944 153.26 19.6744C192.41 16.0944 229.83 41.6844 242.39 80.5644H324.72V81.5744Z" fill="white"/>
<path d="M324.72 64.1244H252.69L252.56 63.8044C237.98 26.7244 203.11 2.08444 163.72 1.03444C122.66 -0.0355598 84.84 25.1744 69.62 63.8044L69.49 64.1244H0V63.1244H68.81C84.26 24.2744 122.37 -1.06556 163.74 0.0344403C203.43 1.09444 238.57 25.8444 253.36 63.1244H324.71V64.1244H324.72Z" fill="white"/>
<path d="M22.85 70.9144C22.85 72.8444 21.47 74.0944 19.32 74.0944H17.14V78.0744H15.24V67.7544H19.32C21.49 67.7544 22.85 69.0044 22.85 70.9144ZM20.92 70.9144C20.92 70.0344 20.34 69.4144 19.23 69.4144H17.14V72.4244H19.23C20.34 72.4344 20.92 71.8044 20.92 70.9144Z" fill="white"/>
<path d="M24.22 67.7544H26.12V78.0744H24.22V67.7544Z" fill="white"/>
<path d="M35.27 78.0744H27.58V76.7644L32.73 69.4144H27.7V67.7544H35.17V69.0644L29.97 76.3644H35.23L35.27 78.0744Z" fill="white"/>
<path d="M43.77 78.0744H36.08V76.7644L41.23 69.4144H36.2V67.7544H43.66V69.0644L38.46 76.3644H43.72L43.77 78.0744Z" fill="white"/>
<path d="M52.04 76.4244V78.0744H45.2V67.7544H51.9599V69.4044H47.0999V71.9744H51.4399V73.6244H47.0999V76.4344H52.04V76.4244Z" fill="white"/>
<path d="M56.11 73.7244H55.52V78.0744H53.63V67.7544H57.71C59.88 67.7544 61.24 69.0044 61.24 70.7344C61.24 72.3544 60.04 73.5544 58.14 73.7044L61.38 78.0744H59.26L56.11 73.7244ZM55.52 72.3744H57.67C58.77 72.3744 59.38 71.7844 59.38 70.8944C59.38 70.0144 58.77 69.4244 57.67 69.4244H55.52V72.3744Z" fill="white"/>
<path d="M62.83 67.7544H64.73V78.0744H62.83V67.7544Z" fill="white"/>
<path d="M72.57 75.6244H68.55L67.72 78.0744H65.83L69.39 67.7544H71.69L75.27 78.0744H73.4L72.57 75.6244ZM72.03 74.0644L70.54 69.7444L69.07 74.0644H72.03Z" fill="white"/>
<path d="M254.53 70.9144C254.53 72.8444 253.15 74.0944 251 74.0944H248.82V78.0744H246.92V67.7544H251C253.17 67.7544 254.53 69.0044 254.53 70.9144ZM252.6 70.9144C252.6 70.0344 252.02 69.4144 250.91 69.4144H248.82V72.4244H250.91C252.03 72.4344 252.6 71.8044 252.6 70.9144Z" fill="white"/>
<path d="M260.88 75.6244H256.86L256.03 78.0744H254.14L257.7 67.7544H260L263.58 78.0744H261.71L260.88 75.6244ZM260.34 74.0644L258.85 69.7444L257.38 74.0644H260.34Z" fill="white"/>
<path d="M263.81 75.6545L265.61 74.9745C265.89 76.0245 266.69 76.6045 267.84 76.6045C268.91 76.6045 269.55 76.1245 269.55 75.3445C269.55 73.0445 264.28 74.1245 264.28 70.4845C264.28 68.7745 265.57 67.5945 267.78 67.5945C269.65 67.5945 270.91 68.5045 271.3 69.8845L269.5 70.5645C269.23 69.6445 268.62 69.2145 267.69 69.2145C266.69 69.2145 266.18 69.6845 266.18 70.3445C266.18 72.5145 271.47 71.4145 271.47 75.3045C271.47 77.0545 270.02 78.2445 267.67 78.2445C265.72 78.2345 264.3 77.3145 263.81 75.6545Z" fill="white"/>
<path d="M280.08 69.4444H276.98V78.0744H275.08V69.4444H271.96V67.7544H280.08V69.4444Z" fill="white"/>
<path d="M288.16 76.4244V78.0744H281.32V67.7544H288.08V69.4044H283.22V71.9744H287.56V73.6244H283.22V76.4344H288.16V76.4244Z" fill="white"/>
<path d="M292.24 73.7244H291.65V78.0744H289.76V67.7544H293.84C296.01 67.7544 297.37 69.0044 297.37 70.7344C297.37 72.3544 296.17 73.5544 294.27 73.7044L297.51 78.0744H295.39L292.24 73.7244ZM291.64 72.3744H293.79C294.89 72.3744 295.5 71.7844 295.5 70.8944C295.5 70.0144 294.89 69.4244 293.79 69.4244H291.64V72.3744Z" fill="white"/>
<path d="M298.95 67.7544H300.85V78.0744H298.95V67.7544Z" fill="white"/>
<path d="M308.69 75.6244H304.67L303.84 78.0744H301.95L305.51 67.7544H307.81L311.39 78.0744H309.52L308.69 75.6244ZM308.16 74.0644L306.67 69.7444L305.2 74.0644H308.16Z" fill="white"/>
<path d="M121.91 20.9943L121.37 21.2343L123.12 25.2143L121.39 25.9743L117.23 16.5243L120.97 14.8743C122.96 14.0043 124.71 14.5943 125.41 16.1843C126.06 17.6643 125.45 19.2543 123.76 20.1543L128.48 22.8443L126.54 23.7043L121.91 20.9943ZM120.82 19.9943L122.79 19.1243C123.8 18.6843 124.11 17.8943 123.76 17.0743C123.41 16.2743 122.61 15.9743 121.6 16.4143L119.63 17.2843L120.82 19.9943Z" fill="white"/>
<path d="M126.26 12.7843L128.05 12.1543L131.48 21.8943L129.69 22.5243L126.26 12.7843Z" fill="white"/>
<path d="M131.96 19.0943L133.51 17.9543C134.06 18.8943 134.99 19.2443 136.09 18.9443C137.12 18.6643 137.61 18.0343 137.4 17.2743C136.79 15.0543 131.99 17.4943 131.03 13.9843C130.58 12.3343 131.51 10.8443 133.64 10.2643C135.45 9.76433 136.9 10.3043 137.64 11.5343L136.09 12.6643C135.59 11.8443 134.89 11.5943 133.98 11.8443C133.02 12.1043 132.64 12.7043 132.82 13.3343C133.39 15.4243 138.2 12.9643 139.24 16.7143C139.7 18.4043 138.62 19.9343 136.35 20.5543C134.49 21.0743 132.87 20.5643 131.96 19.0943Z" fill="white"/>
<path d="M146.71 9.38436L143.66 9.93436L145.19 18.4244L143.32 18.7644L141.79 10.2744L138.72 10.8244L138.42 9.15436L146.42 7.71436L146.71 9.38436Z" fill="white"/>
<path d="M147.77 12.6844C147.53 9.63442 149.66 7.17442 152.65 6.93442C155.65 6.69442 158.14 8.79442 158.39 11.8444C158.63 14.8744 156.5 17.3444 153.5 17.5844C150.5 17.8144 148.01 15.7244 147.77 12.6844ZM156.46 11.9844C156.3 9.92443 154.82 8.56443 152.79 8.73443C150.78 8.89443 149.53 10.4644 149.69 12.5244C149.86 14.5944 151.35 15.9544 153.35 15.7944C155.35 15.6344 156.62 14.0544 156.46 11.9844Z" fill="white"/>
<path d="M162.68 12.7644L162.09 12.7444L161.97 17.0944L160.08 17.0444L160.36 6.72437L164.44 6.83437C166.61 6.89437 167.94 8.17437 167.89 9.91437C167.85 11.5344 166.61 12.7044 164.71 12.8044L167.83 17.2544L165.71 17.1944L162.68 12.7644ZM162.12 11.3944L164.27 11.4544C165.37 11.4844 165.99 10.9044 166.02 10.0144C166.04 9.13437 165.45 8.52436 164.35 8.50436L162.2 8.44437L162.12 11.3944Z" fill="white"/>
<path d="M174.96 15.6243L170.96 15.1343L169.83 17.4643L167.96 17.2343L172.76 7.42432L175.05 7.70432L177.34 18.3843L175.48 18.1543L174.96 15.6243ZM174.62 14.0143L173.67 9.54432L171.68 13.6543L174.62 14.0143Z" fill="white"/>
<path d="M188.46 10.3444L186.14 20.3944L184.61 20.0444L181.61 12.1144L180.02 18.9844L178.18 18.5644L180.5 8.5144L182.03 8.8644L185.03 16.8044L186.62 9.9144L188.46 10.3444Z" fill="white"/>
<path d="M197.55 15.1343L194.61 14.1243L191.81 22.2943L190.01 21.6743L192.81 13.5043L189.86 12.4943L190.41 10.8943L198.1 13.5343L197.55 15.1343Z" fill="white"/>
<path d="M202.56 25.0545L201.87 26.5545L195.64 23.7045L199.93 14.3145L206.07 17.1245L205.38 18.6245L200.96 16.6045L199.89 18.9445L203.83 20.7445L203.14 22.2445L199.2 20.4445L198.03 22.9945L202.56 25.0545Z" fill="white"/>
<path d="M109.494 60.0124H101V81.5963H109.494C116.013 81.5963 120.589 77.3727 120.589 70.7888C120.589 64.205 116.013 60.0124 109.494 60.0124ZM109.337 77.4969H105.67V64.1118H109.337C113.192 64.1118 115.857 66.5342 115.857 70.8509C115.857 75.1056 113.192 77.4969 109.337 77.4969Z" fill="white"/>
<path d="M135.873 65.2298V67.2174C134.682 65.882 132.958 65.1366 130.796 65.1366C126.031 65.1366 122.584 68.5217 122.584 73.4286C122.584 78.3043 126.031 82 130.796 82C132.958 82 134.682 81.1925 135.873 79.795V81.5963H140.167V65.2298H135.873ZM131.454 77.9317C128.978 77.9317 127.191 76.0373 127.191 73.4286C127.191 70.8199 128.978 68.8944 131.454 68.8944C133.993 68.8944 135.716 70.7578 135.716 73.4286C135.716 76.0994 133.993 77.9317 131.454 77.9317Z" fill="white"/>
<path d="M163.093 60.0124L157.577 76.1615L152.06 60.0124H147.233L154.724 81.5963H160.429L167.92 60.0124H163.093Z" fill="white"/>
<path d="M171.966 62.8385C173.659 62.8385 174.975 61.6273 174.975 59.9193C174.975 58.2422 173.659 57 171.966 57C170.274 57 168.926 58.2422 168.926 59.9193C168.926 61.6273 170.274 62.8385 171.966 62.8385ZM169.616 81.5963H174.254V65.2298H169.616V81.5963Z" fill="white"/>
<path d="M186.945 64.8261C184.814 64.8261 183.09 65.6025 181.962 66.7516V65.2298H177.574V81.5963H182.213V71.9068C182.244 70.2298 183.686 68.9255 185.535 68.9255C187.415 68.9255 188.795 70.1056 188.795 72.1863V81.5963H193.402V71.2857C193.402 67.4658 190.894 64.8261 186.945 64.8261Z" fill="white"/>
<path d="M204.511 82C209.087 82 211.845 79.0807 212.566 76.6894L208.429 75.0435C207.959 76.7205 206.58 77.9006 204.605 77.9006C202.286 77.9006 200.468 76.1615 200.468 73.4286C200.468 70.6957 202.286 68.9565 204.605 68.9565C206.549 68.9565 207.865 70.1366 208.335 71.8447L212.472 70.2298C211.751 67.7764 208.993 64.8571 204.511 64.8571C199.496 64.8571 195.798 68.6149 195.798 73.4596C195.798 78.3043 199.559 82 204.511 82Z" fill="white"/>
<path d="M216.991 62.8385C218.684 62.8385 220 61.6273 220 59.9193C220 58.2422 218.684 57 216.991 57C215.299 57 213.951 58.2422 213.951 59.9193C213.951 61.6273 215.299 62.8385 216.991 62.8385ZM214.64 81.5963H219.279V65.2298H214.64V81.5963Z" fill="white"/>
</svg>
