<svg width="57" height="36" viewBox="0 0 57 36" fill="none" xmlns="http://www.w3.org/2000/svg">
<rect width="57" height="36" rx="5" fill="white"/>
<path fill-rule="evenodd" clip-rule="evenodd" d="M36.2125 29.304L36.7908 29.288L37.3631 29.2462L37.9214 29.1745L38.4777 29.0769L39.018 28.9534L39.5503 28.802L40.0726 28.6268L40.5829 28.4276L41.0811 28.2005L41.5654 27.9575L42.0337 27.6866L42.4899 27.3958L42.9302 27.0831L43.3524 26.7525L43.7606 26.4039L44.1508 26.0315L44.525 25.6431L44.8752 25.2367L45.2074 24.8165L45.5216 24.3783L45.8138 23.9242L46.0859 23.4581L46.33 22.9761L46.5582 22.4801L46.7583 21.9722L46.9364 21.4524L47.0865 20.9225L47.2105 20.3848L47.3086 19.831L47.3806 19.2753L47.4226 18.7057L47.4387 18.1301L47.4226 17.5584L47.3806 16.9948L47.3086 16.439L47.2105 15.8933L47.0865 15.3555L46.9364 14.8277L46.7583 14.3098L46.5582 13.8059L46.33 13.312L46.0859 12.8299L45.8138 12.3678L45.5216 11.9137L45.2074 11.4755L44.8752 11.0592L44.525 10.6529L44.1508 10.2645L43.7606 9.89605L43.3524 9.54749L42.9302 9.21486L42.4899 8.90414L42.0337 8.61334L41.5654 8.34644L41.0811 8.10145L40.5829 7.87638L40.0726 7.67721L39.5503 7.49994L39.018 7.35055L38.4777 7.22507L37.9214 7.12747L37.3631 7.05577L36.7908 7.01593L36.2125 7L35.6381 7.01593L35.0678 7.05577L34.5095 7.12747L33.9572 7.22507L33.4169 7.35055L32.8846 7.49994L32.3663 7.67721L31.856 7.87638L31.3598 8.10145L30.8815 8.34644L30.4112 8.61334L29.959 8.90414L29.5208 9.21486L29.0965 9.54749L28.6923 9.89605L28.3041 10.2645L27.9339 10.6529L27.5817 11.0592L27.2495 11.4755L26.9393 11.9137L26.6472 12.3678L26.379 12.8299L26.1309 13.312L25.9068 13.8059L25.7066 14.3098L25.5326 14.8277L25.3825 15.3555L25.2564 15.8933L25.1583 16.439L25.0863 16.9948L25.0463 17.5584L25.0303 18.1301L25.0463 18.7057L25.0863 19.2753L25.1583 19.831L25.2564 20.3848L25.3825 20.9225L25.5326 21.4524L25.7066 21.9722L25.9068 22.4801L26.1309 22.9761L26.379 23.4581L26.6472 23.9242L26.9393 24.3783L27.2495 24.8165L27.5817 25.2367L27.9339 25.6431L28.3041 26.0315L28.6923 26.4039L29.0965 26.7525L29.5208 27.0831L29.959 27.3958L30.4112 27.6866L30.8815 27.9575L31.3598 28.2005L31.856 28.4276L32.3663 28.6268L32.8846 28.802L33.4169 28.9534L33.9572 29.0769L34.5095 29.1745L35.0678 29.2462L35.6381 29.288L36.2125 29.304Z" fill="#E5E5E5"/>
<path fill-rule="evenodd" clip-rule="evenodd" d="M21.2242 29.304L21.7985 29.288L22.3688 29.2462L22.9291 29.1745L23.4814 29.0769L24.0217 28.9534L24.554 28.802L25.0723 28.6268L25.5826 28.4276L26.0769 28.2005L26.5571 27.9575L27.0254 27.6866L27.4797 27.3958L27.9179 27.0831L28.3401 26.7525L28.7464 26.4039L29.1346 26.0315L29.5048 25.6431L29.857 25.2367L30.1892 24.8165L30.4993 24.3783L30.7895 23.9242L31.0576 23.4581L31.3078 22.9761L31.5299 22.4801L31.732 21.9722L31.9041 21.4524L32.0562 20.9225L32.1803 20.3848L32.2783 19.831L32.3503 19.2753L32.3924 18.7057L32.4084 18.1301L32.3924 17.5584L32.3503 16.9948L32.2783 16.439L32.1803 15.8933L32.0562 15.3555L31.9041 14.8277L31.732 14.3098L31.5299 13.8059L31.3078 13.312L31.0576 12.8299L30.7895 12.3678L30.4993 11.9137L30.1892 11.4755L29.857 11.0592L29.5048 10.6529L29.1346 10.2645L28.7464 9.89605L28.3401 9.54749L27.9179 9.21486L27.4797 8.90414L27.0254 8.61334L26.5571 8.34644L26.0769 8.10145L25.5826 7.87638L25.0723 7.67721L24.554 7.49994L24.0217 7.35055L23.4814 7.22507L22.9291 7.12747L22.3688 7.05577L21.7985 7.01593L21.2242 7L20.6459 7.01593L20.0756 7.05577L19.5173 7.12747L18.961 7.22507L18.4207 7.35055L17.8884 7.49994L17.3661 7.67721L16.8558 7.87638L16.3575 8.10145L15.8732 8.34644L15.405 8.61334L14.9467 8.90414L14.5085 9.21486L14.0863 9.54749L13.678 9.89605L13.2878 10.2645L12.9136 10.6529L12.5614 11.0592L12.2292 11.4755L11.9171 11.9137L11.6249 12.3678L11.3527 12.8299L11.1066 13.312L10.8805 13.8059L10.6804 14.3098L10.5023 14.8277L10.3522 15.3555L10.2261 15.8933L10.1281 16.439L10.056 16.9948L10.016 17.5584L10 18.1301L10.016 18.7057L10.056 19.2753L10.1281 19.831L10.2261 20.3848L10.3522 20.9225L10.5023 21.4524L10.6804 21.9722L10.8805 22.4801L11.1066 22.9761L11.3527 23.4581L11.6249 23.9242L11.9171 24.3783L12.2292 24.8165L12.5614 25.2367L12.9136 25.6431L13.2878 26.0315L13.678 26.4039L14.0863 26.7525L14.5085 27.0831L14.9467 27.3958L15.405 27.6866L15.8732 27.9575L16.3575 28.2005L16.8558 28.4276L17.3661 28.6268L17.8884 28.802L18.4207 28.9534L18.961 29.0769L19.5173 29.1745L20.0756 29.2462L20.6459 29.288L21.2242 29.304Z" fill="#2C2C2C"/>
<path fill-rule="evenodd" clip-rule="evenodd" d="M27.4082 11.2764H33.3615V10.6709H27.9225L27.4082 11.2764Z" fill="#E5E5E5"/>
<path fill-rule="evenodd" clip-rule="evenodd" d="M26.5156 12.6251H33.3614V12.0176H26.8758L26.5156 12.6251Z" fill="#E5E5E5"/>
<path fill-rule="evenodd" clip-rule="evenodd" d="M25.8511 13.9673H33.3612V13.3618H26.1152L25.8511 13.9673Z" fill="#E5E5E5"/>
<path fill-rule="evenodd" clip-rule="evenodd" d="M25.3921 15.3135H33.3605V14.708H25.5822L25.3921 15.3135Z" fill="#E5E5E5"/>
<path fill-rule="evenodd" clip-rule="evenodd" d="M25.6589 21.8208H33.3791V21.2153H25.4688L25.6589 21.8208Z" fill="#E5E5E5"/>
<path fill-rule="evenodd" clip-rule="evenodd" d="M26.2295 23.167H33.3794V22.5615H25.9453L26.2295 23.167Z" fill="#E5E5E5"/>
<path fill-rule="evenodd" clip-rule="evenodd" d="M27.0297 24.5118H33.3792V23.9043H26.6475L27.0297 24.5118Z" fill="#E5E5E5"/>
<path fill-rule="evenodd" clip-rule="evenodd" d="M28.1344 25.858H33.3793V25.2485H27.6001L28.1344 25.858Z" fill="#E5E5E5"/>
<path fill-rule="evenodd" clip-rule="evenodd" d="M25.1245 16.6563H33.3611V16.0508H25.2426L25.1245 16.6563Z" fill="#E5E5E5"/>
<path fill-rule="evenodd" clip-rule="evenodd" d="M30.1426 20.4785H33.2843V19.873H30.2566L30.1426 20.4785Z" fill="#E5E5E5"/>
<path fill-rule="evenodd" clip-rule="evenodd" d="M30.3931 19.1359H33.2847V18.5264H30.5071L30.3931 19.1359Z" fill="#E5E5E5"/>
<path fill-rule="evenodd" clip-rule="evenodd" d="M24.9165 18.5264H25.733V19.1359H24.9545L24.9165 18.5264Z" fill="#E5E5E5"/>
<path fill-rule="evenodd" clip-rule="evenodd" d="M23.3935 17.7913L23.3415 17.7893L23.2874 17.7814L23.2394 17.7734L23.1894 17.7654L23.1453 17.7575L23.0953 17.7515L23.0473 17.7435L22.9933 17.7355L22.9412 17.7276L22.8792 17.7236L22.8112 17.7216L22.7411 17.7176H22.6611L22.573 17.7216L22.475 17.7276L22.3669 17.7355L22.2909 17.7475L22.2188 17.7575L22.1548 17.7814L22.0968 17.8033L22.0447 17.8292L21.9947 17.859L21.9587 17.8969L21.9247 17.9307L21.9007 17.9726L21.8826 18.0144L21.8746 18.0602V18.104L21.8866 18.1538L21.9007 18.2016L21.9307 18.2514L21.9687 18.2992L22.0447 18.3709L22.1348 18.4287L22.2408 18.4765L22.3549 18.5183L22.475 18.5562L22.601 18.598L22.7251 18.6418L22.8452 18.6916L22.9592 18.7553L23.0653 18.835L23.1594 18.9286L23.2394 19.0441L23.2994 19.1875L23.3375 19.3568L23.3535 19.56L23.3375 19.797L23.3114 19.9743L23.2654 20.1277L23.2054 20.2711L23.1293 20.3946L23.0433 20.5041L22.9452 20.5977L22.8392 20.6814L22.7211 20.7531L22.601 20.8089L22.475 20.8587L22.3469 20.8965L22.2148 20.9264L22.0868 20.9483L21.9627 20.9602L21.8366 20.9662L21.7206 20.9702H21.5565L21.4064 20.9662H21.2743L21.1482 20.9642L21.0362 20.9602L20.9341 20.9523L20.8421 20.9443L20.756 20.9323L20.676 20.9264L20.6039 20.9104L20.5339 20.8985L20.4679 20.8806L20.4038 20.8646L20.3438 20.8427L20.2838 20.8208L20.2197 20.7969L20.3898 19.9663L20.4238 19.9743L20.4659 19.9843L20.5179 20.0002L20.5819 20.0161L20.65 20.0301L20.726 20.046L20.8081 20.0639L20.9001 20.0799L20.9942 20.0938L21.0922 20.1097L21.1943 20.1217L21.3003 20.1317L21.4104 20.1356L21.5204 20.1396H21.6285L21.7386 20.1356L21.8486 20.1137L21.9347 20.0838L22.0027 20.042L22.0567 19.9882L22.0948 19.9365L22.1248 19.8767L22.1428 19.817L22.1588 19.7592L22.1648 19.6496L22.1308 19.556L22.0667 19.4803L21.9727 19.4166L21.8606 19.3608L21.7266 19.3051L21.5805 19.2513L21.4324 19.1915L21.2823 19.1238L21.1382 19.0441L21.0062 18.9465L20.8841 18.831L20.79 18.6876L20.722 18.5183L20.688 18.3151L20.692 18.0741L20.71 17.9268L20.738 17.7893L20.774 17.6599L20.8201 17.5403L20.8801 17.4268L20.9481 17.3292L21.0282 17.2356L21.1222 17.1519L21.2323 17.0822L21.3524 17.0205L21.4884 16.9647L21.6405 16.9229L21.8106 16.889L21.9947 16.8631L22.1988 16.8472L22.4229 16.8452H22.563L22.6911 16.8472L22.8092 16.8512L22.9132 16.8552L23.0093 16.8631L23.0953 16.8711L23.1714 16.8791L23.2394 16.885L23.3034 16.893L23.3555 16.905L23.4055 16.9129L23.4515 16.9189L23.4895 16.9269L23.5236 16.9309L23.5556 16.9388L23.5876 16.9428L23.3935 17.7913Z" fill="white"/>
<path d="M23.3935 17.7913L23.3415 17.7893L23.2874 17.7814L23.2394 17.7734L23.1894 17.7654L23.1453 17.7575L23.0953 17.7515L23.0473 17.7435L22.9933 17.7355L22.9412 17.7276L22.8792 17.7236L22.8112 17.7216L22.7411 17.7176H22.6611L22.573 17.7216L22.475 17.7276L22.3669 17.7355L22.2909 17.7475L22.2188 17.7575L22.1548 17.7814L22.0968 17.8033L22.0447 17.8292L21.9947 17.859L21.9587 17.8969L21.9247 17.9307L21.9007 17.9726L21.8826 18.0144L21.8746 18.0602V18.104L21.8866 18.1538L21.9007 18.2016L21.9307 18.2514L21.9687 18.2992L22.0447 18.3709L22.1348 18.4287L22.2408 18.4765L22.3549 18.5183L22.475 18.5562L22.601 18.598L22.7251 18.6418L22.8452 18.6916L22.9592 18.7553L23.0653 18.835L23.1594 18.9286L23.2394 19.0441L23.2994 19.1875L23.3375 19.3568L23.3535 19.56L23.3375 19.797L23.3114 19.9743L23.2654 20.1277L23.2054 20.2711L23.1293 20.3946L23.0433 20.5041L22.9452 20.5977L22.8392 20.6814L22.7211 20.7531L22.601 20.8089L22.475 20.8587L22.3469 20.8965L22.2148 20.9264L22.0868 20.9483L21.9627 20.9602L21.8366 20.9662L21.7206 20.9702H21.5565L21.4064 20.9662H21.2743L21.1482 20.9642L21.0362 20.9602L20.9341 20.9523L20.8421 20.9443L20.756 20.9323L20.676 20.9264L20.6039 20.9104L20.5339 20.8985L20.4679 20.8806L20.4038 20.8646L20.3438 20.8427L20.2838 20.8208L20.2197 20.7969L20.3898 19.9663L20.4238 19.9743L20.4659 19.9843L20.5179 20.0002L20.5819 20.0161L20.65 20.0301L20.726 20.046L20.8081 20.0639L20.9001 20.0799L20.9942 20.0938L21.0922 20.1097L21.1943 20.1217L21.3003 20.1317L21.4104 20.1356L21.5204 20.1396H21.6285L21.7386 20.1356L21.8486 20.1137L21.9347 20.0838L22.0027 20.042L22.0567 19.9882L22.0948 19.9365L22.1248 19.8767L22.1428 19.817L22.1588 19.7592L22.1648 19.6496L22.1308 19.556L22.0667 19.4803L21.9727 19.4166L21.8606 19.3608L21.7266 19.3051L21.5805 19.2513L21.4324 19.1915L21.2823 19.1238L21.1382 19.0441L21.0062 18.9465L20.8841 18.831L20.79 18.6876L20.722 18.5183L20.688 18.3151L20.692 18.0741L20.71 17.9268L20.738 17.7893L20.774 17.6599L20.8201 17.5403L20.8801 17.4268L20.9481 17.3292L21.0282 17.2356L21.1222 17.1519L21.2323 17.0822L21.3524 17.0205L21.4884 16.9647L21.6405 16.9229L21.8106 16.889L21.9947 16.8631L22.1988 16.8472L22.4229 16.8452H22.563L22.6911 16.8472L22.8092 16.8512L22.9132 16.8552L23.0093 16.8631L23.0953 16.8711L23.1714 16.8791L23.2394 16.885L23.3034 16.893L23.3555 16.905L23.4055 16.9129L23.4515 16.9189L23.4895 16.9269L23.5236 16.9309L23.5556 16.9388L23.5876 16.9428L23.3935 17.7913Z" stroke="white" stroke-width="0.216" stroke-miterlimit="2.6131"/>
<path fill-rule="evenodd" clip-rule="evenodd" d="M24.2903 16.0127H25.3369L25.1828 16.9229H25.8132L25.6771 17.7734L25.0127 17.7555L24.6485 19.8528L24.6445 19.9285L24.6645 19.9923L24.7025 20.0421L24.7506 20.0839L24.8186 20.1098L24.8946 20.1317L24.9787 20.1476L25.0687 20.1556L25.1508 20.1516L25.2268 20.1436L25.2949 20.1317L25.3549 20.1178L25.4049 20.1018L25.4389 20.0899L25.461 20.0839L25.469 20.0799L25.3369 20.779L25.3109 20.797L25.2849 20.8129L25.2568 20.8288L25.2308 20.8428L25.2048 20.8547L25.1748 20.8647L25.1408 20.8766L25.1068 20.8886L25.0687 20.8985L25.0307 20.9065L24.9847 20.9145L24.9407 20.9224L24.8906 20.9304L24.8346 20.9364L24.7746 20.9443L24.7105 20.9523H24.4224L24.2703 20.9404L24.1382 20.9264L24.0182 20.9025L23.9161 20.8766L23.8281 20.8428L23.758 20.8049L23.692 20.7611L23.644 20.7113L23.6059 20.6595L23.5799 20.5938L23.5599 20.5301L23.5499 20.4583L23.5459 20.3807V20.297L23.5559 20.2114L23.5679 20.1178L24.2903 16.0127Z" fill="white"/>
<path d="M24.2903 16.0127H25.3369L25.1828 16.9229H25.8132L25.6771 17.7734L25.0127 17.7555L24.6485 19.8528L24.6445 19.9285L24.6645 19.9923L24.7025 20.0421L24.7506 20.0839L24.8186 20.1098L24.8946 20.1317L24.9787 20.1476L25.0687 20.1556L25.1508 20.1516L25.2268 20.1436L25.2949 20.1317L25.3549 20.1178L25.4049 20.1018L25.4389 20.0899L25.461 20.0839L25.469 20.0799L25.3369 20.779L25.3109 20.797L25.2849 20.8129L25.2568 20.8288L25.2308 20.8428L25.2048 20.8547L25.1748 20.8647L25.1408 20.8766L25.1068 20.8886L25.0687 20.8985L25.0307 20.9065L24.9847 20.9145L24.9407 20.9224L24.8906 20.9304L24.8346 20.9364L24.7746 20.9443L24.7105 20.9523H24.4224L24.2703 20.9404L24.1382 20.9264L24.0182 20.9025L23.9161 20.8766L23.8281 20.8428L23.758 20.8049L23.692 20.7611L23.644 20.7113L23.6059 20.6595L23.5799 20.5938L23.5599 20.5301L23.5499 20.4583L23.5459 20.3807V20.297L23.5559 20.2114L23.5679 20.1178L24.2903 16.0127Z" stroke="white" stroke-width="0.216" stroke-miterlimit="2.6131"/>
<path fill-rule="evenodd" clip-rule="evenodd" d="M26.6475 19.1915L26.6375 19.2553L26.6335 19.323L26.6415 19.3947L26.6555 19.4664L26.6815 19.5381L26.7116 19.6058L26.7536 19.6775L26.7996 19.7413L26.8516 19.805L26.9097 19.8608L26.9697 19.9185L27.0377 19.9624L27.1058 20.0042L27.1818 20.038L27.2559 20.0639L27.3319 20.0799L27.43 20.0938L27.526 20.1058L27.6241 20.1177L27.7221 20.1237L27.8202 20.1277H27.9222L28.0203 20.1237L28.1223 20.1177L28.2244 20.1018L28.3265 20.0839L28.4325 20.06L28.5346 20.0261L28.6406 19.9843L28.7487 19.9404L28.8547 19.8807L28.9648 19.817L28.8147 20.7411L28.7527 20.771L28.6927 20.8009L28.6326 20.8248L28.5766 20.8467L28.5186 20.8646L28.4585 20.8845L28.3985 20.8985L28.3345 20.9104L28.2664 20.9224L28.1904 20.9304L28.1103 20.9363L28.0243 20.9443L27.9262 20.9483H27.8242L27.7061 20.9523H27.582L27.3959 20.9483L27.2078 20.9304L27.0177 20.9025L26.8296 20.8587L26.6455 20.8009L26.4674 20.7292L26.2973 20.6356L26.1372 20.526L25.9912 20.3986L25.8631 20.2452L25.753 20.0719L25.661 19.8727L25.597 19.6496L25.5569 19.3987L25.5449 19.1198L25.5629 18.8111L25.5789 18.6916L25.601 18.5522L25.631 18.4048L25.673 18.2474L25.729 18.0861L25.7971 17.9248L25.8851 17.7575L25.9912 17.6001L26.1112 17.4507L26.2593 17.3073L26.4254 17.1798L26.6135 17.0663L26.8336 16.9727L27.0798 16.905L27.3519 16.8592L27.6581 16.8452L27.8042 16.8472L27.9603 16.8631L28.1143 16.889L28.2704 16.9269L28.4205 16.9826L28.5686 17.0504L28.7047 17.142L28.8287 17.2476L28.9428 17.375L29.0368 17.5244L29.1129 17.6977L29.1649 17.8969L29.1949 18.1239L29.1989 18.3789L29.1729 18.6657L29.1169 18.9804L29.0969 19.2095H26.3414L26.5155 18.4685H28.1724L28.1784 18.3749L28.1744 18.2853L28.1684 18.2016L28.1524 18.1279L28.1263 18.0562L28.1003 17.9925L28.0623 17.9347L28.0243 17.8829L27.9783 17.8371L27.9302 17.7993L27.8722 17.7654L27.8162 17.7355L27.7561 17.7136L27.6961 17.6977L27.6301 17.6877L27.562 17.6798L27.492 17.6838L27.424 17.6937L27.3579 17.7096L27.2939 17.7316L27.2299 17.7614L27.1738 17.7953L27.1178 17.8371L27.0678 17.8829L27.0177 17.9347L26.9737 17.9925L26.9317 18.0522L26.8977 18.116L26.8637 18.1837L26.8376 18.2594L26.8136 18.3331L26.7996 18.4127L26.6475 19.1915Z" fill="white"/>
<path d="M26.6475 19.1915L26.6375 19.2553L26.6335 19.323L26.6415 19.3947L26.6555 19.4664L26.6815 19.5381L26.7116 19.6058L26.7536 19.6775L26.7996 19.7413L26.8516 19.805L26.9097 19.8608L26.9697 19.9185L27.0377 19.9624L27.1058 20.0042L27.1818 20.038L27.2559 20.0639L27.3319 20.0799L27.43 20.0938L27.526 20.1058L27.6241 20.1177L27.7221 20.1237L27.8202 20.1277H27.9222L28.0203 20.1237L28.1223 20.1177L28.2244 20.1018L28.3265 20.0839L28.4325 20.06L28.5346 20.0261L28.6406 19.9843L28.7487 19.9404L28.8547 19.8807L28.9648 19.817L28.8147 20.7411L28.7527 20.771L28.6927 20.8009L28.6326 20.8248L28.5766 20.8467L28.5186 20.8646L28.4585 20.8845L28.3985 20.8985L28.3345 20.9104L28.2664 20.9224L28.1904 20.9304L28.1103 20.9363L28.0243 20.9443L27.9262 20.9483H27.8242L27.7061 20.9523H27.582L27.3959 20.9483L27.2078 20.9304L27.0177 20.9025L26.8296 20.8587L26.6455 20.8009L26.4674 20.7292L26.2973 20.6356L26.1372 20.526L25.9912 20.3986L25.8631 20.2452L25.753 20.0719L25.661 19.8727L25.597 19.6496L25.5569 19.3987L25.5449 19.1198L25.5629 18.8111L25.5789 18.6916L25.601 18.5522L25.631 18.4048L25.673 18.2474L25.729 18.0861L25.7971 17.9248L25.8851 17.7575L25.9912 17.6001L26.1112 17.4507L26.2593 17.3073L26.4254 17.1798L26.6135 17.0663L26.8336 16.9727L27.0798 16.905L27.3519 16.8592L27.6581 16.8452L27.8042 16.8472L27.9603 16.8631L28.1143 16.889L28.2704 16.9269L28.4205 16.9826L28.5686 17.0504L28.7047 17.142L28.8287 17.2476L28.9428 17.375L29.0368 17.5244L29.1129 17.6977L29.1649 17.8969L29.1949 18.1239L29.1989 18.3789L29.1729 18.6657L29.1169 18.9804L29.0969 19.2095H26.4314L26.6055 18.4685H28.1724L28.1784 18.3749L28.1744 18.2853L28.1684 18.2016L28.1524 18.1279L28.1263 18.0562L28.1003 17.9925L28.0623 17.9347L28.0243 17.8829L27.9783 17.8371L27.9302 17.7993L27.8722 17.7654L27.8162 17.7355L27.7561 17.7136L27.6961 17.6977L27.6301 17.6877L27.562 17.6798L27.492 17.6838L27.424 17.6937L27.3579 17.7096L27.2939 17.7316L27.2299 17.7614L27.1738 17.7953L27.1178 17.8371L27.0678 17.8829L27.0177 17.9347L26.9737 17.9925L26.9317 18.0522L26.8977 18.116L26.8637 18.1837L26.8376 18.2594L26.8136 18.3331L26.7996 18.4127L26.6475 19.1915Z" stroke="white" stroke-width="0.216" stroke-miterlimit="2.6131"/>
<path fill-rule="evenodd" clip-rule="evenodd" d="M35.6628 17.1499L35.6127 17.122L35.5647 17.1001L35.5107 17.0742L35.4547 17.0483L35.3986 17.0244L35.3326 17.0025L35.2686 16.9806L35.2005 16.9567L35.1285 16.9387L35.0584 16.9228L34.9784 16.9089L34.8983 16.8969L34.8123 16.8889L34.7243 16.881H34.6342H34.5401H34.4461L34.346 16.8889L34.246 16.9009L34.1399 16.9188L34.0339 16.9487L33.9278 16.9905L33.8218 17.0443L33.7157 17.112L33.6136 17.1937L33.5156 17.2913L33.4215 17.4128L33.3295 17.5522L33.2474 17.7175L33.1674 17.9048L33.0954 18.1159L33.0353 18.3569L33.0133 18.4923L32.9973 18.6238L32.9893 18.7552L32.9933 18.8827L33.0053 19.0102L33.0313 19.1317L33.0653 19.2432L33.1074 19.3568L33.1634 19.4583L33.2314 19.5559L33.3115 19.6436L33.4015 19.7213L33.5036 19.789L33.6216 19.8467L33.7497 19.8945L33.8938 19.9284L33.9418 19.9404L33.9999 19.9523L34.0679 19.9583L34.1439 19.9662L34.226 19.9742H34.312H34.4081L34.5021 19.9662L34.6002 19.9543L34.6982 19.9364L34.7923 19.9105L34.8883 19.8806L34.9824 19.8388L35.0684 19.789L35.1485 19.7292L35.2245 19.6615L35.0544 20.6654L35.0304 20.6853L35.0084 20.7072L34.9784 20.7331L34.9444 20.757L34.9023 20.7869L34.8503 20.8128L34.7883 20.8387L34.7202 20.8626L34.6342 20.8884L34.5361 20.9064L34.4221 20.9223L34.29 20.9362L34.1439 20.9442L33.9738 20.9482L33.7797 20.9442L33.5676 20.9323L33.3955 20.9143L33.2214 20.8765L33.0473 20.8207L32.8732 20.745L32.7071 20.6554L32.549 20.5419L32.397 20.4104L32.2569 20.259L32.1328 20.0897L32.0268 19.9025L31.9367 19.6914L31.8687 19.4623L31.8226 19.2094L31.8066 18.9425L31.8146 18.6497L31.8567 18.337L31.8867 18.1836L31.9207 18.0322L31.9587 17.8868L31.9967 17.7474L32.0388 17.6159L32.0868 17.4845L32.1368 17.359L32.1889 17.2435L32.2449 17.126L32.3029 17.0164L32.367 16.9128L32.435 16.8133L32.503 16.7196L32.5791 16.63L32.6531 16.5464L32.7332 16.4687L32.8212 16.393L32.9072 16.3213L32.9973 16.2576L33.0913 16.1978L33.1934 16.14L33.2955 16.0922L33.4015 16.0464L33.5116 16.0046L33.6296 15.9668L33.7457 15.9369L33.8678 15.911L33.9958 15.8891L34.1239 15.8692L34.26 15.8552L34.3961 15.8472L34.5401 15.8433L34.6602 15.8472L34.7783 15.8552L34.8903 15.8652L35.0044 15.8811L35.1105 15.897L35.2125 15.9189L35.3106 15.9369L35.4006 15.9608L35.4887 15.9827L35.5647 16.0046L35.6368 16.0285L35.6968 16.0504L35.7488 16.0683L35.7948 16.0843L35.8289 16.1002L35.8509 16.1062L35.6628 17.1499Z" fill="white"/>
<path d="M35.6628 17.1499L35.6127 17.122L35.5647 17.1001L35.5107 17.0742L35.4547 17.0483L35.3986 17.0244L35.3326 17.0025L35.2686 16.9806L35.2005 16.9567L35.1285 16.9387L35.0584 16.9228L34.9784 16.9089L34.8983 16.8969L34.8123 16.8889L34.7243 16.881H34.6342H34.5401H34.4461L34.346 16.8889L34.246 16.9009L34.1399 16.9188L34.0339 16.9487L33.9278 16.9905L33.8218 17.0443L33.7157 17.112L33.6136 17.1937L33.5156 17.2913L33.4215 17.4128L33.3295 17.5522L33.2474 17.7175L33.1674 17.9048L33.0954 18.1159L33.0353 18.3569L33.0133 18.4923L32.9973 18.6238L32.9893 18.7552L32.9933 18.8827L33.0053 19.0102L33.0313 19.1317L33.0653 19.2432L33.1074 19.3568L33.1634 19.4583L33.2314 19.5559L33.3115 19.6436L33.4015 19.7213L33.5036 19.789L33.6216 19.8467L33.7497 19.8945L33.8938 19.9284L33.9418 19.9404L33.9999 19.9523L34.0679 19.9583L34.1439 19.9662L34.226 19.9742H34.312H34.4081L34.5021 19.9662L34.6002 19.9543L34.6982 19.9364L34.7923 19.9105L34.8883 19.8806L34.9824 19.8388L35.0684 19.789L35.1485 19.7292L35.2245 19.6615L35.0544 20.6654L35.0304 20.6853L35.0084 20.7072L34.9784 20.7331L34.9444 20.757L34.9023 20.7869L34.8503 20.8128L34.7883 20.8387L34.7202 20.8626L34.6342 20.8884L34.5361 20.9064L34.4221 20.9223L34.29 20.9362L34.1439 20.9442L33.9738 20.9482L33.7797 20.9442L33.5676 20.9323L33.3955 20.9143L33.2214 20.8765L33.0473 20.8207L32.8732 20.745L32.7071 20.6554L32.549 20.5419L32.397 20.4104L32.2569 20.259L32.1328 20.0897L32.0268 19.9025L31.9367 19.6914L31.8687 19.4623L31.8226 19.2094L31.8066 18.9425L31.8146 18.6497L31.8567 18.337L31.8867 18.1836L31.9207 18.0322L31.9587 17.8868L31.9967 17.7474L32.0388 17.6159L32.0868 17.4845L32.1368 17.359L32.1889 17.2435L32.2449 17.126L32.3029 17.0164L32.367 16.9128L32.435 16.8133L32.503 16.7196L32.5791 16.63L32.6531 16.5464L32.7332 16.4687L32.8212 16.393L32.9072 16.3213L32.9973 16.2576L33.0913 16.1978L33.1934 16.14L33.2955 16.0922L33.4015 16.0464L33.5116 16.0046L33.6296 15.9668L33.7457 15.9369L33.8678 15.911L33.9958 15.8891L34.1239 15.8692L34.26 15.8552L34.3961 15.8472L34.5401 15.8433L34.6602 15.8472L34.7783 15.8552L34.8903 15.8652L35.0044 15.8811L35.1105 15.897L35.2125 15.9189L35.3106 15.9369L35.4006 15.9608L35.4887 15.9827L35.5647 16.0046L35.6368 16.0285L35.6968 16.0504L35.7488 16.0683L35.7948 16.0843L35.8289 16.1002L35.8509 16.1062L35.6628 17.1499Z" stroke="white" stroke-width="0.216" stroke-miterlimit="2.6131"/>
<path fill-rule="evenodd" clip-rule="evenodd" d="M44.9678 20.9524H43.9192L43.9952 20.5341V20.4963L43.9352 20.572L43.8712 20.6397L43.8071 20.6995L43.7391 20.7532L43.6711 20.801L43.603 20.8429L43.535 20.8767L43.4629 20.9106L43.3909 20.9365L43.3189 20.9564L43.2468 20.9743L43.1708 20.9863L43.0967 20.9982L43.0247 21.0042L42.9487 21.0082H42.8726L42.6765 20.9942L42.4944 20.9524L42.3283 20.8887L42.1782 20.801L42.0422 20.6935L41.9201 20.564L41.814 20.4246L41.724 20.2672L41.6479 20.0979L41.5879 19.9207L41.5459 19.7374L41.5159 19.5462L41.5059 19.353L41.5079 19.1578L41.5279 18.9666L41.5619 18.7734L41.6179 18.5523L41.686 18.3412L41.766 18.15L41.8601 17.9687L41.9581 17.7994L42.0722 17.65L42.1882 17.5146L42.3143 17.3891L42.4464 17.2816L42.5865 17.186L42.7305 17.1043L42.8726 17.0406L43.0247 16.9868L43.1748 16.9529L43.3269 16.931L43.4809 16.923L43.591 16.927L43.6971 16.939L43.7951 16.9569L43.8852 16.9828L43.9732 17.0147L44.0493 17.0485L44.1233 17.0884L44.1913 17.1302L44.2534 17.176L44.3094 17.2238L44.3574 17.2736L44.4035 17.3214L44.4415 17.3712L44.4755 17.419L44.5055 17.4648L44.5275 17.5106L44.7937 16.0327H45.8202L44.9678 20.9524Z" fill="white"/>
<path d="M44.9678 20.9524H43.9192L43.9952 20.5341V20.4963L43.9352 20.572L43.8712 20.6397L43.8071 20.6995L43.7391 20.7532L43.6711 20.801L43.603 20.8429L43.535 20.8767L43.4629 20.9106L43.3909 20.9365L43.3189 20.9564L43.2468 20.9743L43.1708 20.9863L43.0967 20.9982L43.0247 21.0042L42.9487 21.0082H42.8726L42.6765 20.9942L42.4944 20.9524L42.3283 20.8887L42.1782 20.801L42.0422 20.6935L41.9201 20.564L41.814 20.4246L41.724 20.2672L41.6479 20.0979L41.5879 19.9207L41.5459 19.7374L41.5159 19.5462L41.5059 19.353L41.5079 19.1578L41.5279 18.9666L41.5619 18.7734L41.6179 18.5523L41.686 18.3412L41.766 18.15L41.8601 17.9687L41.9581 17.7994L42.0722 17.65L42.1882 17.5146L42.3143 17.3891L42.4464 17.2816L42.5865 17.186L42.7305 17.1043L42.8726 17.0406L43.0247 16.9868L43.1748 16.9529L43.3269 16.931L43.4809 16.923L43.591 16.927L43.6971 16.939L43.7951 16.9569L43.8852 16.9828L43.9732 17.0147L44.0493 17.0485L44.1233 17.0884L44.1913 17.1302L44.2534 17.176L44.3094 17.2238L44.3574 17.2736L44.4035 17.3214L44.4415 17.3712L44.4755 17.419L44.5055 17.4648L44.5275 17.5106L44.7937 16.0327H45.8202L44.9678 20.9524Z" stroke="white" stroke-width="0.216" stroke-miterlimit="2.6131"/>
<path fill-rule="evenodd" clip-rule="evenodd" d="M43.2545 20.0425L43.3605 20.0345L43.4586 20.0126L43.5486 19.9847L43.6367 19.9449L43.7147 19.899L43.7908 19.8433L43.8628 19.7795L43.9268 19.7118L43.9829 19.6361L44.0369 19.5525L44.0849 19.4668L44.1269 19.3772L44.165 19.2816L44.195 19.184L44.221 19.0824L44.241 18.9808L44.259 18.8753L44.271 18.7677V18.6661L44.267 18.5606L44.255 18.463L44.241 18.3674L44.215 18.2777L44.185 18.1921L44.147 18.1164L44.1009 18.0447L44.0509 17.9849L43.9949 17.9312L43.9308 17.8874L43.8628 17.8575L43.7908 17.8376L43.7107 17.8296L43.6107 17.8376L43.5146 17.8535L43.4286 17.8834L43.3405 17.9212L43.2665 17.969L43.1904 18.0288L43.1264 18.0945L43.0624 18.1642L43.0043 18.2479L42.9523 18.3335L42.9023 18.4251L42.8622 18.5227L42.8242 18.6243L42.7942 18.7259L42.7622 18.8354L42.7402 18.943L42.7222 19.1083L42.7302 19.2896L42.7562 19.4748L42.8042 19.6501L42.8803 19.8054L42.9783 19.9289L43.1024 20.0126L43.2545 20.0425Z" fill="#E5E5E5"/>
<path fill-rule="evenodd" clip-rule="evenodd" d="M20.0455 20.1181L19.8934 20.9527H18.9409L18.9689 20.7973L18.9869 20.6599L19.0029 20.5543L19.0169 20.4965L18.9649 20.5583L18.9048 20.618L18.8328 20.6738L18.7528 20.7276L18.6627 20.7794L18.5686 20.8252L18.4686 20.869L18.3665 20.9069L18.2585 20.9407L18.1484 20.9666L18.0384 20.9905L17.9243 21.0044L17.8162 21.0124L17.7062 21.0164L17.6001 21.0044L17.4981 20.9905L17.366 20.9566L17.2439 20.9188L17.1399 20.869L17.0438 20.8132L16.9618 20.7535L16.8857 20.6858L16.8257 20.6141L16.7717 20.5384L16.7276 20.4587L16.6896 20.377L16.6596 20.2934L16.6356 20.2117L16.6216 20.1241L16.6096 20.0384L16.6016 19.9548V19.8731L16.6136 19.7257L16.6356 19.5863L16.6736 19.4548L16.7236 19.3274L16.7837 19.2079L16.8517 19.0983L16.9317 18.9927L17.0218 18.8991L17.1158 18.8115L17.2219 18.7338L17.332 18.6621L17.446 18.6024L17.5661 18.5486L17.6902 18.5068L17.8202 18.4729L17.9523 18.451H17.9583L17.9783 18.447L18.0043 18.443L18.0464 18.439L18.0924 18.4331L18.1444 18.4291L18.2004 18.4211L18.2645 18.4131L18.3305 18.4052L18.3946 18.3992L18.4626 18.3952L18.5226 18.3872L18.5827 18.3833L18.6387 18.3793L18.6927 18.3753H18.7347H18.8208L18.9108 18.3793L18.9949 18.3833H19.0769L19.145 18.3872L19.199 18.3912L19.237 18.3952H19.247L19.255 18.3673L19.279 18.2996L19.2971 18.2219L19.3051 18.1502L19.289 18.0666L19.255 17.9929L19.211 17.9252L19.149 17.8674L19.0769 17.8196L18.9989 17.7857L18.9068 17.7618L18.8088 17.7559L18.7047 17.7519L18.5907 17.7479H18.4726L18.3525 17.7519L18.2285 17.7578L18.1064 17.7698L17.9863 17.7817L17.8683 17.7957L17.7542 17.8116L17.6461 17.8296L17.5481 17.8495L17.456 17.8674L17.374 17.8913L17.306 17.9132L17.2519 17.9391L17.2099 17.961L17.48 17.0547L17.5621 17.0209L17.6461 16.991L17.7362 16.9651L17.8262 16.9472L17.9183 16.9273L18.0163 16.9133L18.1144 16.8974L18.2165 16.8894L18.3225 16.8815L18.4326 16.8795L18.5446 16.8755H18.6627H18.7828H18.9068L19.0409 16.8795L19.173 16.8815L19.279 16.8894L19.3911 16.9093L19.5092 16.9352L19.6292 16.9691L19.7473 17.0149L19.8594 17.0667L19.9734 17.1304L20.0795 17.2021L20.1735 17.2858L20.2576 17.3754L20.3336 17.477L20.3897 17.5885L20.4277 17.71L20.4497 17.8375V17.9809L20.4277 18.1303L20.0455 20.1181Z" fill="white"/>
<path d="M20.0455 20.1181L19.8934 20.9527H18.9409L18.9689 20.7973L18.9869 20.6599L19.0029 20.5543L19.0169 20.4965L18.9649 20.5583L18.9048 20.618L18.8328 20.6738L18.7528 20.7276L18.6627 20.7794L18.5686 20.8252L18.4686 20.869L18.3665 20.9069L18.2585 20.9407L18.1484 20.9666L18.0384 20.9905L17.9243 21.0044L17.8162 21.0124L17.7062 21.0164L17.6001 21.0044L17.4981 20.9905L17.366 20.9566L17.2439 20.9188L17.1399 20.869L17.0438 20.8132L16.9618 20.7535L16.8857 20.6858L16.8257 20.6141L16.7717 20.5384L16.7276 20.4587L16.6896 20.377L16.6596 20.2934L16.6356 20.2117L16.6216 20.1241L16.6096 20.0384L16.6016 19.9548V19.8731L16.6136 19.7257L16.6356 19.5863L16.6736 19.4548L16.7236 19.3274L16.7837 19.2079L16.8517 19.0983L16.9317 18.9927L17.0218 18.8991L17.1158 18.8115L17.2219 18.7338L17.332 18.6621L17.446 18.6024L17.5661 18.5486L17.6902 18.5068L17.8202 18.4729L17.9523 18.451H17.9583L17.9783 18.447L18.0043 18.443L18.0464 18.439L18.0924 18.4331L18.1444 18.4291L18.2004 18.4211L18.2645 18.4131L18.3305 18.4052L18.3946 18.3992L18.4626 18.3952L18.5226 18.3872L18.5827 18.3833L18.6387 18.3793L18.6927 18.3753H18.7347H18.8208L18.9108 18.3793L18.9949 18.3833H19.0769L19.145 18.3872L19.199 18.3912L19.237 18.3952H19.247L19.255 18.3673L19.279 18.2996L19.2971 18.2219L19.3051 18.1502L19.289 18.0666L19.255 17.9929L19.211 17.9252L19.149 17.8674L19.0769 17.8196L18.9989 17.7857L18.9068 17.7618L18.8088 17.7559L18.7047 17.7519L18.5907 17.7479H18.4726L18.3525 17.7519L18.2285 17.7578L18.1064 17.7698L17.9863 17.7817L17.8683 17.7957L17.7542 17.8116L17.6461 17.8296L17.5481 17.8495L17.456 17.8674L17.374 17.8913L17.306 17.9132L17.2519 17.9391L17.2099 17.961L17.48 17.0547L17.5621 17.0209L17.6461 16.991L17.7362 16.9651L17.8262 16.9472L17.9183 16.9273L18.0163 16.9133L18.1144 16.8974L18.2165 16.8894L18.3225 16.8815L18.4326 16.8795L18.5446 16.8755H18.6627H18.7828H18.9068L19.0409 16.8795L19.173 16.8815L19.279 16.8894L19.3911 16.9093L19.5092 16.9352L19.6292 16.9691L19.7473 17.0149L19.8594 17.0667L19.9734 17.1304L20.0795 17.2021L20.1735 17.2858L20.2576 17.3754L20.3336 17.477L20.3897 17.5885L20.4277 17.71L20.4497 17.8375V17.9809L20.4277 18.1303L20.0455 20.1181Z" stroke="white" stroke-width="0.216" stroke-miterlimit="2.6131"/>
<path fill-rule="evenodd" clip-rule="evenodd" d="M19.1351 19.1361L19.1311 19.1162L19.1151 19.0982L19.093 19.0863L19.055 19.0783L19.013 19.0723L18.965 19.0684H18.9069H18.8509L18.7909 19.0723L18.7268 19.0783L18.6668 19.0863L18.6048 19.0943L18.5487 19.1022L18.4967 19.1122L18.4507 19.1241L18.4087 19.1361L18.3827 19.1421L18.3526 19.154L18.3106 19.1699L18.2686 19.1879L18.2206 19.2098L18.1705 19.2377L18.1185 19.2636L18.0685 19.2934L18.0165 19.3313L17.9664 19.3691L17.9224 19.4129L17.8804 19.4587L17.8424 19.5085L17.8163 19.5603L17.7923 19.6201L17.7823 19.6818L17.7783 19.8093L17.7963 19.9109L17.8344 19.9846L17.8844 20.0423L17.9404 20.0802L18.0044 20.1021L18.0645 20.114L18.1265 20.118L18.2386 20.114L18.3406 20.1021L18.4387 20.0881L18.5267 20.0642L18.6028 20.0384L18.6728 20.0045L18.7369 19.9706L18.7949 19.9288L18.8429 19.891L18.8889 19.8471L18.927 19.8053L18.957 19.7595L18.983 19.7157L19.007 19.6699L19.025 19.628L19.037 19.5862L19.067 19.4787L19.093 19.3532L19.1151 19.2337L19.1351 19.1361Z" fill="#2C2C2C"/>
<path fill-rule="evenodd" clip-rule="evenodd" d="M12.093 20.9523H11.0664L11.9229 16.0127H13.7119L13.882 18.9426L15.1166 16.0127H16.9837L16.1072 20.9523H15.0786L15.729 17.2615H15.687L14.1501 20.9523H12.9895L12.9815 20.797L12.9555 20.3886L12.9214 19.805L12.8834 19.1358L12.8454 18.4626L12.8114 17.871L12.7854 17.4428L12.7774 17.2615H12.7653H12.7433H12.7213L12.093 20.9523Z" fill="white"/>
<path d="M12.093 20.9523H11.0664L11.9229 16.0127H13.7119L13.882 18.9426L15.1166 16.0127H16.9837L16.1072 20.9523H15.0786L15.729 17.2615H15.687L14.1501 20.9523H12.9895L12.9815 20.797L12.9555 20.3886L12.9214 19.805L12.8834 19.1358L12.8454 18.4626L12.8114 17.871L12.7854 17.4428L12.7774 17.2615H12.7653H12.7433H12.7213L12.093 20.9523Z" stroke="white" stroke-width="0.216" stroke-miterlimit="2.6131"/>
<path fill-rule="evenodd" clip-rule="evenodd" d="M38.8023 20.1181L38.6482 20.9527H37.6997L37.7077 20.7973L37.7097 20.6619V20.5603L37.7177 20.5165L37.6697 20.5722L37.6116 20.628L37.5436 20.6818L37.4696 20.7336L37.3895 20.7834L37.2995 20.8292L37.2034 20.873L37.1094 20.9108L37.0073 20.9407L36.9013 20.9706L36.7952 20.9905L36.6891 21.0044L36.5811 21.0124L36.475 21.0164L36.373 21.0044L36.2709 20.9905L36.1348 20.9566L36.0128 20.9188L35.9087 20.869L35.8087 20.8132L35.7266 20.7535L35.6546 20.6858L35.5945 20.6141L35.5405 20.5384L35.4965 20.4587L35.4625 20.377L35.4324 20.2934L35.4124 20.2117L35.3984 20.1241L35.3864 20.0384L35.3784 19.9548V19.8731L35.3864 19.7257L35.4084 19.5863L35.4425 19.4548L35.4925 19.3274L35.5485 19.2079L35.6206 19.0983L35.7006 18.9927L35.7866 18.8991L35.8847 18.8115L35.9868 18.7338L36.0968 18.6621L36.2129 18.6024L36.3309 18.5486L36.455 18.5068L36.5811 18.4729L36.7092 18.451H36.7172L36.7352 18.447L36.7612 18.443L36.7992 18.439L36.8492 18.4331L36.9013 18.4291L36.9593 18.4211L37.0193 18.4131L37.0834 18.4052L37.1514 18.3992L37.2154 18.3952L37.2795 18.3872L37.3395 18.3833L37.3935 18.3793L37.4456 18.3753H37.4876H37.5776L37.6697 18.3793L37.7557 18.3833H37.8398L37.9098 18.3872L37.9718 18.3912L38.0059 18.3952H38.0199L38.0279 18.3673L38.0399 18.2996L38.0499 18.2219L38.0579 18.1502L38.0439 18.0666L38.0139 17.9929L37.9638 17.9252L37.9078 17.8674L37.8398 17.8196L37.7597 17.7857L37.6757 17.7618L37.5856 17.7559L37.4796 17.7519L37.3675 17.7479H37.2494L37.1294 17.7519L37.0033 17.7578L36.8832 17.7698L36.7612 17.7817L36.6451 17.7957L36.5311 17.8116L36.421 17.8296L36.3229 17.8495L36.2329 17.8674L36.1488 17.8913L36.0808 17.9132L36.0288 17.9391L35.9868 17.961L36.2509 17.0547L36.3349 17.0209L36.421 16.991L36.509 16.9651L36.5991 16.9472L36.6931 16.9273L36.7892 16.9133L36.8873 16.8974L36.9893 16.8894L37.0954 16.8815L37.2034 16.8795L37.3135 16.8755H37.4316H37.5476H37.6697L37.7978 16.8795L37.9258 16.8815L38.0319 16.8894L38.1459 16.9093L38.262 16.9352L38.3841 16.9691L38.5001 17.0149L38.6182 17.0667L38.7303 17.1304L38.8363 17.2021L38.9304 17.2858L39.0184 17.3754L39.0945 17.477L39.1505 17.5885L39.1925 17.71L39.2185 17.8375V17.9809L39.1985 18.1303L38.8023 20.1181Z" fill="white"/>
<path fill-rule="evenodd" clip-rule="evenodd" d="M38.648 20.9782L38.67 20.9563L38.8261 20.1217L38.7801 20.1138L38.624 20.9483L38.648 20.9264V20.9782L38.666 20.9742L38.67 20.9563L38.648 20.9782Z" fill="white"/>
<path fill-rule="evenodd" clip-rule="evenodd" d="M37.6754 20.9527L37.6994 20.9785H38.6479V20.9268H37.6994L37.7214 20.9527H37.6754L37.6714 20.9785H37.6994L37.6754 20.9527Z" fill="white"/>
<path fill-rule="evenodd" clip-rule="evenodd" d="M37.7368 20.5304L37.7028 20.5005L37.6868 20.5602L37.6828 20.6618V20.7973L37.6748 20.9526H37.7208L37.7288 20.7973L37.7368 20.6618L37.7328 20.5602V20.5304L37.6988 20.5005L37.7368 20.5304Z" fill="white"/>
<path fill-rule="evenodd" clip-rule="evenodd" d="M36.2671 21.0124L36.3732 21.0283L36.4752 21.0383L36.5813 21.0343L36.6893 21.0283L36.7994 21.0124L36.9054 20.9944L37.0115 20.9646L37.1176 20.9327L37.2116 20.8969L37.3097 20.851L37.3997 20.8052L37.4798 20.7534L37.5598 20.6997L37.6278 20.6479L37.6879 20.5881L37.7379 20.5304L37.6999 20.5005L37.6499 20.5582L37.5978 20.61L37.5298 20.6618L37.4578 20.7156L37.3777 20.7614L37.2877 20.8052L37.1976 20.851L37.1016 20.8889L37.0035 20.9188L36.8974 20.9486L36.7914 20.9666L36.6893 20.9825L36.5813 20.9905L36.4752 20.9944L36.3732 20.9825L36.2751 20.9666L36.2671 21.0124Z" fill="white"/>
<path fill-rule="evenodd" clip-rule="evenodd" d="M35.3521 19.873L35.3561 19.9547L35.3641 20.0384L35.3741 20.128L35.3901 20.2156L35.4081 20.2973L35.4381 20.3849L35.4721 20.4706L35.5221 20.5503L35.5742 20.6279L35.6362 20.6996L35.7102 20.7713L35.7983 20.8311L35.8964 20.8928L36.0064 20.9406L36.1305 20.9785L36.2666 21.0123L36.2746 20.9665L36.1385 20.9327L36.0204 20.8968L35.9184 20.847L35.8203 20.7952L35.7403 20.7335L35.6722 20.6698L35.6122 20.5981L35.5602 20.5264L35.5181 20.4487L35.4841 20.369L35.4541 20.2913L35.4341 20.2077L35.4201 20.122L35.4081 20.0384L35.4001 19.9547L35.4041 19.873H35.3521Z" fill="white"/>
<path fill-rule="evenodd" clip-rule="evenodd" d="M36.7088 18.4287L36.5767 18.4506L36.4487 18.4845L36.3226 18.5263L36.2025 18.5781L36.0845 18.6378L35.9724 18.7135L35.8703 18.7932L35.7723 18.8828L35.6802 18.9765L35.6022 19.082L35.5261 19.1955L35.4681 19.319L35.4201 19.4465L35.3861 19.582L35.3641 19.7254L35.3521 19.8728H35.4041L35.4081 19.7254L35.4321 19.5899L35.4661 19.4624L35.5141 19.335L35.5702 19.2175L35.6382 19.1119L35.7183 19.0063L35.8023 18.9127L35.9004 18.8311L36.0024 18.7514L36.1085 18.6837L36.2245 18.6239L36.3386 18.5701L36.4627 18.5303L36.5847 18.4964L36.7088 18.4725V18.4287Z" fill="white"/>
<path fill-rule="evenodd" clip-rule="evenodd" d="M37.4869 18.3491H37.4449L37.3929 18.3571L37.3388 18.3611L37.2788 18.3651L37.2148 18.371L37.1507 18.375L37.0827 18.383L37.0187 18.3909L36.9586 18.3989L36.9006 18.4049L36.8486 18.4089L36.7985 18.4168L36.7605 18.4208L36.7305 18.4248L36.7165 18.4288H36.7085V18.4726H36.7165L36.7385 18.4686L36.7605 18.4666L36.7985 18.4627L36.8486 18.4547L36.9006 18.4507L36.9586 18.4427L37.0187 18.4348L37.0827 18.4288L37.1507 18.4208L37.2148 18.4168L37.2788 18.4089L37.3388 18.4049L37.3929 18.4009H37.4449H37.4869V18.3491Z" fill="white"/>
<path fill-rule="evenodd" clip-rule="evenodd" d="M37.9971 18.3909L38.0191 18.371H38.0051L37.9711 18.367L37.909 18.3651L37.839 18.3571H37.755H37.6689L37.5769 18.3491H37.4868V18.4009H37.5769H37.6689L37.755 18.4089H37.839H37.909L37.9711 18.4129L38.0051 18.4168H38.0191L38.0431 18.3989L38.0191 18.4168L38.0391 18.4208L38.0431 18.3989L37.9971 18.3909Z" fill="white"/>
<path fill-rule="evenodd" clip-rule="evenodd" d="M38.0351 18.1499H38.0311L38.0271 18.2216L38.0151 18.2973L38.0051 18.365L37.9971 18.3909L38.0431 18.3989L38.0491 18.371L38.0611 18.3033L38.0731 18.2216L38.0831 18.1499H38.0791H38.0351Z" fill="white"/>
<path fill-rule="evenodd" clip-rule="evenodd" d="M37.5854 17.7773V17.7813L37.6715 17.7853L37.7515 17.8072L37.8276 17.8411L37.8916 17.8869L37.9436 17.9387L37.9897 18.0024L38.0197 18.0701L38.0357 18.1498H38.0797L38.0657 18.0622L38.0357 17.9805L37.9817 17.9088L37.9216 17.849L37.8496 17.7953L37.7675 17.7614L37.6795 17.7395L37.5854 17.7275V17.7315V17.7773Z" fill="white"/>
<path fill-rule="evenodd" clip-rule="evenodd" d="M35.9648 17.9587L36.0029 17.9806L36.0409 17.9607L36.0889 17.9348L36.1529 17.9129L36.237 17.891L36.327 17.8711L36.4251 17.8531L36.5352 17.8332L36.6452 17.8193L36.7613 17.8033L36.8834 17.7914L37.0034 17.7814L37.1295 17.7735H37.2496H37.3676H37.4797L37.5857 17.7774V17.7316L37.4797 17.7277L37.3676 17.7217H37.2496L37.1295 17.7277L37.0034 17.7356L36.8834 17.7476L36.7613 17.7575L36.6452 17.7735L36.5272 17.7894L36.4171 17.8073L36.319 17.8253L36.229 17.8452L36.1449 17.8671L36.0749 17.891L36.0169 17.9169L35.9728 17.9428L36.0109 17.9647L35.9648 17.9587Z" fill="white"/>
<path fill-rule="evenodd" clip-rule="evenodd" d="M36.245 17.0327L36.229 17.0506L35.9648 17.9589L36.0109 17.9649L36.275 17.0586L36.259 17.0785L36.245 17.0327L36.233 17.0367L36.229 17.0506L36.245 17.0327Z" fill="white"/>
<path fill-rule="evenodd" clip-rule="evenodd" d="M37.9256 16.8591L37.7975 16.8512L37.6694 16.8472H37.5474H37.4313H37.3132L37.2032 16.8551L37.0951 16.8591L36.989 16.8671L36.887 16.8751L36.7849 16.889L36.6889 16.9049L36.5948 16.9229L36.5048 16.9428L36.4147 16.9687L36.3267 16.9985L36.2446 17.0324L36.2586 17.0782L36.3427 17.0444L36.4287 17.0145L36.5128 16.9866L36.6028 16.9687L36.6969 16.9487L36.7909 16.9348L36.887 16.9189L36.989 16.9129L37.0951 16.9049L37.2032 16.9009H37.3132H37.4313H37.5474H37.6694L37.7975 16.9049H37.9256V16.8591Z" fill="white"/>
<path fill-rule="evenodd" clip-rule="evenodd" d="M39.2215 18.1341L39.2395 17.9808V17.8373L39.2135 17.7059L39.1715 17.5824L39.1115 17.4649L39.0354 17.3593L38.9454 17.2657L38.8513 17.184L38.7413 17.1123L38.6272 17.0446L38.5071 16.9908L38.3891 16.947L38.265 16.9132L38.1469 16.8853L38.0309 16.8673L37.9248 16.8594V16.9052L38.0309 16.9132L38.1409 16.9311L38.257 16.957L38.3751 16.9908L38.4911 17.0366L38.6052 17.0884L38.7192 17.1502L38.8213 17.2199L38.9154 17.3035L38.9974 17.3892L39.0734 17.4868L39.1275 17.5963L39.1675 17.7139L39.1955 17.8373V17.9808L39.1755 18.1281L39.2215 18.1341Z" fill="white"/>
<path fill-rule="evenodd" clip-rule="evenodd" d="M38.8258 20.1217L39.222 18.1339L39.176 18.1279L38.7798 20.1137L38.8258 20.1217Z" fill="white"/>
<path fill-rule="evenodd" clip-rule="evenodd" d="M37.888 19.1362L37.88 19.1123L37.8659 19.0943L37.8399 19.0824L37.8019 19.0724L37.7599 19.0684L37.7099 19.0645H37.6538L37.5978 19.0684L37.5378 19.0744L37.4757 19.0824L37.4157 19.0903L37.3597 19.0983L37.3016 19.1083L37.2536 19.1162L37.2036 19.1282L37.1656 19.1362L37.1395 19.1401L37.1095 19.1501L37.0715 19.1621L37.0295 19.176L36.9815 19.1999L36.9354 19.2218L36.8834 19.2477L36.8334 19.2816L36.7854 19.3154L36.7353 19.3572L36.6933 19.3991L36.6533 19.4469L36.6193 19.5007L36.5912 19.5564L36.5692 19.6162L36.5572 19.6819L36.5532 19.8094L36.5732 19.911L36.6033 19.9847L36.6493 20.0424L36.7053 20.0803L36.7693 20.1022L36.8334 20.1141L36.8974 20.1181L37.0115 20.1141L37.1175 20.1022L37.2156 20.0842L37.3016 20.0564L37.3857 20.0265L37.4577 19.9926L37.5258 19.9548L37.5858 19.911L37.6378 19.8691L37.6838 19.8193L37.7259 19.7755L37.7599 19.7257L37.7859 19.6819L37.8059 19.6361L37.8199 19.5903L37.8319 19.5485L37.8459 19.4449L37.8659 19.3353L37.88 19.2298L37.888 19.1362Z" fill="#E5E5E5"/>
<path fill-rule="evenodd" clip-rule="evenodd" d="M45.6738 20.4366L45.6798 20.351L45.7118 20.2494L45.7639 20.1578L45.8279 20.0801L45.908 20.0163L45.998 19.9705L46.0961 19.9407L46.2021 19.9287L46.3082 19.9407L46.4062 19.9705L46.4963 20.0163L46.5763 20.0801L46.6404 20.1578L46.6944 20.2494L46.7244 20.351L46.7324 20.4366H46.6184L46.6143 20.3689L46.5923 20.2872L46.5543 20.2115L46.5043 20.1478L46.4443 20.094L46.3722 20.0562L46.2902 20.0303L46.2021 20.0223L46.1161 20.0303L46.032 20.0562L45.96 20.094L45.9 20.1478L45.8499 20.2115L45.8139 20.2872L45.7899 20.3689L45.7819 20.4366H45.6738Z" fill="white"/>
<path fill-rule="evenodd" clip-rule="evenodd" d="M46.0142 20.4365V20.2114H46.2223L46.2663 20.2154L46.3083 20.2234L46.3383 20.2333L46.3644 20.2493L46.3844 20.2712L46.3984 20.2931L46.4064 20.321L46.4104 20.3469L46.4064 20.3807L46.3984 20.4066L46.3884 20.4285L46.3804 20.4365H46.2223L46.2363 20.4325L46.2623 20.4285L46.2863 20.4226L46.3043 20.4146L46.3203 20.4026L46.3263 20.3927L46.3343 20.3728V20.3469L46.3303 20.3269L46.3243 20.313L46.3123 20.305L46.3003 20.2971L46.2823 20.2931L46.2623 20.2911H46.2443H46.2223H46.1082V20.4365H46.0142Z" fill="white"/>
<path fill-rule="evenodd" clip-rule="evenodd" d="M45.6734 20.4365L45.6694 20.4584L45.6794 20.568L45.7115 20.6696L45.7635 20.7612L45.8275 20.8349L45.9076 20.8986L45.9976 20.9484L46.0957 20.9783L46.2017 20.9902L46.3078 20.9783L46.4058 20.9484L46.4959 20.8986L46.5759 20.8349L46.64 20.7612L46.694 20.6696L46.724 20.568L46.734 20.4584L46.732 20.4365H46.618L46.622 20.4584L46.614 20.5501L46.5919 20.6317L46.5539 20.7034L46.5039 20.7672L46.4439 20.8209L46.3718 20.8628L46.2898 20.8887L46.2017 20.8966L46.1157 20.8887L46.0316 20.8628L45.9596 20.8209L45.8996 20.7672L45.8495 20.7034L45.8135 20.6317L45.7895 20.5501L45.7815 20.4584V20.4365H45.6734Z" fill="white"/>
<path fill-rule="evenodd" clip-rule="evenodd" d="M46.0142 20.4365V20.6656H46.1082V20.4784H46.2023L46.3163 20.6656H46.3924L46.2783 20.4784H46.3043L46.3303 20.4704L46.3544 20.4624L46.3724 20.4485L46.3804 20.4365H46.2223L46.2023 20.4405H46.1082V20.4365H46.0142Z" fill="white"/>
<path d="M45.6694 20.4586L45.6814 20.349L45.7115 20.2474L45.7635 20.1578L45.8275 20.0781L45.9076 20.0144L45.9976 19.9686L46.0957 19.9387L46.2017 19.9268L46.3078 19.9387L46.4058 19.9686L46.4959 20.0144L46.5759 20.0781L46.64 20.1578L46.692 20.2474L46.722 20.349L46.734 20.4586L46.722 20.5681L46.692 20.6697L46.64 20.7593L46.5759 20.835L46.4959 20.8987L46.4058 20.9485L46.3078 20.9784L46.2017 20.9904L46.0957 20.9784L45.9976 20.9485L45.9076 20.8987L45.8275 20.835L45.7635 20.7593L45.7115 20.6697L45.6814 20.5681L45.6694 20.4586ZM46.1077 20.6657H46.0136V20.2096H46.2217L46.2678 20.2136L46.3098 20.2215L46.3398 20.2335L46.3658 20.2494L46.3838 20.2713L46.3998 20.2932L46.4078 20.3191L46.4118 20.345L46.4078 20.3789L46.3998 20.4048L46.3878 20.4267L46.3718 20.4446L46.3538 20.4606L46.3318 20.4685L46.3058 20.4765H46.2798L46.3938 20.6637H46.3178L46.2037 20.4765H46.1097V20.6657H46.1077ZM46.2017 20.4406L46.2357 20.4327L46.2618 20.4287L46.2838 20.4207L46.3018 20.4128L46.3178 20.4008L46.3258 20.3889L46.3338 20.3709V20.347L46.3298 20.3291L46.3218 20.3132L46.3098 20.3052L46.2978 20.2972L46.2798 20.2932L46.2618 20.2893H46.2438H46.2217H46.1077V20.4406H46.2017ZM46.2017 20.8968L46.2878 20.8888L46.3718 20.8629L46.4439 20.8211L46.5039 20.7693L46.5539 20.7055L46.5919 20.6338L46.614 20.5502L46.622 20.4606L46.614 20.3709L46.5919 20.2873L46.5539 20.2116L46.5039 20.1478L46.4439 20.0961L46.3718 20.0582L46.2878 20.0323L46.2017 20.0244L46.1157 20.0323L46.0316 20.0582L45.9596 20.0961L45.8996 20.1478L45.8495 20.2116L45.8115 20.2873L45.7895 20.3709L45.7815 20.4606L45.7895 20.5502L45.8115 20.6338L45.8495 20.7055L45.8996 20.7693L45.9596 20.8211L46.0316 20.8629L46.1157 20.8888L46.2017 20.8968Z" stroke="white" stroke-width="0.216" stroke-miterlimit="2.6131"/>
<path fill-rule="evenodd" clip-rule="evenodd" d="M39.0859 20.9525H40.1505L40.5327 18.8114L40.5487 18.7297L40.5708 18.6461L40.5928 18.5644L40.6248 18.4807L40.6608 18.3991L40.7068 18.3194L40.7569 18.2437L40.8169 18.172L40.8849 18.1083L40.961 18.0485L41.047 17.9928L41.1451 17.9469L41.2551 17.9091L41.3752 17.8792L41.5073 17.8573L41.6554 17.8494H41.7094H41.7394H41.7494L41.9195 16.8813L41.8134 16.8893L41.7114 16.9013L41.6173 16.9192L41.5273 16.9471L41.4432 16.977L41.3652 17.0148L41.2892 17.0546L41.2171 17.1004L41.1491 17.1522L41.085 17.206L41.025 17.2658L40.963 17.3255L40.9069 17.3893L40.8509 17.461L40.7929 17.5287L40.7409 17.6044L40.8549 16.9232H39.7923L39.0859 20.9525Z" fill="white"/>
<path d="M39.0859 20.9525H40.1505L40.5327 18.8114L40.5487 18.7297L40.5708 18.6461L40.5928 18.5644L40.6248 18.4807L40.6608 18.3991L40.7068 18.3194L40.7569 18.2437L40.8169 18.172L40.8849 18.1083L40.961 18.0485L41.047 17.9928L41.1451 17.9469L41.2551 17.9091L41.3752 17.8792L41.5073 17.8573L41.6554 17.8494H41.7094H41.7394H41.7494L41.9195 16.8813L41.8134 16.8893L41.7114 16.9013L41.6173 16.9192L41.5273 16.9471L41.4432 16.977L41.3652 17.0148L41.2892 17.0546L41.2171 17.1004L41.1491 17.1522L41.085 17.206L41.025 17.2658L40.963 17.3255L40.9069 17.3893L40.8509 17.461L40.7929 17.5287L40.7409 17.6044L40.8549 16.9232H39.7923L39.0859 20.9525Z" stroke="white" stroke-width="0.216" stroke-miterlimit="2.6131"/>
<path fill-rule="evenodd" clip-rule="evenodd" d="M29.0786 20.9525H30.1432H30.1632L30.5254 18.8114L30.5414 18.7297L30.5594 18.65L30.5794 18.5704L30.6055 18.4967L30.6355 18.421L30.6735 18.3493L30.7175 18.2816L30.7715 18.2178L30.8316 18.1621L30.8996 18.1043L30.9837 18.0605L31.0737 18.0187L31.1798 17.9848L31.2958 17.9549L31.4259 17.935L31.572 17.925H31.584L31.598 17.927L31.618 17.931H31.636L31.656 17.935L31.67 17.939L31.682 17.943H31.6861L31.6901 17.927L31.7001 17.8832L31.7161 17.8155L31.7341 17.7318L31.7621 17.6342L31.7881 17.5287L31.8221 17.4231L31.8561 17.3175L31.8862 17.2478L31.9242 17.1761L31.9622 17.1044L32.0002 17.0407L32.0342 16.9829L32.0603 16.9391L32.0783 16.9132L32.0863 16.9013H32.0823L32.0683 16.8973L32.0483 16.8933L32.0222 16.8893H31.9962L31.9662 16.8853L31.9382 16.8813H31.9122L31.7961 16.8893L31.6901 16.9013L31.592 16.9192L31.4999 16.9431L31.4139 16.973L31.3339 17.0108L31.2618 17.0487L31.1938 17.0925L31.1297 17.1423L31.0697 17.198L31.0137 17.2538L30.9556 17.3175L30.8996 17.3833L30.8476 17.453L30.7896 17.5287L30.7335 17.6044L30.8696 16.9232H29.785L29.0786 20.9525Z" fill="white"/>
<path d="M29.0786 20.9525H30.1432H30.1632L30.5254 18.8114L30.5414 18.7297L30.5594 18.65L30.5794 18.5704L30.6055 18.4967L30.6355 18.421L30.6735 18.3493L30.7175 18.2816L30.7715 18.2178L30.8316 18.1621L30.8996 18.1043L30.9837 18.0605L31.0737 18.0187L31.1798 17.9848L31.2958 17.9549L31.4259 17.935L31.572 17.925H31.584L31.598 17.927L31.618 17.931H31.636L31.656 17.935L31.67 17.939L31.682 17.943H31.6861L31.6901 17.927L31.7001 17.8832L31.7161 17.8155L31.7341 17.7318L31.7621 17.6342L31.7881 17.5287L31.8221 17.4231L31.8561 17.3175L31.8862 17.2478L31.9242 17.1761L31.9622 17.1044L32.0002 17.0407L32.0342 16.9829L32.0603 16.9391L32.0783 16.9132L32.0863 16.9013H32.0823L32.0683 16.8973L32.0483 16.8933L32.0222 16.8893H31.9962L31.9662 16.8853L31.9382 16.8813H31.9122L31.7961 16.8893L31.6901 16.9013L31.592 16.9192L31.4999 16.9431L31.4139 16.973L31.3339 17.0108L31.2618 17.0487L31.1938 17.0925L31.1297 17.1423L31.0697 17.198L31.0137 17.2538L30.9556 17.3175L30.8996 17.3833L30.8476 17.453L30.7896 17.5287L30.7335 17.6044L30.8696 16.9232H29.785L29.0786 20.9525Z" stroke="white" stroke-width="0.216" stroke-miterlimit="2.6131"/>
</svg>
