<svg width="26" height="26" viewBox="0 0 26 26" fill="none" xmlns="http://www.w3.org/2000/svg">
<path d="M15.6324 5.52381C16.737 5.73933 17.7522 6.27958 18.5481 7.0754C19.3439 7.87123 19.8841 8.88643 20.0997 9.99107M15.6324 1C17.9274 1.25496 20.0675 2.2827 21.7014 3.91447C23.3352 5.54625 24.3656 7.68507 24.6235 9.97976M23.4925 19.0048V22.3976C23.4938 22.7126 23.4293 23.0244 23.3031 23.313C23.1769 23.6015 22.9918 23.8606 22.7597 24.0735C22.5276 24.2865 22.2536 24.4486 21.9553 24.5495C21.6569 24.6504 21.3407 24.6879 21.027 24.6595C17.5469 24.2814 14.204 23.0922 11.2669 21.1875C8.53434 19.4511 6.2176 17.1344 4.4812 14.4018C2.56987 11.4514 1.38041 8.0922 1.00918 4.59643C0.980918 4.28368 1.01809 3.96848 1.11832 3.67088C1.21855 3.37329 1.37965 3.09983 1.59136 2.8679C1.80306 2.63598 2.06074 2.45068 2.34799 2.3238C2.63524 2.19693 2.94576 2.13125 3.25978 2.13095H6.65263C7.20149 2.12555 7.73359 2.31991 8.14974 2.6778C8.5659 3.0357 8.83772 3.53271 8.91454 4.07619C9.05774 5.16198 9.32332 6.22808 9.7062 7.25417C9.85837 7.65896 9.8913 8.09889 9.8011 8.52183C9.7109 8.94477 9.50135 9.33298 9.19727 9.64048L7.76097 11.0768C9.37094 13.9082 11.7153 16.2525 14.5467 17.8625L15.983 16.4262C16.2905 16.1221 16.6787 15.9126 17.1016 15.8224C17.5246 15.7322 17.9645 15.7651 18.3693 15.9173C19.3954 16.3001 20.4615 16.5657 21.5473 16.7089C22.0967 16.7864 22.5984 17.0631 22.957 17.4865C23.3157 17.9098 23.5063 18.4501 23.4925 19.0048Z" stroke="white" stroke-width="2" stroke-linecap="round" stroke-linejoin="round"/>
</svg>
