<svg width="389" height="137" viewBox="0 0 389 137" fill="none" xmlns="http://www.w3.org/2000/svg">
<path d="M196.377 107.709C196.377 107.709 196.734 107.749 197.45 107.795C198.159 107.856 199.189 107.901 200.496 107.927C201.811 107.939 203.398 107.965 205.239 107.867C206.159 107.818 207.126 107.775 208.167 107.716C209.2 107.616 210.279 107.522 211.412 107.419C213.667 107.263 216.109 106.783 218.704 106.438C219.994 106.179 221.313 105.899 222.67 105.638C223.347 105.497 224.036 105.363 224.712 105.223C225.392 105.047 226.093 104.864 226.794 104.681C228.195 104.315 229.605 103.936 231.04 103.569C232.462 103.14 233.891 102.641 235.35 102.177C238.268 101.303 241.139 100.056 244.033 98.9115C245.486 98.3706 246.896 97.6778 248.306 96.985C249.707 96.3063 251.121 95.6342 252.501 94.9629C255.262 93.5647 257.864 91.9546 260.448 90.5188C261.1 90.1631 261.723 89.7734 262.316 89.3496C262.921 88.9325 263.531 88.5361 264.12 88.1472C265.306 87.3552 266.471 86.5707 267.6 85.8218C268.168 85.4402 268.728 85.0728 269.275 84.6987C269.81 84.318 270.323 83.8891 270.824 83.5091C271.831 82.7143 272.82 81.9477 273.76 81.2101C274.7 80.4724 275.603 79.7704 276.456 79.0973C276.887 78.7537 277.301 78.4383 277.702 78.1162C278.087 77.7667 278.463 77.4313 278.819 77.1034C280.261 75.7841 281.51 74.657 282.551 73.7154C284.614 71.8396 285.796 70.7697 285.796 70.7697C285.796 70.7697 284.601 71.833 282.509 73.6747C281.463 74.5955 280.201 75.716 278.742 77.0078C278.374 77.3291 277.997 77.6645 277.621 77.9999C277.22 78.322 276.793 78.6307 276.362 78.9743C275.505 79.6266 274.589 80.322 273.645 81.0389C272.7 81.7558 271.719 82.5083 270.687 83.2898C270.165 83.6772 269.66 84.092 269.121 84.452C268.569 84.8053 268.009 85.1727 267.441 85.5543C266.3 86.2965 265.13 87.0603 263.94 87.8315C263.35 88.2205 262.741 88.6168 262.131 89.0132C261.534 89.4162 260.898 89.7993 260.254 90.1408C257.674 91.5419 255.042 93.1179 252.293 94.4671C250.908 95.1177 249.511 95.7615 248.105 96.4195C246.699 97.0775 245.298 97.7562 243.84 98.2763C240.95 99.3855 238.09 100.584 235.184 101.409C233.741 101.845 232.32 102.33 230.894 102.738C229.467 103.091 228.053 103.45 226.668 103.787C225.975 103.956 225.283 104.125 224.603 104.301C223.914 104.435 223.246 104.561 222.565 104.681C221.229 104.934 219.913 105.18 218.631 105.425C216.073 105.734 213.655 106.172 211.417 106.3C210.292 106.388 209.234 106.475 208.21 106.561C207.197 106.598 206.23 106.641 205.326 106.662C203.523 106.724 201.952 106.67 200.658 106.651C199.368 106.597 198.37 106.551 197.704 106.476C197.021 106.429 196.66 106.367 196.66 106.367C196.311 106.313 195.963 106.571 195.872 106.928C195.793 107.291 195.991 107.634 196.347 107.675L196.377 107.709Z" fill="#C9C9C9"/>
<path d="M198.185 107.534C199.897 109.02 201.781 110.321 203.702 111.531C205.631 112.727 207.643 113.838 209.735 114.753C211.816 115.717 213.99 116.492 216.188 117.169C218.41 117.803 220.681 118.354 223.007 118.64L224.751 118.876L226.522 118.981C227.7 119.085 228.888 119.086 230.08 119.051C231.272 119.072 232.467 118.947 233.662 118.823C234.857 118.753 236.059 118.504 237.248 118.303C238.446 118.143 239.625 117.79 240.821 117.465C242.006 117.188 243.179 116.758 244.34 116.322L246.076 115.693L247.767 114.912C248.898 114.387 250.05 113.91 251.115 113.24C252.198 112.598 253.319 112.032 254.355 111.328L257.479 109.19C258.493 108.439 259.461 107.626 260.453 106.827C260.949 106.427 261.45 106.048 261.929 105.621L263.321 104.334C264.241 103.461 265.196 102.641 266.074 101.727L268.682 98.9699C269.586 98.0686 270.383 97.0936 271.194 96.1251L273.645 93.2125C275.156 91.1811 276.717 89.1763 278.197 87.111C279.589 84.9993 281.07 82.934 282.407 80.7749C283.698 78.61 285.086 76.4776 286.347 74.2787L290.008 67.6364C290.123 67.4397 290.061 67.2054 289.871 67.1059C289.77 67.0527 289.636 67.0558 289.536 67.1136L289.507 67.1351L286.452 68.7586L283.3 70.0931C282.221 70.4439 281.147 70.8154 280.072 71.1314C278.979 71.3647 277.905 71.6807 276.803 71.8726C274.612 72.263 272.411 72.5011 270.207 72.5729C269.107 72.6192 268.016 72.6514 266.919 72.6075C265.831 72.605 264.743 72.547 263.649 72.4683C259.294 72.181 254.989 71.5529 250.63 71.0438C248.447 70.7963 246.268 70.5695 244.049 70.4684C241.834 70.3325 239.596 70.3497 237.339 70.4851C236.219 70.5388 235.071 70.7248 233.943 70.848C232.817 71.082 231.677 71.254 230.556 71.5642C229.444 71.9157 228.305 72.1431 227.216 72.6535L225.578 73.3154C225.045 73.5495 224.519 73.8598 223.983 74.1287C223.46 74.4042 222.932 74.659 222.418 74.9759L220.926 75.9532C219.893 76.5663 218.975 77.3501 218.036 78.0858C217.067 78.7876 216.214 79.6599 215.339 80.4843C214.446 81.2813 213.643 82.1802 212.853 83.0858L211.651 84.4168C211.268 84.8763 210.903 85.363 210.533 85.8291C209.81 86.7885 209.02 87.6941 208.374 88.6934L206.362 91.6721C205.703 92.6648 205.124 93.718 204.515 94.7372C203.239 96.7631 202.249 98.921 201.133 101.013C200.08 103.137 199.136 105.301 198.134 107.452C198.163 107.486 198.181 107.514 198.185 107.534ZM198.314 107.455C199.384 105.358 200.395 103.248 201.516 101.177C202.695 99.1186 203.786 97.0138 205.084 95.0359C205.718 94.03 206.306 93.0182 206.978 92.0322L209.02 89.1429C209.692 88.1569 210.479 87.286 211.206 86.3473C211.588 85.8878 211.937 85.4292 212.332 84.9764L213.544 83.6868C214.343 82.8226 215.142 81.9584 216.031 81.1961C216.902 80.4065 217.736 79.597 218.688 78.9233C219.611 78.2157 220.508 77.4948 221.517 76.9238L222.976 76.0028C223.474 75.714 223.986 75.4872 224.501 75.2258C225.007 74.9783 225.518 74.6962 226.034 74.4901L227.619 73.8919C228.654 73.4451 229.747 73.2119 230.818 72.8751C231.897 72.5798 232.982 72.416 234.067 72.1968C235.166 72.0951 236.255 71.8966 237.355 71.8504C239.537 71.7305 241.729 71.7075 243.902 71.8582C246.079 71.9741 248.237 72.2083 250.416 72.4351C254.745 72.9102 259.096 73.4888 263.521 73.7398C264.623 73.8044 265.732 73.855 266.861 73.8427C267.979 73.8792 269.091 73.8396 270.22 73.7718C272.465 73.6852 274.716 73.3627 276.964 72.9294C278.082 72.7094 279.207 72.3645 280.316 72.1031C281.428 71.7516 282.519 71.352 283.613 70.9732L286.823 69.5402L289.915 67.8257L289.36 67.3326L285.841 74.0131C284.639 76.2245 283.31 78.3695 282.044 80.5477C280.74 82.7059 279.281 84.7638 277.901 86.8822C276.454 88.9468 274.914 90.9441 273.378 92.9622L270.918 95.8335C270.095 96.7953 269.284 97.7637 268.397 98.6368L265.754 101.339C264.859 102.226 263.888 103.018 262.958 103.851L261.545 105.09C261.074 105.503 260.556 105.854 260.068 106.24C259.075 106.984 258.103 107.776 257.08 108.486L253.963 110.499C252.922 111.181 251.813 111.699 250.742 112.292C249.675 112.906 248.557 113.383 247.443 113.88L245.768 114.633L244.061 115.241C242.929 115.655 241.784 116.063 240.629 116.318C239.483 116.615 238.312 116.954 237.152 117.134C235.988 117.348 234.82 117.597 233.649 117.679C232.475 117.796 231.319 117.941 230.151 117.933C228.985 117.981 227.822 117.994 226.67 117.903L224.937 117.819L223.223 117.616C220.935 117.35 218.698 116.854 216.472 116.309C214.288 115.694 212.107 114.989 210.031 114.102C207.94 113.242 205.896 112.243 203.923 111.152C201.991 110.046 200.082 108.842 198.314 107.455Z" fill="#C9C9C9"/>
<path d="M210.468 104.075C210.468 104.075 210.563 104.15 210.718 104.3C210.852 104.458 211.068 104.684 211.331 104.978C211.879 105.557 212.647 106.384 213.668 107.275C214.697 108.151 215.885 109.199 217.291 110.128C218.68 111.088 220.256 111.952 221.886 112.685C222.726 113.004 223.525 113.402 224.381 113.629C225.221 113.887 226.061 114.145 226.9 114.281C227.722 114.448 228.539 114.591 229.321 114.613C230.108 114.658 230.835 114.749 231.531 114.681C232.223 114.651 232.842 114.599 233.406 114.557C233.969 114.453 234.442 114.358 234.839 114.281C235.641 114.11 236.08 114.016 236.08 114.016C236.08 114.016 235.627 114.041 234.833 114.074C234.435 114.09 233.961 114.123 233.406 114.15C232.863 114.123 232.248 114.075 231.581 114.059C230.91 114.08 230.212 113.904 229.451 113.812C228.702 113.729 227.94 113.515 227.135 113.317C226.326 113.158 225.545 112.852 224.727 112.586C223.904 112.358 223.114 111.945 222.308 111.625C221.497 111.282 220.733 110.884 219.961 110.501C219.222 110.057 218.454 109.697 217.757 109.236C216.344 108.384 215.076 107.514 213.996 106.731C212.933 105.918 212.03 105.277 211.428 104.768C211.126 104.514 210.864 104.343 210.7 104.209C210.58 104.119 210.468 104.075 210.468 104.075Z" fill="#C9C9C9"/>
<path d="M217.667 103.378C217.667 103.378 217.627 102.879 217.719 101.999C217.747 101.55 217.842 101.015 217.965 100.407C218.087 99.7986 218.258 99.1112 218.468 98.3575C218.88 96.8634 219.518 95.1542 220.29 93.3563C220.653 92.4548 221.09 91.5379 221.555 90.6007C221.988 89.6644 222.523 88.7444 223.014 87.8193C223.487 86.8688 224.04 85.9742 224.555 85.0613C225.058 84.1423 225.62 83.2864 226.149 82.4315C226.682 81.596 227.17 80.7554 227.689 79.9983C228.195 79.2351 228.678 78.5116 229.116 77.835C229.554 77.1584 229.99 76.5663 230.348 76.0222C230.72 75.4842 231.038 75.0063 231.302 74.6211C231.824 73.8314 232.119 73.3932 232.119 73.3932C232.119 73.3932 231.774 73.807 231.155 74.5154C230.855 74.8823 230.494 75.3226 230.06 75.8301C229.639 76.3438 229.149 76.8922 228.686 77.5566C227.742 78.86 226.544 80.347 225.461 82.0445C224.907 82.8872 224.325 83.7503 223.789 84.6703C223.253 85.5904 222.668 86.4861 222.174 87.4437C221.693 88.4075 221.169 89.3336 220.754 90.2952C220.314 91.2447 219.873 92.1941 219.527 93.1211C219.123 94.0369 218.855 94.9678 218.581 95.8274C218.333 96.6992 218.103 97.512 217.943 98.29C217.771 99.0619 217.671 99.7666 217.618 100.392C217.566 101.017 217.529 101.564 217.542 101.998C217.533 102.902 217.667 103.378 217.667 103.378Z" fill="#C9C9C9"/>
<path d="M228.641 102.909C228.641 102.909 229.794 104.181 231.752 105.774C232.742 106.566 233.912 107.462 235.223 108.317C235.898 108.724 236.56 109.186 237.298 109.569C238.02 109.984 238.767 110.351 239.522 110.704C240.269 111.071 241.066 111.346 241.847 111.652C242.606 111.965 243.423 112.109 244.177 112.339C244.948 112.537 245.718 112.613 246.429 112.736C247.151 112.805 247.861 112.805 248.506 112.83C249.147 112.831 249.753 112.711 250.278 112.646C250.807 112.604 251.254 112.433 251.634 112.326C252.367 112.095 252.797 111.955 252.797 111.955C252.797 111.955 252.374 112.018 251.628 112.118C251.248 112.165 250.813 112.282 250.3 112.231C249.791 112.204 249.214 112.239 248.599 112.191C247.987 112.104 247.324 112.049 246.626 111.933C245.95 111.748 245.213 111.611 244.485 111.396C243.761 111.143 242.99 110.944 242.252 110.622C241.506 110.316 240.743 110.041 240.004 109.657C238.494 109.014 237.064 108.193 235.715 107.439C234.375 106.67 233.121 105.929 232.093 105.237C231.066 104.546 230.181 103.997 229.591 103.556C228.985 103.147 228.641 102.909 228.641 102.909Z" fill="#C9C9C9"/>
<path d="M239.806 99.9968C239.806 99.9968 239.854 99.5399 239.989 98.7484C240.104 97.9641 240.393 96.8359 240.735 95.5109C241.097 94.1788 241.645 92.6455 242.261 91.0256C242.569 90.2156 242.938 89.3841 243.295 88.5466C243.697 87.7141 244.049 86.8572 244.484 86.0236C244.919 85.1901 245.304 84.3321 245.782 83.5362C246.246 82.7343 246.64 81.915 247.126 81.1579C247.58 80.4018 248.025 79.659 248.426 78.9632C248.872 78.2724 249.287 77.6347 249.665 77.0306C250.421 75.8225 251.121 74.8439 251.588 74.146C252.055 73.448 252.314 73.043 252.314 73.043C252.314 73.043 252 73.4042 251.454 74.0462C250.933 74.7003 250.079 75.5862 249.247 76.7577C248.819 77.3373 248.347 77.9639 247.863 78.6363C247.404 79.321 246.921 80.0455 246.423 80.7965C245.924 81.5475 245.472 82.3556 244.999 83.1708C244.514 83.9799 244.109 84.8451 243.653 85.6858C243.21 86.5326 242.863 87.4089 242.465 88.2608C242.105 89.131 241.786 89.9868 241.482 90.8162C240.901 92.4871 240.498 94.0743 240.223 95.4492C239.948 96.8241 239.849 97.9592 239.804 98.7608C239.767 99.5491 239.806 99.9968 239.806 99.9968Z" fill="#C9C9C9"/>
<path d="M250.163 96.8885C250.163 96.8885 250.741 97.916 251.843 99.2249C252.405 99.8752 253.074 100.608 253.884 101.299C254.672 101.999 255.593 102.672 256.543 103.26C257.502 103.833 258.541 104.288 259.561 104.59C260.088 104.71 260.581 104.83 261.064 104.905C261.552 104.94 262.027 104.969 262.45 104.967C262.89 104.935 263.279 104.873 263.625 104.827C263.975 104.804 264.277 104.651 264.516 104.584C265.002 104.435 265.279 104.329 265.279 104.329C265.279 104.329 264.997 104.351 264.51 104.377C264.271 104.382 263.976 104.457 263.638 104.426C263.3 104.395 262.928 104.364 262.534 104.342C262.14 104.258 261.712 104.174 261.262 104.099C260.817 103.986 260.371 103.81 259.886 103.674C258.964 103.286 257.998 102.852 257.073 102.279C256.145 101.744 255.254 101.108 254.441 100.517C253.623 99.9031 252.887 99.295 252.245 98.7619C250.978 97.6644 250.163 96.8885 250.163 96.8885Z" fill="#C9C9C9"/>
<path d="M264.655 77.1494C264.655 77.1494 264.619 77.4274 264.563 77.9038C264.506 78.3803 264.466 79.0738 264.316 79.8695C264.241 80.2673 264.208 80.7034 264.114 81.1612C264.02 81.6189 263.93 82.0963 263.824 82.6005C263.693 83.0923 263.567 83.6037 263.42 84.1223C263.248 84.6285 263.093 85.1605 262.922 85.6667C262.185 87.7191 261.159 89.7141 260.24 91.119C259.339 92.5498 258.563 93.4164 258.563 93.4164C258.563 93.4164 259.529 92.7487 260.671 91.4031C261.228 90.7407 261.844 89.8985 262.383 88.9662C262.663 88.4965 262.926 88.0008 263.159 87.4731C263.418 86.9578 263.593 86.4186 263.814 85.8846C264.002 85.3517 264.152 84.8 264.315 84.2545C264.444 83.71 264.541 83.1665 264.647 82.6623C264.728 82.1456 264.768 81.6433 264.824 81.1668C264.881 80.6904 264.856 80.2428 264.873 79.8334C264.914 79.0014 264.786 78.3457 264.756 77.8784C264.693 77.4121 264.655 77.1494 264.655 77.1494Z" fill="#C9C9C9"/>
<path d="M266.375 89.8137C266.375 89.8137 266.827 90.3601 267.641 91.0101C268.047 91.335 268.548 91.6728 269.125 91.9942C269.689 92.3085 270.345 92.5763 271.014 92.7919C271.7 92.9775 272.403 93.1332 273.103 93.111C273.447 93.1259 273.786 93.0594 274.117 93.008C274.431 92.9865 274.748 92.8093 275.002 92.715C275.281 92.6349 275.495 92.4006 275.698 92.2777C275.901 92.1548 276.047 91.9812 276.157 91.8455C276.387 91.5811 276.505 91.4304 276.505 91.4304C276.505 91.4304 276.332 91.5304 276.057 91.6919C275.926 91.7762 275.766 91.8834 275.55 91.9398C275.342 91.9813 275.132 92.1192 274.885 92.1392C274.639 92.1593 274.385 92.2536 274.096 92.2301C273.812 92.2287 273.527 92.2273 273.225 92.1966C272.915 92.1809 272.617 92.1131 272.306 92.0381C271.992 92.0003 271.672 91.881 271.369 91.7911C270.113 91.4248 268.888 90.8799 267.945 90.4921C267.006 90.0672 266.375 89.8137 266.375 89.8137Z" fill="#C9C9C9"/>
<path d="M272.864 85.4267C272.864 85.4267 273.169 84.9709 273.546 84.2566C273.904 83.5495 274.334 82.5841 274.661 81.6019C274.988 80.6198 275.265 79.6129 275.398 78.8468C275.531 78.0808 275.566 77.5607 275.566 77.5607C275.566 77.5607 275.262 78.0165 274.884 78.7308C274.506 79.445 274.096 80.4033 273.769 81.3854C273.442 82.3676 273.166 83.3745 273.032 84.1405C272.899 84.9066 272.864 85.4267 272.864 85.4267Z" fill="#C9C9C9"/>
<path d="M200.866 106.177C200.866 106.177 201.271 105.06 202.164 103.106C203.05 101.166 204.407 98.417 206.309 95.2425C207.263 93.6655 208.335 91.9688 209.583 90.2541C210.818 88.5329 212.173 86.7469 213.713 85.0391C214.099 84.6035 214.485 84.1679 214.871 83.7323C215.282 83.3099 215.698 82.908 216.122 82.4922C216.939 81.6268 217.842 80.842 218.757 80.0637C219.638 79.2312 220.655 78.5605 221.608 77.802C222.537 77.0853 223.664 76.5083 224.685 75.8582C225.755 75.3239 226.833 74.8306 227.941 74.371C229.063 74.028 230.179 73.5544 231.302 73.3214C232.434 73.0744 233.553 72.7659 234.678 72.6429C235.795 72.4788 236.89 72.3221 237.988 72.2754C238.538 72.2348 239.068 72.2016 239.598 72.1684C240.132 72.1557 240.658 72.157 241.184 72.1582C242.24 72.1263 243.247 72.178 244.241 72.2231C246.217 72.3069 248.07 72.4899 249.78 72.6899C253.202 73.0901 256.015 73.5735 258.005 73.7738C259.005 73.8945 259.802 73.91 260.336 73.8973C260.883 73.8362 261.166 73.8019 261.166 73.8019C261.166 73.8019 260.87 73.8296 260.319 73.8702C259.773 73.8763 258.983 73.8469 258 73.6983C256.021 73.4496 253.212 72.9317 249.798 72.4626C248.091 72.228 246.242 72.0106 244.249 71.8997C243.263 71.8406 242.239 71.7618 241.191 71.7798C240.665 71.7785 240.139 71.7773 239.6 71.7694C239.058 71.7961 238.515 71.8227 237.973 71.8493C236.871 71.8755 235.758 72.0051 234.629 72.1626C233.499 72.2651 232.356 72.5605 231.199 72.7943C230.05 73.0141 228.908 73.4745 227.761 73.8044C226.628 74.2509 225.495 74.7523 224.38 75.2809C223.325 75.9318 222.264 76.4522 221.224 77.2197C220.237 77.979 219.195 78.6365 218.281 79.4698C217.337 80.2694 216.409 81.0411 215.557 81.9072C215.126 82.337 214.689 82.7463 214.265 83.1621C213.859 83.6051 213.46 84.0341 213.053 84.477C211.459 86.193 210.05 87.9872 208.761 89.7166C207.484 91.4525 206.365 93.1435 205.371 94.7352C203.393 97.9253 201.974 100.696 201.031 102.679C200.104 104.633 199.637 105.827 199.637 105.827L199.629 105.841C199.493 106.189 199.653 106.563 199.976 106.658C200.353 106.746 200.721 106.538 200.866 106.177Z" fill="#C9C9C9"/>
<path d="M253.454 112.125C253.454 112.125 252.85 111.902 251.934 111.601C251.031 111.308 249.811 110.975 248.608 110.612C247.397 110.264 246.216 109.893 245.312 109.6C244.871 109.449 244.473 109.343 244.225 109.242C243.955 109.148 243.788 109.114 243.788 109.114C243.788 109.114 244.22 109.623 245.027 110.185C245.835 110.747 247.01 111.317 248.255 111.664C249.505 112.034 250.804 112.189 251.782 112.222C252.789 112.231 253.454 112.125 253.454 112.125Z" fill="#C9C9C9"/>
<path d="M255.211 111.357C255.211 111.357 254.755 111.074 254.047 110.727C253.351 110.388 252.394 110.001 251.433 109.652C250.473 109.303 249.521 109 248.779 108.777C248.423 108.654 248.089 108.584 247.888 108.488C247.677 108.408 247.536 108.388 247.536 108.388C247.536 108.388 247.865 108.842 248.489 109.345C249.114 109.847 250.059 110.351 251.032 110.707C252.019 111.071 253.042 111.272 253.847 111.347C254.66 111.407 255.211 111.357 255.211 111.357Z" fill="#C9C9C9"/>
<path d="M257.584 110.147C257.584 110.147 257.052 109.709 256.228 109.12C255.404 108.53 254.283 107.829 253.166 107.151C252.028 106.482 250.881 105.828 250.011 105.358C249.584 105.107 249.197 104.942 248.959 104.781C248.701 104.629 248.55 104.562 248.55 104.562C248.55 104.562 248.941 105.168 249.668 105.91C250.394 106.651 251.482 107.479 252.633 108.156C253.797 108.841 255.003 109.383 255.963 109.717C256.918 110.027 257.584 110.147 257.584 110.147Z" fill="#C9C9C9"/>
<path d="M259.566 108.945C259.566 108.945 259.316 108.658 258.928 108.313C258.54 107.968 258.007 107.58 257.448 107.238C256.89 106.896 256.306 106.602 255.813 106.42C255.577 106.325 255.35 106.276 255.212 106.218C255.067 106.175 254.973 106.161 254.973 106.161C254.973 106.161 255.134 106.519 255.45 106.966C255.774 107.397 256.291 107.877 256.889 108.241C257.473 108.597 258.125 108.829 258.647 108.926C259.195 108.976 259.566 108.945 259.566 108.945Z" fill="#C9C9C9"/>
<path d="M261.584 107.463C261.584 107.463 261.032 107.098 260.171 106.615C259.322 106.14 258.177 105.553 257.045 104.974C255.904 104.411 254.78 103.816 253.953 103.332C253.548 103.074 253.182 102.902 252.954 102.726C252.717 102.567 252.575 102.484 252.575 102.484C252.575 102.484 252.893 103.127 253.589 103.888C254.294 104.633 255.377 105.433 256.556 106.019C257.727 106.621 258.978 107.041 259.936 107.247C260.915 107.446 261.584 107.463 261.584 107.463Z" fill="#C9C9C9"/>
<path d="M252.319 96.0742C252.306 96.0669 252.354 96.1952 252.441 96.3456C252.519 96.5114 252.649 96.7065 252.826 96.9083C253.171 97.3272 253.718 97.7799 254.318 98.102C254.918 98.4242 255.548 98.662 256.019 98.789C256.502 98.9233 256.823 98.985 256.823 98.985C256.823 98.985 256.514 98.8698 256.064 98.6738C255.615 98.4779 255.027 98.1631 254.494 97.7786C253.962 97.3941 253.522 96.9011 253.27 96.4955C253.149 96.2849 253.058 96.1118 253.01 95.9834C252.961 95.8551 252.952 95.8096 252.961 95.7942C252.912 95.6049 252.724 95.5176 252.545 95.5975C252.367 95.6774 252.262 95.9004 252.319 96.0742Z" fill="#C9C9C9"/>
<path d="M253.965 95.2315C253.961 95.2705 253.991 95.1842 254.018 95.386C254.036 95.4791 254.084 95.6104 254.17 95.702C254.201 95.7402 254.244 95.786 254.287 95.8318C254.469 95.9992 254.706 96.2198 255.021 96.4855C255.638 97.0095 256.482 97.6452 257.378 98.1865C258.265 98.7436 259.232 99.1821 259.966 99.4232C260.714 99.6718 261.241 99.7306 261.241 99.7306C261.241 99.7306 260.726 99.6171 260.012 99.3054C259.299 98.9938 258.408 98.4758 257.576 97.8475C256.744 97.2192 255.968 96.5197 255.41 95.9478C255.138 95.6656 254.909 95.4292 254.762 95.2611C254.732 95.2228 254.701 95.1845 254.676 95.1695C254.693 95.2003 254.706 95.27 254.681 95.3173C254.622 95.4276 254.617 95.2798 254.613 95.3188C254.654 95.1155 254.549 94.9309 254.374 94.9113C254.185 94.8842 254.006 95.0282 253.965 95.2315Z" fill="#C9C9C9"/>
<path d="M255.785 94.8045C255.785 94.8045 256.682 95.7085 257.747 96.3011C258.275 96.6051 258.854 96.8158 259.278 96.9374C259.715 97.0664 260.006 97.0909 260.006 97.0909C260.006 97.0909 259.706 97.0205 259.316 96.8365C258.904 96.6608 258.397 96.3485 257.936 95.9814C257.476 95.6143 257.049 95.185 256.755 94.8527C256.462 94.5205 256.289 94.278 256.289 94.278C256.189 94.1185 255.98 94.1 255.835 94.2416C255.678 94.3759 255.655 94.6072 255.754 94.7667C255.746 94.7822 255.759 94.7897 255.785 94.8045Z" fill="#C9C9C9"/>
<path d="M260.276 92.77C260.276 92.77 261.597 94.0303 263.112 94.9914C263.87 95.472 264.656 95.8666 265.275 96.1017C265.893 96.3368 266.335 96.4283 266.335 96.4283C266.335 96.4283 265.91 96.3054 265.325 96.0075C264.741 95.7095 263.996 95.2364 263.306 94.6923C261.914 93.5965 260.755 92.2241 260.755 92.2241C260.647 92.0789 260.42 92.0916 260.289 92.2419C260.145 92.3847 260.134 92.6256 260.242 92.7707C260.263 92.7625 260.276 92.77 260.276 92.77Z" fill="#C9C9C9"/>
<path d="M213.904 103.484C213.904 103.484 213.866 102.728 213.934 101.519C214.007 100.328 214.184 98.7172 214.563 97.1202C214.747 96.3186 214.968 95.5359 215.232 94.7917C215.474 94.0548 215.764 93.3763 216.022 92.8049C216.28 92.2335 216.528 91.762 216.733 91.4443C216.925 91.1203 217.017 90.9385 217.017 90.9385C217.017 90.9385 216.9 91.1077 216.683 91.4191C216.452 91.7243 216.167 92.177 215.859 92.7232C215.543 93.283 215.183 93.9435 214.861 94.676C214.527 95.4022 214.232 96.2003 213.962 97.011C213.417 98.6126 213.071 100.262 212.879 101.515C212.683 102.748 212.645 103.606 212.645 103.606L212.65 103.625C212.632 103.984 212.901 104.242 213.26 104.212C213.612 104.196 213.908 103.889 213.926 103.53C213.905 103.537 213.909 103.504 213.904 103.484Z" fill="#C9C9C9"/>
<path d="M210.358 103.396C210.358 103.396 210.368 102.804 210.446 101.878C210.524 100.952 210.679 99.7316 210.921 98.502C211.163 97.2724 211.522 96.0661 211.874 95.1724C212.052 94.7354 212.21 94.3588 212.355 94.1155C212.487 93.866 212.554 93.7245 212.554 93.7245C212.554 93.7245 212.474 93.8597 212.317 94.0966C212.148 94.3273 211.951 94.685 211.715 95.1103C211.247 95.9807 210.731 97.1781 210.324 98.4123C209.916 99.6465 209.6 100.891 209.394 101.841C209.196 102.777 209.101 103.431 209.101 103.431C209.05 103.791 209.303 104.077 209.651 104.094C209.999 104.11 210.325 103.836 210.376 103.475C210.359 103.449 210.354 103.429 210.358 103.396Z" fill="#C9C9C9"/>
<path d="M207.527 103.345C207.535 103.331 207.52 103.219 207.515 102.955C207.522 102.697 207.548 102.327 207.597 101.863C207.7 100.954 207.928 99.7253 208.293 98.5121C208.646 97.2927 209.114 96.0964 209.519 95.1994C209.915 94.3157 210.214 93.7322 210.214 93.7322C210.214 93.7322 209.852 94.2845 209.348 95.1316C208.844 95.9787 208.226 97.1529 207.704 98.3573C207.181 99.5618 206.784 100.829 206.551 101.794C206.44 102.279 206.357 102.691 206.313 102.983C206.269 103.275 206.261 103.48 206.256 103.461L206.248 103.474C206.218 103.825 206.492 104.101 206.843 104.085C207.193 104.068 207.502 103.768 207.524 103.431C207.52 103.411 207.523 103.378 207.527 103.345Z" fill="#C9C9C9"/>
<path d="M203.895 103.274C203.895 103.274 204.18 102.237 204.774 100.684C205.356 99.1263 206.244 97.086 207.285 95.0858C207.802 94.0923 208.364 93.1038 208.911 92.1933C209.47 91.2889 210.011 90.4433 210.509 89.7479C210.996 89.0464 211.423 88.4696 211.739 88.0776C212.043 87.6796 212.21 87.4542 212.21 87.4542C212.21 87.4542 212.018 87.6675 211.689 88.0534C211.348 88.4333 210.879 88.9727 210.343 89.65C209.794 90.3212 209.199 91.1234 208.569 92.0107C207.96 92.8909 207.315 93.8564 206.728 94.8328C205.534 96.7928 204.49 98.8254 203.784 100.375C203.079 101.924 202.684 103.011 202.684 103.011C202.563 103.344 202.732 103.681 203.058 103.755C203.397 103.834 203.759 103.634 203.879 103.3C203.891 103.307 203.899 103.293 203.895 103.274Z" fill="#C9C9C9"/>
<path d="M200.995 104.777C200.995 104.777 205.272 104.968 211.746 104.339C213.359 104.155 215.115 104.01 216.969 103.695C218.824 103.436 220.778 103.063 222.778 102.64C224.795 102.244 226.869 101.749 228.973 101.288C230.032 101.089 231.081 100.792 232.147 100.523L235.35 99.7357C237.473 99.0992 239.604 98.5046 241.68 97.8061C242.711 97.4255 243.729 97.0381 244.74 96.665C245.75 96.2918 246.752 95.9329 247.711 95.4768C248.674 95.0416 249.616 94.6139 250.538 94.1937C251.472 93.7802 252.36 93.3607 253.209 92.8651C254.903 91.9088 256.558 91.0796 257.984 90.1294C259.406 89.1583 260.698 88.2671 261.858 87.4911C263.006 86.7084 263.9 85.8472 264.684 85.2058C266.215 83.9028 267.09 83.1613 267.09 83.1613C267.098 83.147 267.106 83.1329 267.102 83.1119C267.089 83.1052 267.077 83.0985 267.056 83.106C267.056 83.106 266.146 83.7922 264.552 85.0056C263.741 85.5775 262.842 86.4177 261.673 87.1519C260.517 87.8928 259.19 88.7286 257.768 89.6437C256.328 90.5311 254.673 91.3042 252.991 92.2672C252.15 92.7487 251.262 93.1682 250.336 93.5674C249.415 93.9877 248.485 94.4221 247.53 94.8431C245.633 95.7478 243.595 96.4104 241.572 97.2479C239.522 98.0158 237.416 98.68 235.32 99.3859C233.197 99.9663 231.091 100.63 228.979 101.105C226.862 101.56 224.804 102.026 222.786 102.31C221.785 102.466 220.785 102.621 219.818 102.776C218.846 102.91 217.895 103.037 216.978 103.163C215.128 103.442 213.376 103.608 211.781 103.819C205.325 104.532 201.032 104.741 201.032 104.741C201.019 104.734 201.003 104.762 200.995 104.777C200.974 104.784 200.969 104.763 200.995 104.777Z" fill="#C9C9C9"/>
<path d="M238.611 116.69C238.611 116.69 239.366 116.63 240.674 116.353C241.327 116.188 242.125 116.026 243.022 115.754C243.927 115.522 244.938 115.165 246.04 114.766C247.121 114.321 248.313 113.879 249.528 113.288C250.142 112.996 250.763 112.691 251.398 112.391C252.036 112.058 252.657 111.699 253.298 111.332C254.603 110.644 255.862 109.756 257.177 108.914C258.461 108.039 259.749 107.076 261.008 106.134C262.211 105.092 263.468 104.096 264.609 103.023C265.732 101.923 266.869 100.883 267.909 99.8119C268.933 98.7143 269.886 97.6523 270.791 96.6185C271.67 95.5718 272.441 94.5414 273.189 93.6059C273.937 92.6704 274.604 91.8179 275.121 90.9962C275.656 90.2009 276.134 89.5015 276.519 88.9324C277.276 87.7879 277.717 87.123 277.717 87.123C277.717 87.123 277.221 87.7421 276.364 88.8354C275.941 89.3852 275.421 90.0454 274.836 90.8149C274.264 91.5909 273.542 92.3977 272.777 93.3067C272.008 94.1956 271.194 95.1867 270.273 96.194C269.322 97.1684 268.334 98.1775 267.331 99.2677C266.294 100.305 265.153 101.325 264.033 102.391C262.897 103.431 261.642 104.393 260.443 105.401C259.209 106.356 257.963 107.304 256.703 108.192C255.41 109.027 254.183 109.914 252.904 110.614C252.275 110.988 251.654 111.347 251.054 111.7C250.437 112.025 249.827 112.338 249.243 112.663C248.071 113.292 246.92 113.774 245.861 114.266C244.797 114.684 243.812 115.107 242.925 115.42C242.042 115.752 241.269 115.981 240.633 116.173C239.369 116.542 238.611 116.69 238.611 116.69Z" fill="#C9C9C9"/>
<path d="M231.131 93.7091C231.131 93.7091 232.756 93.8855 235.224 93.8381C236.463 93.7895 237.909 93.7577 239.467 93.5606C241.021 93.399 242.674 93.1221 244.326 92.7885C245.978 92.3984 247.633 91.9729 249.145 91.4514C249.906 91.1658 250.643 90.9232 251.32 90.6112C251.997 90.2992 252.65 90.0301 253.239 89.7271C253.815 89.4173 254.35 89.1226 254.8 88.858C255.264 88.6002 255.643 88.3159 255.968 88.0966C256.597 87.6653 256.96 87.4097 256.96 87.4097C256.96 87.4097 256.571 87.5952 255.898 87.9283C255.56 88.0843 255.159 88.3195 254.682 88.514C254.206 88.7084 253.666 88.9254 253.081 89.193C252.491 89.4394 251.838 89.6519 251.16 89.9074C250.482 90.1628 249.753 90.3345 248.995 90.5847C248.245 90.8205 247.448 90.9937 246.665 91.2302C245.865 91.4389 245.055 91.6053 244.25 91.7928C241.005 92.4727 237.731 92.9693 235.271 93.2641C234.028 93.4047 233.003 93.5122 232.298 93.5843C231.546 93.6504 231.131 93.7091 231.131 93.7091Z" fill="#C9C9C9"/>
<path d="M228.91 90.4708C228.91 90.4708 229.143 90.6168 229.66 90.7639C230.16 90.8826 230.867 91.0759 231.75 91.1935C233.493 91.4724 235.888 91.6293 238.296 91.4695C239.498 91.3789 240.725 91.2446 241.849 90.9974C242.417 90.906 242.968 90.7287 243.482 90.5882C243.999 90.4692 244.474 90.2504 244.923 90.0753C245.377 89.9216 245.759 89.6905 246.094 89.5106C246.442 89.3377 246.744 89.1586 246.957 88.9886C247.43 88.6547 247.673 88.4625 247.673 88.4625C247.673 88.4625 247.383 88.591 246.875 88.8105C246.64 88.9307 246.338 89.0523 245.976 89.1608C245.614 89.2692 245.228 89.4214 244.794 89.5099C244.352 89.6129 243.885 89.7596 243.38 89.828C242.878 89.918 242.348 90.0301 241.796 90.0923C240.688 90.2529 239.516 90.3788 238.33 90.4403C237.149 90.5233 235.968 90.5488 234.858 90.5943C233.753 90.6037 232.714 90.6117 231.832 90.6092C230.937 90.5997 230.203 90.6011 229.687 90.5691C229.434 90.5458 229.24 90.5356 229.092 90.5316C228.982 90.4908 228.91 90.4708 228.91 90.4708Z" fill="#C9C9C9"/>
<path d="M196.752 107.159C196.752 107.159 198.885 98.8091 199.019 98.1849C199.164 97.5697 199.338 96.6694 199.53 95.5236C199.711 94.3689 199.94 92.9765 200.093 91.345C200.169 90.5293 200.257 89.6737 200.341 88.7501C200.387 87.8289 200.444 86.8679 200.501 85.8581C200.656 83.8553 200.551 81.645 200.585 79.3181C200.525 78.15 200.449 76.9536 200.396 75.7265C200.361 75.1135 200.332 74.4902 200.296 73.8773C200.23 73.2565 200.16 72.6165 200.09 71.9765C199.951 70.6964 199.8 69.4074 199.663 68.0978C199.471 66.7919 199.218 65.4705 198.999 64.1273C198.61 61.4475 197.885 58.7605 197.255 56.0673C196.968 54.7189 196.542 53.3894 196.115 52.0599C195.701 50.7395 195.293 49.4087 194.882 48.1075C194.011 45.4987 192.933 43.0011 192.006 40.5425C191.778 39.9227 191.516 39.3246 191.22 38.7484C190.932 38.1618 190.662 37.5741 190.397 37.0056C189.855 35.8596 189.316 34.7329 188.804 33.6435C188.542 33.0943 188.292 32.5542 188.034 32.0242C187.768 31.5046 187.458 30.9977 187.189 30.5076C186.621 29.5196 186.075 28.5496 185.548 27.6272C185.022 26.7049 184.521 25.8198 184.04 24.9823C183.794 24.5591 183.571 24.1539 183.339 23.7589C183.082 23.3755 182.836 23.001 182.594 22.6459C181.621 21.2061 180.792 19.9618 180.099 18.9235C178.717 16.866 177.93 15.6874 177.93 15.6874C177.93 15.6874 178.71 16.8763 180.058 18.9555C180.732 19.9951 181.553 21.2496 182.5 22.701C182.734 23.0664 182.981 23.4408 183.227 23.8152C183.458 24.2102 183.674 24.6256 183.92 25.0489C184.382 25.8876 184.875 26.7829 185.383 27.7066C185.891 28.6302 186.425 29.5911 186.978 30.5996C187.251 31.109 187.55 31.6069 187.797 32.1278C188.036 32.659 188.286 33.1992 188.548 33.7484C189.053 34.848 189.572 35.976 190.096 37.1232C190.362 37.6917 190.631 38.2794 190.9 38.8672C191.177 39.4447 191.432 40.053 191.648 40.6638C192.545 43.1147 193.589 45.634 194.419 48.2261C194.811 49.5285 195.196 50.8412 195.592 52.1629C195.988 53.4846 196.403 54.8051 196.671 56.1548C197.271 58.8402 197.954 61.5103 198.302 64.1734C198.498 65.4985 198.74 66.8109 198.914 68.118C199.039 69.4186 199.171 70.7089 199.288 71.9709C199.347 72.6019 199.405 73.2329 199.471 73.8537C199.5 74.4769 199.524 75.0809 199.541 75.6951C199.59 76.903 199.636 78.0916 199.685 79.2507C199.624 81.5403 199.695 83.7235 199.517 85.7083C199.449 86.7091 199.388 87.6508 199.33 88.5629C199.232 89.4583 199.144 90.3139 199.045 91.1116C198.865 92.7058 198.614 94.0801 198.429 95.2155C198.214 96.3432 198.044 97.214 197.891 97.7906C197.761 98.3853 195.609 106.736 195.609 106.736C195.516 107.035 195.698 107.375 196 107.501C196.309 107.618 196.637 107.489 196.718 107.18L196.752 107.159Z" fill="#C9C9C9"/>
<path d="M198.885 97.5047C200.413 96.1924 201.802 94.704 203.116 93.1719C204.418 91.6308 205.656 90.0061 206.732 88.2848C207.85 86.5804 208.814 84.7691 209.694 82.9243C210.541 81.0524 211.32 79.1266 211.873 77.1182L212.308 75.6155L212.63 74.0715C212.875 73.0499 213.029 72.0051 213.153 70.9525C213.327 69.9064 213.372 68.8396 213.418 67.7728C213.512 66.7125 213.448 65.6236 213.426 64.5516C213.442 63.477 213.284 62.3944 213.153 61.3004C213.063 60.223 212.838 59.1352 212.605 58.0577L212.277 56.4498L211.81 54.8609C211.495 53.7986 211.225 52.7236 210.775 51.6996C210.351 50.6641 209.998 49.6044 209.514 48.6022L208.04 45.5776C207.511 44.5882 206.922 43.632 206.347 42.6554C206.06 42.167 205.792 41.6774 205.479 41.2006L204.528 39.81C203.879 38.8871 203.282 37.9412 202.592 37.0504L200.507 34.3984C199.831 33.4871 199.077 32.6591 198.331 31.8208L196.088 29.2867C194.498 27.6947 192.937 26.0617 191.313 24.4915C189.637 22.9931 188.013 21.4229 186.288 19.9668C184.552 18.5505 182.857 17.0534 181.087 15.6588L175.721 11.5765C175.563 11.4505 175.349 11.4745 175.237 11.6284C175.177 11.7105 175.162 11.8286 175.2 11.9236L175.215 11.9519L176.246 14.85L177.011 17.7951C177.179 18.7891 177.366 19.7818 177.505 20.7681C177.568 21.7593 177.706 22.7455 177.732 23.7393C177.791 25.7166 177.714 27.6833 177.491 29.6306C177.389 30.6036 177.276 31.5676 177.095 32.5264C176.951 33.4827 176.759 34.4324 176.548 35.3834C175.73 39.176 174.618 42.8807 173.605 46.6473C173.104 48.5351 172.621 50.4216 172.244 52.3596C171.837 54.2899 171.562 56.2602 171.388 58.2628C171.29 59.2551 171.304 60.2886 171.266 61.2964C171.326 62.3172 171.329 63.3417 171.456 64.3677C171.621 65.3913 171.673 66.4223 171.98 67.446L172.35 68.9731C172.486 69.4715 172.691 69.9751 172.858 70.4812C173.032 70.9771 173.188 71.4742 173.4 71.9675L174.065 73.4065C174.47 74.3945 175.04 75.3031 175.566 76.2245C176.057 77.1676 176.713 78.0314 177.324 78.908C177.91 79.7961 178.596 80.6189 179.29 81.4314L180.304 82.6617C180.658 83.0577 181.039 83.4421 181.401 83.8279C182.151 84.5878 182.844 85.4004 183.639 86.0988L185.997 88.2543C186.785 88.963 187.636 89.6088 188.453 90.2765C190.069 91.6618 191.838 92.8124 193.532 94.0656C195.264 95.2675 197.044 96.3783 198.806 97.5392C198.84 97.5174 198.866 97.5059 198.885 97.5047ZM198.832 97.3813C197.126 96.1679 195.402 95.0045 193.727 93.7501C192.07 92.4456 190.36 91.2129 188.79 89.8148C187.987 89.1267 187.174 88.4783 186.394 87.7594L184.118 85.5886C183.338 84.8696 182.675 84.0649 181.944 83.3036C181.589 82.9076 181.231 82.5412 180.884 82.1349L179.908 80.9021C179.251 80.0871 178.595 79.2721 178.04 78.3917C177.459 77.5229 176.855 76.6849 176.387 75.7597C175.884 74.8564 175.367 73.9735 174.996 73.0126L174.375 71.6096C174.186 71.1343 174.053 70.6552 173.89 70.1683C173.738 69.6905 173.556 69.2049 173.442 68.7245L173.122 67.2527C172.863 66.2842 172.8 65.293 172.643 64.308C172.523 63.3205 172.52 62.3448 172.468 61.3625C172.522 60.383 172.488 59.3995 172.59 58.4265C172.768 56.492 173.033 54.5615 173.447 52.6697C173.832 50.7702 174.318 48.9029 174.801 47.0164C175.78 43.2716 176.854 39.5206 177.65 35.6612C177.849 34.7012 178.038 33.7322 178.174 32.7374C178.351 31.7594 178.46 30.7761 178.547 29.7748C178.763 27.789 178.771 25.7682 178.682 23.7344C178.634 22.7226 178.477 21.6889 178.391 20.6796C178.226 19.6561 178.016 18.6453 177.825 17.6334L176.982 14.6252L175.876 11.6833L175.37 12.1075L180.788 16.0692C182.576 17.4137 184.29 18.8608 186.041 20.2566C187.77 21.6832 189.39 23.2341 191.074 24.7222C192.701 26.2629 194.258 27.8766 195.833 29.4891L198.039 32.0257C198.778 32.8743 199.524 33.7126 200.177 34.6059L202.21 37.2809C202.874 38.1832 203.444 39.1406 204.055 40.066L204.961 41.4694C205.263 41.9372 205.505 42.4383 205.781 42.9176C206.306 43.8878 206.877 44.8452 207.368 45.8371L208.734 48.8397C209.199 49.8432 209.51 50.8862 209.893 51.9049C210.294 52.9224 210.568 53.9679 210.86 55.0121L211.305 56.583L211.618 58.1627C211.835 59.212 212.045 60.2715 212.12 61.3205C212.232 62.3671 212.378 63.4406 212.385 64.4844C212.423 65.536 212.49 66.5953 212.41 67.6351C212.361 68.6827 212.338 69.7187 212.18 70.7443C212.07 71.7763 211.931 72.8006 211.701 73.8017L211.402 75.3149L211.001 76.7958C210.47 78.7734 209.743 80.6763 208.976 82.5623C208.151 84.4034 207.248 86.2302 206.198 87.9399C205.17 89.6676 204.026 91.3349 202.81 92.9288C201.587 94.4842 200.281 96.006 198.832 97.3813Z" fill="#C9C9C9"/>
<path d="M197.438 86.2542C197.438 86.2542 197.516 86.1806 197.668 86.0636C197.824 85.9665 198.051 85.8061 198.343 85.6127C198.923 85.2061 199.751 84.6381 200.667 83.8563C201.57 83.065 202.647 82.1558 203.646 81.0404C204.671 79.9437 205.635 78.6701 206.491 77.3315C206.881 76.634 207.334 75.9836 207.645 75.2598C207.981 74.5548 208.317 73.8498 208.546 73.1298C208.799 72.4287 209.031 71.7285 209.152 71.0436C209.293 70.3576 209.469 69.73 209.499 69.1092C209.562 68.4968 209.597 67.9457 209.633 67.4445C209.614 66.9358 209.593 66.5072 209.576 66.1483C209.53 65.4211 209.505 65.0226 209.505 65.0226C209.505 65.0226 209.468 65.424 209.393 66.1268C209.356 66.4782 209.323 66.8993 209.275 67.3911C209.181 67.8651 209.059 68.4003 208.958 68.9844C208.89 69.5771 208.644 70.168 208.465 70.8257C208.294 71.473 208.007 72.1158 207.728 72.7981C207.483 73.4889 207.113 74.1355 206.773 74.8207C206.466 75.5143 206 76.1554 205.614 76.8228C205.207 77.4911 204.757 78.1114 204.321 78.7411C203.834 79.3332 203.418 79.9619 202.922 80.5145C201.99 81.6468 201.059 82.6491 200.231 83.4969C199.378 84.3258 198.697 85.0367 198.171 85.5007C197.909 85.7328 197.724 85.9411 197.585 86.0675C197.49 86.1618 197.438 86.2542 197.438 86.2542Z" fill="#C9C9C9"/>
<path d="M197.758 79.8332C197.758 79.8332 197.315 79.8033 196.553 79.6081C196.162 79.5258 195.703 79.3724 195.184 79.1856C194.665 78.9989 194.083 78.7599 193.448 78.4773C192.187 77.9209 190.767 77.138 189.286 76.2257C188.541 75.7893 187.791 75.2859 187.027 74.755C186.26 74.2531 185.521 73.6625 184.771 73.1112C183.996 72.5715 183.281 71.9693 182.546 71.3976C181.803 70.8361 181.123 70.2309 180.44 69.6547C179.774 69.0771 179.099 68.5388 178.5 67.9843C177.895 67.4401 177.321 66.9219 176.783 66.4488C176.245 65.9757 175.781 65.5155 175.349 65.1295C174.924 64.7332 174.545 64.3907 174.241 64.1091C173.614 63.5475 173.267 63.2311 173.267 63.2311C173.267 63.2311 173.586 63.5882 174.129 64.2241C174.412 64.5363 174.752 64.9108 175.143 65.358C175.54 65.795 175.958 66.2974 176.482 66.7909C177.506 67.7895 178.658 69.0366 180.01 70.2092C180.679 70.8057 181.363 71.4298 182.102 72.0204C182.842 72.611 183.553 73.2423 184.331 73.8009C185.116 74.3492 185.863 74.9296 186.655 75.4198C187.432 75.9304 188.21 76.441 188.98 76.8658C189.733 77.3401 190.517 77.6966 191.237 78.0488C191.972 78.3806 192.657 78.6878 193.32 78.9296C193.977 79.1816 194.583 79.361 195.126 79.4881C195.669 79.6152 196.145 79.7192 196.529 79.7637C197.322 79.889 197.758 79.8332 197.758 79.8332Z" fill="#C9C9C9"/>
<path d="M198.771 70.1215C198.771 70.1215 200.04 69.2733 201.695 67.7578C202.52 66.9902 203.46 66.0774 204.381 65.0355C204.827 64.4952 205.319 63.9729 205.752 63.3733C206.21 62.7925 206.631 62.1835 207.039 61.5651C207.459 60.9562 207.804 60.2907 208.174 59.6441C208.549 59.0173 208.781 58.3171 209.081 57.6837C209.355 57.0315 209.522 56.3644 209.722 55.7556C209.877 55.129 209.969 54.5052 210.075 53.9408C210.159 53.3774 210.132 52.8291 210.143 52.359C210.175 51.8879 210.083 51.4726 210.037 51.125C209.93 50.4506 209.863 50.054 209.863 50.054C209.863 50.054 209.863 50.4337 209.855 51.1035C209.846 51.4436 209.892 51.8411 209.781 52.2859C209.691 52.7297 209.647 53.2413 209.525 53.7765C209.369 54.3033 209.235 54.879 209.043 55.4774C208.792 56.0485 208.575 56.6781 208.292 57.2907C207.975 57.8949 207.701 58.547 207.322 59.1541C206.955 59.7706 206.614 60.4059 206.181 61.0054C205.42 62.2497 204.512 63.4009 203.674 64.4888C202.823 65.5674 202.009 66.5743 201.267 67.388C200.525 68.2017 199.928 68.9089 199.464 69.37C199.026 69.8499 198.771 70.1215 198.771 70.1215Z" fill="#C9C9C9"/>
<path d="M197.66 59.9254C197.66 59.9254 197.265 59.824 196.586 59.6022C195.912 59.3993 194.957 58.9989 193.836 58.526C192.712 58.0342 191.435 57.3535 190.09 56.6016C189.418 56.2256 188.735 55.793 188.044 55.3705C187.364 54.9088 186.657 54.4878 185.98 53.997C185.304 53.5062 184.599 53.0561 183.961 52.5333C183.316 52.0206 182.647 51.5676 182.044 51.0418C181.438 50.5451 180.843 50.0571 180.283 49.6141C179.734 49.1319 179.227 48.6845 178.744 48.2735C177.78 47.4514 177.011 46.7091 176.457 46.208C175.904 45.7069 175.582 45.4266 175.582 45.4266C175.582 45.4266 175.859 45.7491 176.352 46.3128C176.86 46.8562 177.528 47.7222 178.45 48.6054C178.904 49.0571 179.394 49.554 179.923 50.0667C180.465 50.5592 181.039 51.0777 181.635 51.6137C182.231 52.1497 182.883 52.6521 183.538 53.1735C184.187 53.7051 184.895 54.1741 185.575 54.6838C186.262 55.1833 186.988 55.6028 187.685 56.0631C188.404 56.4928 189.115 56.8847 189.805 57.2591C191.199 57.9877 192.542 58.5477 193.715 58.9682C194.889 59.3887 195.874 59.6233 196.573 59.7665C197.262 59.901 197.66 59.9254 197.66 59.9254Z" fill="#C9C9C9"/>
<path d="M196.272 50.4133C196.272 50.4133 197.25 50.0386 198.544 49.2396C199.189 48.8303 199.92 48.3369 200.633 47.7145C201.351 47.1118 202.063 46.3894 202.703 45.6302C203.331 44.8617 203.867 44.0074 204.264 43.1493C204.438 42.7015 204.608 42.2838 204.736 41.868C204.831 41.4437 204.918 41.0298 204.971 40.6574C205 40.2662 204.996 39.9164 205 39.6063C205.026 39.2952 204.93 39.0096 204.903 38.7909C204.835 38.344 204.778 38.0867 204.778 38.0867C204.778 38.0867 204.76 38.3375 204.719 38.7693C204.693 38.9804 204.721 39.2491 204.65 39.5423C204.578 39.8355 204.503 40.1589 204.432 40.5021C204.307 40.8377 204.178 41.2036 204.054 41.5892C203.896 41.9663 203.684 42.336 203.501 42.7442C203.04 43.5052 202.533 44.2982 201.909 45.0366C201.318 45.7835 200.643 46.4842 200.018 47.1227C199.372 47.7621 198.741 48.3308 198.189 48.8259C197.06 49.7974 196.272 50.4133 196.272 50.4133Z" fill="#C9C9C9"/>
<path d="M180.794 35.1069C180.794 35.1069 181.034 35.1746 181.446 35.2864C181.857 35.3982 182.462 35.5236 183.142 35.7585C183.482 35.876 183.862 35.9614 184.252 36.1038C184.642 36.2462 185.05 36.3872 185.48 36.5457C185.896 36.7246 186.329 36.902 186.766 37.0985C187.189 37.3153 187.636 37.5206 188.059 37.7374C189.769 38.6515 191.39 39.8132 192.506 40.8032C193.647 41.7816 194.308 42.5765 194.308 42.5765C194.308 42.5765 193.847 41.6406 192.812 40.4612C192.301 39.8854 191.641 39.2348 190.891 38.6395C190.514 38.3323 190.112 38.0368 189.679 37.763C189.259 37.4689 188.808 37.2447 188.367 36.9812C187.922 36.7468 187.457 36.543 186.998 36.329C186.536 36.1441 186.071 35.9885 185.641 35.8299C185.197 35.6918 184.761 35.5916 184.349 35.4798C183.938 35.368 183.541 35.3321 183.183 35.2642C182.457 35.1195 181.863 35.1473 181.449 35.1128C181.03 35.1075 180.794 35.1069 180.794 35.1069Z" fill="#C9C9C9"/>
<path d="M192.155 35.2389C192.155 35.2389 192.694 34.9127 193.371 34.2815C193.71 33.9658 194.072 33.5696 194.429 33.1042C194.779 32.6491 195.1 32.1062 195.376 31.5459C195.629 30.9669 195.857 30.3694 195.928 29.7505C195.986 29.4498 195.971 29.1429 195.969 28.8454C195.991 28.5664 195.876 28.2649 195.826 28.0294C195.792 27.7733 195.614 27.5545 195.532 27.3604C195.45 27.1663 195.317 27.0146 195.212 26.9011C195.009 26.6638 194.892 26.541 194.892 26.541C194.892 26.541 194.957 26.7062 195.064 26.9685C195.121 27.0945 195.194 27.2493 195.216 27.4466C195.225 27.6346 195.319 27.838 195.305 28.0571C195.291 28.2761 195.341 28.5116 195.282 28.7627C195.244 29.0128 195.206 29.2629 195.14 29.5244C195.086 29.7951 194.987 30.0484 194.881 30.312C194.807 30.5838 194.661 30.8496 194.542 31.1039C194.057 32.1615 193.419 33.1677 192.955 33.9463C192.46 34.7167 192.155 35.2389 192.155 35.2389Z" fill="#C9C9C9"/>
<path d="M189.14 28.9632C189.14 28.9632 188.779 28.6362 188.199 28.2113C187.624 27.8054 186.831 27.3015 186.01 26.8865C185.189 26.4714 184.339 26.0972 183.683 25.8805C183.026 25.6639 182.573 25.5656 182.573 25.5656C182.573 25.5656 182.935 25.8925 183.514 26.3174C184.093 26.7423 184.882 27.2273 185.704 27.6423C186.525 28.0573 187.374 28.4316 188.031 28.6482C188.687 28.8649 189.14 28.9632 189.14 28.9632Z" fill="#C9C9C9"/>
<path d="M198.039 94.9712C198.039 94.9712 197.109 94.4701 195.507 93.4308C193.916 92.4004 191.675 90.8498 189.13 88.7649C187.867 87.7218 186.514 86.5583 185.168 85.2385C183.815 83.9289 182.421 82.5053 181.119 80.9292C180.786 80.5333 180.453 80.1374 180.12 79.7414C179.802 79.325 179.502 78.9073 179.192 78.4806C178.537 77.649 177.964 76.7534 177.398 75.8476C176.781 74.9648 176.323 73.9833 175.78 73.0467C175.27 72.137 174.909 71.0711 174.47 70.0884C174.139 69.0788 173.845 68.0666 173.585 67.0327C173.429 66.0014 173.157 64.9585 173.098 63.94C173.028 62.9126 172.902 61.889 172.94 60.8833C172.94 59.8802 172.945 58.8963 173.046 57.9252C173.082 57.4359 173.122 56.9657 173.161 56.4955C173.219 56.0241 173.289 55.5616 173.358 55.0992C173.467 54.1666 173.644 53.2878 173.812 52.4192C174.143 50.6923 174.544 49.0872 174.942 47.6089C175.738 44.6523 176.528 42.2414 176.963 40.5171C177.199 39.6537 177.316 38.9542 177.374 38.4828C177.392 37.9947 177.398 37.741 177.398 37.741C177.398 37.741 177.384 38.005 177.348 38.4943C177.283 38.976 177.154 39.6665 176.896 40.512C176.42 42.2196 175.6 44.6228 174.744 47.564C174.316 49.0346 173.885 50.6321 173.529 52.3705C173.349 53.23 173.147 54.1204 173.026 55.044C172.957 55.5065 172.888 55.969 172.811 56.4417C172.764 56.9221 172.717 57.4025 172.67 57.8829C172.55 58.8552 172.519 59.8506 172.511 60.864C172.455 61.8709 172.566 62.915 172.621 63.963C172.665 65.002 172.922 66.0654 173.063 67.1172C173.309 68.1716 173.603 69.2324 173.923 70.2817C174.358 71.2939 174.678 72.2945 175.218 73.3092C175.757 74.2753 176.2 75.2772 176.814 76.1895C177.395 77.1235 177.953 78.0397 178.604 78.9007C178.926 79.3363 179.229 79.7733 179.54 80.1999C179.877 80.6151 180.202 81.0213 180.539 81.4364C181.841 83.0611 183.236 84.5334 184.589 85.8917C185.95 87.2397 187.292 88.443 188.562 89.5245C191.111 91.6773 193.363 93.2856 194.984 94.3723C196.583 95.4411 197.572 96.0063 197.572 96.0063L197.583 96.0152C197.871 96.1805 198.221 96.0884 198.347 95.8168C198.473 95.4966 198.337 95.1455 198.039 94.9712Z" fill="#C9C9C9"/>
<path d="M210.098 49.4979C210.098 49.4979 209.823 50 209.439 50.7667C209.064 51.523 208.614 52.5523 208.138 53.5629C207.675 54.5828 207.195 55.5736 206.82 56.3299C206.63 56.6982 206.485 57.0344 206.364 57.2397C206.247 57.4649 206.195 57.607 206.195 57.607C206.195 57.607 206.698 57.2937 207.298 56.6564C207.897 56.0192 208.55 55.06 209.017 54.0099C209.505 52.9589 209.81 51.8367 209.966 50.9811C210.104 50.0963 210.098 49.4979 210.098 49.4979Z" fill="#C9C9C9"/>
<path d="M209.65 47.8538C209.65 47.8538 209.342 48.2178 208.945 48.7958C208.557 49.3634 208.092 50.1545 207.66 50.9541C207.228 51.7536 206.838 52.5512 206.546 53.1744C206.391 53.4714 206.287 53.7562 206.176 53.9212C206.078 54.0956 206.042 54.2172 206.042 54.2172C206.042 54.2172 206.485 53.987 207.008 53.5032C207.531 53.0194 208.096 52.2537 208.536 51.4438C208.984 50.6235 209.294 49.7496 209.465 49.0519C209.623 48.3449 209.65 47.8538 209.65 47.8538Z" fill="#C9C9C9"/>
<path d="M208.894 45.6095C208.894 45.6095 208.44 46.0198 207.815 46.6681C207.189 47.3164 206.427 48.2113 205.686 49.1054C204.95 50.0193 204.226 50.9428 203.7 51.6472C203.423 51.9899 203.228 52.3093 203.056 52.4971C202.889 52.7048 202.81 52.8285 202.81 52.8285C202.81 52.8285 203.394 52.5635 204.14 52.0206C204.887 51.4778 205.756 50.6287 206.501 49.7044C207.254 48.7697 207.887 47.7797 208.306 46.9793C208.703 46.1797 208.894 45.6095 208.894 45.6095Z" fill="#C9C9C9"/>
<path d="M208.095 43.7107C208.095 43.7107 207.81 43.8937 207.456 44.1898C207.102 44.486 206.692 44.9047 206.319 45.3516C205.946 45.7986 205.611 46.2738 205.387 46.6838C205.273 46.879 205.201 47.0722 205.131 47.1853C205.074 47.3079 205.05 47.389 205.05 47.389C205.05 47.389 205.386 47.2935 205.82 47.0736C206.241 46.8443 206.731 46.452 207.128 45.9739C207.518 45.5062 207.806 44.9632 207.959 44.5165C208.074 44.0414 208.095 43.7107 208.095 43.7107Z" fill="#C9C9C9"/>
<path d="M207.053 41.7438C207.053 41.7438 206.661 42.1816 206.124 42.8764C205.596 43.5608 204.931 44.4916 204.275 45.4121C203.631 46.3421 202.962 47.2531 202.429 47.9176C202.15 48.2403 201.951 48.5396 201.767 48.7179C201.596 48.9057 201.504 49.0199 201.504 49.0199C201.504 49.0199 202.112 48.8237 202.872 48.3101C203.618 47.787 204.462 46.9388 205.131 45.9777C205.812 45.026 206.343 43.9804 206.649 43.1651C206.951 42.3298 207.053 41.7438 207.053 41.7438Z" fill="#C9C9C9"/>
<path d="M195.835 48.4122C195.827 48.4226 195.946 48.3969 196.089 48.3402C196.245 48.2928 196.434 48.204 196.634 48.0747C197.047 47.8254 197.516 47.4039 197.878 46.9177C198.239 46.4315 198.53 45.9088 198.703 45.5115C198.884 45.1038 198.979 44.8298 198.979 44.8298C198.979 44.8298 198.838 45.086 198.607 45.4562C198.377 45.8264 198.023 46.3022 197.616 46.7208C197.209 47.1393 196.718 47.4621 196.329 47.6304C196.128 47.7099 195.964 47.7676 195.845 47.7933C195.726 47.8189 195.685 47.8209 195.672 47.8115C195.499 47.8298 195.398 47.9843 195.445 48.1516C195.492 48.3189 195.675 48.4399 195.835 48.4122Z" fill="#C9C9C9"/>
<path d="M195.308 46.8555C195.342 46.864 195.27 46.8271 195.451 46.8292C195.535 46.8255 195.657 46.8002 195.748 46.7361C195.786 46.7144 195.832 46.6823 195.878 46.6503C196.048 46.5126 196.273 46.3325 196.548 46.0901C197.089 45.6157 197.757 44.9554 198.35 44.2383C198.955 43.5307 199.466 42.737 199.773 42.1225C200.089 41.4976 200.209 41.0416 200.209 41.0416C200.209 41.0416 200.042 41.4796 199.676 42.0666C199.309 42.6537 198.738 43.3698 198.077 44.0198C197.417 44.6697 196.701 45.262 196.126 45.6778C195.842 45.8805 195.604 46.0511 195.437 46.1586C195.4 46.1803 195.362 46.2019 195.346 46.2227C195.375 46.2114 195.438 46.2087 195.476 46.237C195.566 46.3033 195.435 46.2889 195.469 46.2975C195.295 46.2349 195.12 46.3027 195.079 46.4547C195.031 46.6171 195.135 46.7929 195.308 46.8555Z" fill="#C9C9C9"/>
<path d="M195.169 45.2002C195.169 45.2002 196.08 44.5289 196.739 43.6691C197.075 43.2439 197.336 42.7622 197.498 42.4049C197.668 42.0372 197.727 41.7846 197.727 41.7846C197.727 41.7846 197.626 42.0391 197.414 42.3587C197.206 42.6981 196.866 43.1035 196.483 43.4608C196.1 43.8181 195.667 44.1378 195.337 44.3528C195.007 44.5677 194.771 44.6885 194.771 44.6885C194.618 44.7554 194.574 44.9373 194.68 45.0825C194.778 45.238 194.978 45.2888 195.131 45.2219C195.144 45.2313 195.152 45.2209 195.169 45.2002Z" fill="#C9C9C9"/>
<path d="M193.963 40.9858C193.963 40.9858 195.243 39.9881 196.285 38.7806C196.806 38.1768 197.255 37.5362 197.542 37.0229C197.829 36.5095 197.967 36.133 197.967 36.133C197.967 36.133 197.804 36.4906 197.466 36.9662C197.128 37.4417 196.615 38.0351 196.047 38.5708C194.903 39.6527 193.545 40.4936 193.545 40.4936C193.403 40.57 193.385 40.7711 193.5 40.9062C193.607 41.0516 193.818 41.0924 193.959 41.016C193.955 40.9962 193.963 40.9858 193.963 40.9858Z" fill="#C9C9C9"/>
<path d="M197.364 83.1554C197.364 83.1554 196.694 83.0915 195.639 82.8742C194.602 82.6555 193.208 82.2909 191.853 81.7496C191.172 81.4841 190.512 81.1879 189.892 80.8598C189.276 80.5507 188.717 80.2082 188.248 79.9069C187.779 79.6057 187.396 79.3267 187.143 79.1051C186.883 78.8938 186.736 78.7895 186.736 78.7895C186.736 78.7895 186.869 78.9142 187.115 79.1459C187.353 79.3878 187.714 79.6975 188.155 80.0395C188.606 80.3904 189.14 80.7927 189.742 81.1704C190.338 81.5583 191.001 81.9217 191.679 82.2646C193.017 82.9519 194.422 83.47 195.499 83.8013C196.558 84.134 197.307 84.2786 197.307 84.2786L197.325 84.2772C197.638 84.3397 197.9 84.1362 197.92 83.8164C197.952 83.5053 197.72 83.205 197.407 83.1424C197.41 83.1614 197.382 83.154 197.364 83.1554Z" fill="#C9C9C9"/>
<path d="M196.825 86.2629C196.825 86.2629 196.306 86.1775 195.502 85.9886C194.698 85.7997 193.645 85.5046 192.595 85.132C191.545 84.7595 190.531 84.2877 189.791 83.8623C189.429 83.649 189.119 83.4606 188.924 83.302C188.721 83.1536 188.606 83.0757 188.606 83.0757C188.606 83.0757 188.714 83.1638 188.902 83.3326C189.083 83.5116 189.372 83.7306 189.715 83.9935C190.42 84.5181 191.406 85.1271 192.439 85.6458C193.471 86.1644 194.525 86.6042 195.333 86.9085C196.13 87.204 196.693 87.3729 196.693 87.3729C197.003 87.4648 197.287 87.2789 197.347 86.9752C197.407 86.6715 197.208 86.3492 196.898 86.2573C196.872 86.2689 196.854 86.2703 196.825 86.2629Z" fill="#C9C9C9"/>
<path d="M196.413 88.7458C196.402 88.737 196.302 88.7353 196.069 88.7054C195.843 88.6654 195.52 88.5944 195.119 88.4912C194.333 88.2832 193.282 87.9228 192.263 87.4442C191.236 86.9758 190.245 86.4084 189.509 85.9364C188.783 85.4733 188.309 85.1349 188.309 85.1349C188.309 85.1349 188.747 85.5243 189.427 86.0777C190.106 86.6312 191.059 87.327 192.05 87.9426C193.041 88.5583 194.104 89.072 194.922 89.4026C195.335 89.5628 195.686 89.6893 195.937 89.7659C196.189 89.8425 196.368 89.8765 196.35 89.8779L196.361 89.8867C196.665 89.9591 196.944 89.7541 196.975 89.4434C197.006 89.1327 196.782 88.8227 196.488 88.7591C196.47 88.7605 196.442 88.7532 196.413 88.7458Z" fill="#C9C9C9"/>
<path d="M195.879 91.9308C195.879 91.9308 195.004 91.5454 193.716 90.8211C192.422 90.107 190.743 89.0613 189.119 87.8862C188.312 87.3029 187.516 86.6805 186.786 86.0811C186.064 85.4715 185.39 84.8865 184.843 84.3577C184.29 83.8392 183.838 83.3887 183.534 83.0598C183.224 82.741 183.047 82.5643 183.047 82.5643C183.047 82.5643 183.21 82.7614 183.507 83.1005C183.796 83.4498 184.21 83.9324 184.736 84.4917C185.255 85.0611 185.883 85.6884 186.581 86.3576C187.276 87.0079 188.042 87.7002 188.824 88.3431C190.393 89.6476 192.044 90.8299 193.315 91.6516C194.586 92.4732 195.49 92.9617 195.49 92.9617C195.768 93.1106 196.086 93.0066 196.193 92.7289C196.307 92.441 196.178 92.0971 195.9 91.9482C195.907 91.938 195.897 91.9293 195.879 91.9308Z" fill="#C9C9C9"/>
<path d="M196.824 94.6757C196.824 94.6757 197.548 90.9387 197.835 85.1644C197.883 83.7224 197.984 82.1595 197.948 80.4879C197.961 78.823 197.886 77.056 197.773 75.2426C197.687 73.4176 197.521 71.5293 197.389 69.6192C197.351 68.6623 197.226 67.7013 197.128 66.7287L196.852 63.8099C196.568 61.8606 196.322 59.9089 195.977 57.9929C195.776 57.0368 195.568 56.0909 195.371 55.154C195.174 54.2172 194.988 53.2894 194.712 52.3871C194.454 51.4835 194.2 50.5993 193.95 49.7344C193.708 48.8592 193.455 48.0239 193.129 47.2128C192.508 45.5985 191.994 44.036 191.343 42.6585C190.674 41.2823 190.058 40.0298 189.526 38.9089C188.987 37.7984 188.346 36.8999 187.883 36.127C186.936 34.612 186.398 33.7461 186.398 33.7461C186.386 33.737 186.375 33.728 186.356 33.7292C186.348 33.7395 186.341 33.7497 186.345 33.7691C186.345 33.7691 186.83 34.658 187.69 36.2178C188.088 37.0046 188.71 37.9043 189.204 39.0276C189.705 40.1406 190.268 41.4161 190.888 42.7857C191.481 44.1669 191.946 45.7228 192.575 47.3268C192.889 48.1288 193.143 48.9641 193.374 49.8303C193.623 50.6952 193.885 51.5691 194.131 52.4636C194.68 54.249 194.998 56.1275 195.472 58.0156C195.881 59.9177 196.192 61.8554 196.541 63.7908C196.775 65.7334 197.086 67.6712 197.229 69.5903C197.354 71.5107 197.497 73.3809 197.485 75.1926C197.492 76.0928 197.498 76.9929 197.509 77.8634C197.501 78.7351 197.489 79.5875 197.48 80.4103C197.486 82.0741 197.404 83.6357 197.383 85.0663C197.171 90.8357 196.797 94.6382 196.797 94.6382C196.79 94.6485 196.813 94.6666 196.824 94.6757C196.828 94.695 196.809 94.6962 196.824 94.6757Z" fill="#C9C9C9"/>
<path d="M212.185 63.1432C212.185 63.1432 212.23 62.4718 212.157 61.2862C212.096 60.6903 212.057 59.967 211.934 59.1433C211.847 58.317 211.665 57.3815 211.458 56.3607C211.206 55.3529 210.972 54.2469 210.611 53.1019C210.434 52.5243 210.246 51.9378 210.065 51.3411C209.855 50.7369 209.619 50.1442 209.38 49.5324C208.945 48.296 208.327 47.0729 207.757 45.8077C207.154 44.5643 206.475 43.3071 205.81 42.0779C205.05 40.8847 204.338 39.6493 203.542 38.5072C202.72 37.3766 201.953 36.2421 201.146 35.1879C200.314 34.1453 199.504 33.1688 198.712 32.2394C197.906 31.3305 197.1 30.5183 196.375 29.7389C195.649 28.9596 194.986 28.2628 194.33 27.701C193.701 27.1276 193.148 26.6164 192.697 26.2041C191.789 25.3898 191.262 24.9154 191.262 24.9154C191.262 24.9154 191.742 25.432 192.592 26.3281C193.02 26.771 193.533 27.3142 194.134 27.9284C194.742 28.5325 195.358 29.2715 196.058 30.0624C196.74 30.8546 197.506 31.6988 198.272 32.6398C199.005 33.6025 199.764 34.6021 200.593 35.6256C201.37 36.6722 202.119 37.8082 202.911 38.9312C203.678 40.0657 204.361 41.2936 205.092 42.4793C205.771 43.688 206.443 44.907 207.061 46.13C207.627 47.3762 208.248 48.5699 208.698 49.7859C208.944 50.3874 209.18 50.9801 209.412 51.5537C209.618 52.1388 209.814 52.7151 210.024 53.2709C210.425 54.384 210.699 55.458 210.994 56.4529C211.224 57.443 211.468 58.3643 211.628 59.1853C211.806 60.0049 211.906 60.714 211.992 61.2983C212.153 62.4581 212.185 63.1432 212.185 63.1432Z" fill="#C9C9C9"/>
<path d="M191.004 66.7383C191.004 66.7383 191.37 65.3318 191.649 63.1556C191.767 62.0591 191.927 60.7832 191.956 59.388C192.015 58.0007 191.986 56.511 191.908 55.0146C191.779 53.5115 191.62 52.0005 191.357 50.6038C191.205 49.897 191.088 49.2175 190.901 48.5815C190.715 47.9455 190.563 47.3367 190.373 46.7795C190.175 46.2325 189.985 45.7243 189.811 45.2936C189.645 44.8526 189.444 44.4824 189.293 44.168C188.996 43.5586 188.818 43.2066 188.818 43.2066C188.818 43.2066 188.931 43.5724 189.136 44.2072C189.229 44.5252 189.384 44.9081 189.493 45.3527C189.602 45.7972 189.723 46.3 189.882 46.8493C190.023 47.3999 190.125 48.0019 190.261 48.6312C190.398 49.2605 190.454 49.9242 190.576 50.6232C190.686 51.313 190.735 52.0361 190.841 52.7556C190.921 53.4866 190.962 54.2199 191.022 54.9521C191.199 57.8947 191.21 60.8378 191.15 63.0396C191.112 64.1508 191.074 65.0657 191.046 65.6955C191.006 66.3652 191.004 66.7383 191.004 66.7383Z" fill="#C9C9C9"/>
<path d="M187.868 68.2707C187.868 68.2707 188.027 68.084 188.223 67.6487C188.392 67.2248 188.654 66.628 188.872 65.8663C189.344 64.3703 189.793 62.2845 189.965 60.146C190.041 59.0773 190.083 57.9811 190.011 56.9606C190.005 56.4486 189.92 55.9412 189.863 55.4716C189.826 55.0008 189.695 54.5553 189.599 54.1372C189.523 53.718 189.37 53.3526 189.255 53.0342C189.148 52.7055 189.03 52.4169 188.908 52.2073C188.676 51.748 188.538 51.5098 188.538 51.5098C188.538 51.5098 188.614 51.7812 188.741 52.2565C188.816 52.4787 188.884 52.7605 188.932 53.0927C188.98 53.4248 189.064 53.7845 189.086 54.1774C189.119 54.5794 189.187 55.0089 189.182 55.4625C189.196 55.9149 189.225 56.396 189.208 56.8897C189.206 57.885 189.164 58.9319 189.064 59.9823C188.984 61.0315 188.853 62.0739 188.749 63.0555C188.614 64.0291 188.486 64.9432 188.369 65.7186C188.245 66.5044 188.151 67.1504 188.056 67.5994C188.002 67.8194 187.968 67.9889 187.945 68.1183C187.895 68.21 187.868 68.2707 187.868 68.2707Z" fill="#C9C9C9"/>
<path d="M196.17 107.709C196.17 107.709 195.813 107.749 195.097 107.795C194.388 107.856 193.358 107.901 192.051 107.927C190.736 107.939 189.149 107.965 187.308 107.867C186.388 107.818 185.421 107.775 184.38 107.716C183.347 107.616 182.268 107.522 181.135 107.419C178.88 107.263 176.438 106.783 173.843 106.438C172.553 106.179 171.233 105.899 169.876 105.638C169.2 105.497 168.511 105.363 167.835 105.223C167.155 105.047 166.454 104.864 165.753 104.681C164.352 104.315 162.942 103.936 161.507 103.569C160.085 103.14 158.656 102.641 157.197 102.177C154.279 101.303 151.408 100.056 148.514 98.9115C147.06 98.3706 145.651 97.6778 144.241 96.985C142.84 96.3063 141.426 95.6342 140.045 94.9629C137.285 93.5647 134.683 91.9546 132.099 90.5188C131.447 90.1631 130.824 89.7734 130.231 89.3496C129.626 88.9325 129.016 88.5361 128.427 88.1472C127.241 87.3552 126.075 86.5707 124.947 85.8218C124.379 85.4402 123.819 85.0728 123.272 84.6987C122.737 84.318 122.224 83.8891 121.723 83.5091C120.716 82.7143 119.727 81.9477 118.787 81.2101C117.847 80.4724 116.944 79.7704 116.091 79.0973C115.66 78.7537 115.246 78.4383 114.844 78.1162C114.46 77.7667 114.084 77.4313 113.728 77.1034C112.286 75.7841 111.037 74.657 109.996 73.7154C107.933 71.8396 106.751 70.7697 106.751 70.7697C106.751 70.7697 107.946 71.833 110.038 73.6747C111.084 74.5955 112.345 75.716 113.805 77.0078C114.173 77.3291 114.549 77.6645 114.926 77.9999C115.327 78.322 115.754 78.6307 116.185 78.9743C117.042 79.6266 117.958 80.322 118.902 81.0389C119.846 81.7558 120.828 82.5083 121.86 83.2898C122.382 83.6772 122.887 84.092 123.426 84.452C123.978 84.8053 124.538 85.1727 125.106 85.5543C126.247 86.2965 127.417 87.0603 128.607 87.8315C129.196 88.2205 129.806 88.6168 130.416 89.0132C131.013 89.4162 131.648 89.7993 132.293 90.1408C134.873 91.5419 137.505 93.1179 140.253 94.4671C141.638 95.1177 143.036 95.7615 144.442 96.4195C145.848 97.0775 147.249 97.7562 148.707 98.2763C151.597 99.3855 154.457 100.584 157.363 101.409C158.806 101.845 160.226 102.33 161.653 102.738C163.08 103.091 164.494 103.45 165.879 103.787C166.572 103.956 167.264 104.125 167.944 104.301C168.633 104.435 169.301 104.561 169.982 104.681C171.318 104.934 172.634 105.18 173.916 105.425C176.473 105.734 178.891 106.172 181.13 106.3C182.255 106.388 183.313 106.475 184.337 106.561C185.35 106.598 186.316 106.641 187.221 106.662C189.024 106.724 190.595 106.67 191.889 106.651C193.179 106.597 194.176 106.551 194.843 106.476C195.526 106.429 195.887 106.367 195.887 106.367C196.236 106.313 196.584 106.571 196.675 106.928C196.753 107.291 196.556 107.634 196.2 107.675L196.17 107.709Z" fill="#C9C9C9"/>
<path d="M194.362 107.534C192.65 109.02 190.766 110.321 188.845 111.531C186.916 112.727 184.904 113.838 182.812 114.753C180.731 115.717 178.557 116.492 176.359 117.169C174.137 117.803 171.866 118.354 169.539 118.64L167.796 118.876L166.024 118.981C164.847 119.085 163.659 119.086 162.467 119.051C161.275 119.072 160.08 118.947 158.885 118.823C157.69 118.753 156.488 118.504 155.299 118.303C154.1 118.143 152.922 117.79 151.726 117.465C150.541 117.188 149.368 116.758 148.207 116.322L146.471 115.693L144.78 114.912C143.649 114.387 142.497 113.91 141.432 113.24C140.349 112.598 139.227 112.032 138.192 111.328L135.068 109.19C134.054 108.439 133.086 107.626 132.094 106.827C131.597 106.427 131.097 106.048 130.617 105.621L129.226 104.334C128.306 103.461 127.351 102.641 126.473 101.727L123.864 98.9699C122.961 98.0686 122.163 97.0936 121.353 96.1251L118.902 93.2125C117.391 91.1811 115.83 89.1763 114.35 87.111C112.957 84.9993 111.477 82.934 110.14 80.7749C108.849 78.61 107.461 76.4776 106.2 74.2787L102.539 67.6364C102.424 67.4397 102.486 67.2054 102.676 67.1059C102.777 67.0527 102.911 67.0558 103.01 67.1136L103.039 67.1351L106.095 68.7586L109.247 70.0931C110.326 70.4439 111.4 70.8154 112.475 71.1314C113.568 71.3647 114.642 71.6807 115.744 71.8726C117.935 72.263 120.136 72.5011 122.34 72.5729C123.44 72.6192 124.531 72.6514 125.628 72.6075C126.716 72.605 127.804 72.547 128.897 72.4683C133.253 72.181 137.558 71.5529 141.917 71.0438C144.1 70.7963 146.279 70.5695 148.497 70.4684C150.713 70.3325 152.951 70.3497 155.208 70.4851C156.328 70.5388 157.476 70.7248 158.604 70.848C159.73 71.082 160.87 71.254 161.991 71.5642C163.103 71.9157 164.242 72.1431 165.33 72.6535L166.969 73.3154C167.501 73.5495 168.028 73.8598 168.564 74.1287C169.087 74.4042 169.615 74.659 170.129 74.9759L171.621 75.9532C172.654 76.5663 173.572 77.3501 174.511 78.0858C175.48 78.7876 176.333 79.6599 177.208 80.4843C178.101 81.2813 178.903 82.1802 179.694 83.0858L180.896 84.4168C181.279 84.8763 181.644 85.363 182.014 85.8291C182.736 86.7885 183.527 87.6941 184.173 88.6934L186.185 91.6721C186.844 92.6648 187.423 93.718 188.032 94.7372C189.308 96.7631 190.298 98.921 191.414 101.013C192.467 103.137 193.411 105.301 194.413 107.452C194.383 107.486 194.366 107.514 194.362 107.534ZM194.233 107.455C193.163 105.358 192.152 103.248 191.031 101.177C189.851 99.1186 188.76 97.0138 187.463 95.0359C186.829 94.03 186.241 93.0182 185.569 92.0322L183.527 89.1429C182.855 88.1569 182.068 87.286 181.341 86.3473C180.959 85.8878 180.61 85.4292 180.215 84.9764L179.003 83.6868C178.204 82.8226 177.405 81.9584 176.516 81.1961C175.645 80.4065 174.811 79.597 173.859 78.9233C172.936 78.2157 172.038 77.4948 171.03 76.9238L169.571 76.0028C169.073 75.714 168.561 75.4872 168.046 75.2258C167.539 74.9783 167.029 74.6962 166.513 74.4901L164.928 73.8919C163.892 73.4451 162.8 73.2119 161.729 72.8751C160.65 72.5798 159.565 72.416 158.48 72.1968C157.381 72.0951 156.292 71.8966 155.192 71.8504C153.01 71.7305 150.818 71.7075 148.645 71.8582C146.468 71.9741 144.31 72.2083 142.131 72.4351C137.802 72.9102 133.451 73.4888 129.026 73.7398C127.924 73.8044 126.815 73.855 125.686 73.8427C124.568 73.8792 123.456 73.8396 122.327 73.7718C120.082 73.6852 117.831 73.3627 115.582 72.9294C114.464 72.7094 113.34 72.3645 112.231 72.1031C111.119 71.7516 110.028 71.352 108.933 70.9732L105.724 69.5402L102.632 67.8257L103.187 67.3326L106.706 74.0131C107.908 76.2245 109.237 78.3695 110.503 80.5477C111.806 82.7059 113.266 84.7638 114.646 86.8822C116.093 88.9468 117.633 90.9441 119.169 92.9622L121.629 95.8335C122.452 96.7953 123.263 97.7637 124.149 98.6368L126.792 101.339C127.687 102.226 128.659 103.018 129.589 103.851L131.002 105.09C131.473 105.503 131.991 105.854 132.479 106.24C133.472 106.984 134.444 107.776 135.467 108.486L138.584 110.499C139.625 111.181 140.734 111.699 141.805 112.292C142.871 112.906 143.99 113.383 145.104 113.88L146.779 114.633L148.486 115.241C149.618 115.655 150.762 116.063 151.918 116.318C153.064 116.615 154.235 116.954 155.395 117.134C156.559 117.348 157.727 117.597 158.897 117.679C160.071 117.796 161.228 117.941 162.396 117.933C163.562 117.981 164.725 117.994 165.877 117.903L167.61 117.819L169.324 117.616C171.612 117.35 173.849 116.854 176.074 116.309C178.259 115.694 180.44 114.989 182.516 114.102C184.607 113.242 186.651 112.243 188.624 111.152C190.556 110.046 192.465 108.842 194.233 107.455Z" fill="#C9C9C9"/>
<path d="M182.078 104.075C182.078 104.075 181.984 104.15 181.829 104.3C181.695 104.458 181.479 104.684 181.216 104.978C180.668 105.557 179.9 106.384 178.879 107.275C177.85 108.151 176.661 109.199 175.256 110.128C173.867 111.088 172.291 111.952 170.661 112.685C169.82 113.004 169.022 113.402 168.165 113.629C167.326 113.887 166.486 114.145 165.647 114.281C164.825 114.448 164.008 114.591 163.226 114.613C162.439 114.658 161.712 114.749 161.016 114.681C160.324 114.651 159.705 114.599 159.141 114.557C158.578 114.453 158.105 114.358 157.708 114.281C156.906 114.11 156.467 114.016 156.467 114.016C156.467 114.016 156.92 114.041 157.714 114.074C158.111 114.09 158.585 114.123 159.141 114.15C159.684 114.123 160.299 114.075 160.966 114.059C161.637 114.08 162.335 113.904 163.096 113.812C163.845 113.729 164.607 113.515 165.412 113.317C166.221 113.158 167.002 112.852 167.82 112.586C168.643 112.358 169.433 111.945 170.239 111.625C171.049 111.282 171.814 110.884 172.586 110.501C173.325 110.057 174.093 109.697 174.789 109.236C176.203 108.384 177.471 107.514 178.551 106.731C179.614 105.918 180.517 105.277 181.119 104.768C181.421 104.514 181.683 104.343 181.847 104.209C181.967 104.119 182.078 104.075 182.078 104.075Z" fill="#C9C9C9"/>
<path d="M174.88 103.378C174.88 103.378 174.92 102.879 174.828 101.999C174.8 101.55 174.705 101.015 174.582 100.407C174.46 99.7986 174.289 99.1112 174.079 98.3575C173.667 96.8634 173.029 95.1542 172.257 93.3563C171.894 92.4548 171.457 91.5379 170.992 90.6007C170.559 89.6644 170.024 88.7444 169.533 87.8193C169.06 86.8688 168.507 85.9742 167.992 85.0613C167.489 84.1423 166.927 83.2864 166.398 82.4315C165.865 81.596 165.377 80.7554 164.858 79.9983C164.352 79.2351 163.869 78.5116 163.431 77.835C162.993 77.1584 162.557 76.5663 162.198 76.0222C161.827 75.4842 161.508 75.0063 161.245 74.6211C160.723 73.8314 160.428 73.3932 160.428 73.3932C160.428 73.3932 160.773 73.807 161.391 74.5154C161.692 74.8823 162.053 75.3226 162.487 75.8301C162.908 76.3438 163.398 76.8922 163.861 77.5566C164.804 78.86 166.003 80.347 167.086 82.0445C167.64 82.8872 168.222 83.7503 168.758 84.6703C169.293 85.5904 169.879 86.4861 170.373 87.4437C170.854 88.4075 171.377 89.3336 171.793 90.2952C172.233 91.2447 172.674 92.1941 173.02 93.1211C173.424 94.0369 173.692 94.9678 173.966 95.8274C174.214 96.6992 174.444 97.512 174.604 98.29C174.776 99.0619 174.876 99.7666 174.928 100.392C174.981 101.017 175.018 101.564 175.005 101.998C175.014 102.902 174.88 103.378 174.88 103.378Z" fill="#C9C9C9"/>
<path d="M163.906 102.909C163.906 102.909 162.753 104.181 160.795 105.774C159.805 106.566 158.634 107.462 157.324 108.317C156.649 108.724 155.987 109.186 155.248 109.569C154.527 109.984 153.78 110.351 153.025 110.704C152.278 111.071 151.481 111.346 150.7 111.652C149.941 111.965 149.124 112.109 148.37 112.339C147.599 112.537 146.829 112.613 146.118 112.736C145.396 112.805 144.686 112.805 144.041 112.83C143.4 112.831 142.794 112.711 142.269 112.646C141.74 112.604 141.292 112.433 140.913 112.326C140.18 112.095 139.75 111.955 139.75 111.955C139.75 111.955 140.172 112.018 140.919 112.118C141.299 112.165 141.734 112.282 142.247 112.231C142.756 112.204 143.332 112.239 143.948 112.191C144.56 112.104 145.223 112.049 145.92 111.933C146.597 111.748 147.333 111.611 148.062 111.396C148.786 111.143 149.557 110.944 150.295 110.622C151.041 110.316 151.804 110.041 152.543 109.657C154.053 109.014 155.483 108.193 156.831 107.439C158.172 106.67 159.426 105.929 160.453 105.237C161.481 104.546 162.366 103.997 162.955 103.556C163.562 103.147 163.906 102.909 163.906 102.909Z" fill="#C9C9C9"/>
<path d="M152.741 99.9968C152.741 99.9968 152.693 99.5399 152.558 98.7484C152.443 97.9641 152.154 96.8359 151.812 95.5109C151.449 94.1788 150.902 92.6455 150.286 91.0256C149.978 90.2156 149.609 89.3841 149.252 88.5466C148.85 87.7141 148.498 86.8572 148.063 86.0236C147.628 85.1901 147.242 84.3321 146.765 83.5362C146.301 82.7343 145.907 81.915 145.42 81.1579C144.967 80.4018 144.522 79.659 144.121 78.9632C143.675 78.2724 143.26 77.6347 142.882 77.0306C142.125 75.8225 141.426 74.8439 140.959 74.146C140.492 73.448 140.233 73.043 140.233 73.043C140.233 73.043 140.547 73.4042 141.093 74.0462C141.614 74.7003 142.468 75.5862 143.3 76.7577C143.728 77.3373 144.2 77.9639 144.684 78.6363C145.143 79.321 145.626 80.0455 146.124 80.7965C146.623 81.5475 147.075 82.3556 147.547 83.1708C148.032 83.9799 148.438 84.8451 148.893 85.6858C149.336 86.5326 149.684 87.4089 150.082 88.2608C150.442 89.131 150.761 89.9868 151.065 90.8162C151.646 92.4871 152.049 94.0743 152.324 95.4492C152.599 96.8241 152.698 97.9592 152.743 98.7608C152.779 99.5491 152.741 99.9968 152.741 99.9968Z" fill="#C9C9C9"/>
<path d="M142.383 96.8885C142.383 96.8885 141.806 97.916 140.704 99.2249C140.142 99.8752 139.473 100.608 138.663 101.299C137.875 101.999 136.954 102.672 136.004 103.26C135.045 103.833 134.006 104.288 132.986 104.59C132.459 104.71 131.966 104.83 131.483 104.905C130.995 104.94 130.52 104.969 130.097 104.967C129.657 104.935 129.268 104.873 128.922 104.827C128.572 104.804 128.269 104.651 128.031 104.584C127.545 104.435 127.268 104.329 127.268 104.329C127.268 104.329 127.55 104.351 128.037 104.377C128.276 104.382 128.57 104.457 128.909 104.426C129.247 104.395 129.619 104.364 130.012 104.342C130.406 104.258 130.835 104.174 131.284 104.099C131.73 103.986 132.176 103.81 132.661 103.674C133.583 103.286 134.549 102.852 135.473 102.279C136.402 101.744 137.292 101.108 138.106 100.517C138.924 99.9031 139.66 99.295 140.302 98.7619C141.569 97.6644 142.383 96.8885 142.383 96.8885Z" fill="#C9C9C9"/>
<path d="M127.892 77.1494C127.892 77.1494 127.927 77.4274 127.984 77.9038C128.041 78.3803 128.081 79.0738 128.231 79.8695C128.306 80.2673 128.339 80.7034 128.433 81.1612C128.527 81.6189 128.617 82.0963 128.723 82.6005C128.854 83.0923 128.98 83.6037 129.127 84.1223C129.299 84.6285 129.453 85.1605 129.625 85.6667C130.362 87.7191 131.388 89.7141 132.307 91.119C133.208 92.5498 133.984 93.4164 133.984 93.4164C133.984 93.4164 133.018 92.7487 131.876 91.4031C131.319 90.7407 130.703 89.8985 130.164 88.9662C129.884 88.4965 129.621 88.0008 129.388 87.4731C129.129 86.9578 128.954 86.4186 128.733 85.8846C128.545 85.3517 128.395 84.8 128.232 84.2545C128.102 83.71 128.006 83.1665 127.9 82.6623C127.819 82.1456 127.779 81.6433 127.722 81.1668C127.666 80.6904 127.691 80.2428 127.674 79.8334C127.633 79.0014 127.761 78.3457 127.791 77.8784C127.853 77.4121 127.892 77.1494 127.892 77.1494Z" fill="#C9C9C9"/>
<path d="M126.172 89.8137C126.172 89.8137 125.72 90.3601 124.906 91.0101C124.499 91.335 123.999 91.6728 123.422 91.9942C122.858 92.3085 122.201 92.5763 121.532 92.7919C120.847 92.9775 120.144 93.1332 119.444 93.111C119.1 93.1259 118.76 93.0594 118.43 93.008C118.116 92.9865 117.799 92.8093 117.545 92.715C117.266 92.6349 117.051 92.4006 116.849 92.2777C116.646 92.1548 116.499 91.9812 116.39 91.8455C116.16 91.5811 116.042 91.4304 116.042 91.4304C116.042 91.4304 116.215 91.5304 116.49 91.6919C116.62 91.7762 116.781 91.8834 116.997 91.9398C117.204 91.9813 117.415 92.1192 117.661 92.1392C117.908 92.1593 118.161 92.2536 118.451 92.2301C118.735 92.2287 119.02 92.2273 119.322 92.1966C119.632 92.1809 119.93 92.1131 120.241 92.0381C120.555 92.0003 120.875 91.881 121.178 91.7911C122.434 91.4248 123.659 90.8799 124.602 90.4921C125.541 90.0672 126.172 89.8137 126.172 89.8137Z" fill="#C9C9C9"/>
<path d="M119.683 85.4267C119.683 85.4267 119.378 84.9709 119.001 84.2566C118.643 83.5495 118.213 82.5841 117.886 81.6019C117.559 80.6198 117.282 79.6129 117.149 78.8468C117.016 78.0808 116.981 77.5607 116.981 77.5607C116.981 77.5607 117.285 78.0165 117.663 78.7308C118.04 79.445 118.45 80.4033 118.777 81.3854C119.104 82.3676 119.381 83.3745 119.515 84.1405C119.648 84.9066 119.683 85.4267 119.683 85.4267Z" fill="#C9C9C9"/>
<path d="M191.681 106.177C191.681 106.177 191.276 105.06 190.383 103.106C189.497 101.166 188.14 98.417 186.238 95.2425C185.284 93.6655 184.212 91.9688 182.964 90.2541C181.729 88.5329 180.374 86.7469 178.834 85.0391C178.448 84.6035 178.062 84.1679 177.676 83.7323C177.265 83.3099 176.849 82.908 176.425 82.4922C175.607 81.6268 174.705 80.842 173.79 80.0637C172.909 79.2312 171.892 78.5605 170.939 77.802C170.01 77.0853 168.883 76.5083 167.861 75.8582C166.792 75.3239 165.714 74.8306 164.606 74.371C163.484 74.028 162.368 73.5544 161.244 73.3214C160.112 73.0744 158.994 72.7659 157.869 72.6429C156.752 72.4788 155.656 72.3221 154.559 72.2754C154.009 72.2348 153.479 72.2016 152.949 72.1684C152.415 72.1557 151.889 72.157 151.363 72.1582C150.307 72.1263 149.3 72.178 148.306 72.2231C146.329 72.3069 144.477 72.4899 142.766 72.6899C139.345 73.0901 136.532 73.5735 134.542 73.7738C133.542 73.8945 132.745 73.91 132.21 73.8973C131.664 73.8362 131.381 73.8019 131.381 73.8019C131.381 73.8019 131.677 73.8296 132.227 73.8702C132.774 73.8763 133.564 73.8469 134.547 73.6983C136.526 73.4496 139.335 72.9317 142.749 72.4626C144.456 72.228 146.305 72.0106 148.298 71.8997C149.284 71.8406 150.308 71.7618 151.356 71.7798C151.882 71.7785 152.408 71.7773 152.947 71.7694C153.489 71.7961 154.031 71.8227 154.574 71.8493C155.676 71.8755 156.788 72.0051 157.918 72.1626C159.047 72.2651 160.191 72.5605 161.348 72.7943C162.497 73.0141 163.639 73.4745 164.786 73.8044C165.919 74.2509 167.051 74.7523 168.167 75.2809C169.221 75.9318 170.282 76.4522 171.323 77.2197C172.31 77.979 173.352 78.6365 174.266 79.4698C175.21 80.2694 176.138 81.0411 176.989 81.9072C177.421 82.337 177.858 82.7463 178.282 83.1621C178.688 83.6051 179.087 84.0341 179.494 84.477C181.088 86.193 182.497 87.9872 183.786 89.7166C185.063 91.4525 186.181 93.1435 187.176 94.7352C189.153 97.9253 190.573 100.696 191.516 102.679C192.443 104.633 192.909 105.827 192.909 105.827L192.918 105.841C193.054 106.189 192.894 106.563 192.571 106.658C192.194 106.746 191.826 106.538 191.681 106.177Z" fill="#C9C9C9"/>
<path d="M139.093 112.125C139.093 112.125 139.697 111.902 140.613 111.601C141.516 111.308 142.736 110.975 143.939 110.612C145.15 110.264 146.331 109.893 147.235 109.6C147.676 109.449 148.074 109.343 148.322 109.242C148.592 109.148 148.759 109.114 148.759 109.114C148.759 109.114 148.327 109.623 147.519 110.185C146.712 110.747 145.537 111.317 144.292 111.664C143.042 112.034 141.743 112.189 140.765 112.222C139.758 112.231 139.093 112.125 139.093 112.125Z" fill="#C9C9C9"/>
<path d="M137.336 111.357C137.336 111.357 137.792 111.074 138.5 110.727C139.196 110.388 140.153 110.001 141.113 109.652C142.074 109.303 143.026 109 143.767 108.777C144.123 108.654 144.458 108.584 144.659 108.488C144.87 108.408 145.011 108.388 145.011 108.388C145.011 108.388 144.682 108.842 144.057 109.345C143.433 109.847 142.488 110.351 141.514 110.707C140.528 111.071 139.504 111.272 138.7 111.347C137.887 111.407 137.336 111.357 137.336 111.357Z" fill="#C9C9C9"/>
<path d="M134.963 110.147C134.963 110.147 135.494 109.709 136.319 109.12C137.143 108.53 138.264 107.829 139.381 107.151C140.519 106.482 141.666 105.828 142.536 105.358C142.963 105.107 143.35 104.942 143.588 104.781C143.846 104.629 143.997 104.562 143.997 104.562C143.997 104.562 143.606 105.168 142.879 105.91C142.153 106.651 141.065 107.479 139.914 108.156C138.75 108.841 137.544 109.383 136.584 109.717C135.629 110.027 134.963 110.147 134.963 110.147Z" fill="#C9C9C9"/>
<path d="M132.98 108.945C132.98 108.945 133.231 108.658 133.619 108.313C134.006 107.968 134.54 107.58 135.099 107.238C135.657 106.896 136.241 106.602 136.734 106.42C136.97 106.325 137.197 106.276 137.334 106.218C137.48 106.175 137.574 106.161 137.574 106.161C137.574 106.161 137.413 106.519 137.097 106.966C136.773 107.397 136.255 107.877 135.658 108.241C135.074 108.597 134.422 108.829 133.9 108.926C133.352 108.976 132.98 108.945 132.98 108.945Z" fill="#C9C9C9"/>
<path d="M130.963 107.463C130.963 107.463 131.515 107.098 132.376 106.615C133.225 106.14 134.37 105.553 135.502 104.974C136.643 104.411 137.766 103.816 138.593 103.332C138.999 103.074 139.364 102.902 139.593 102.726C139.83 102.567 139.972 102.484 139.972 102.484C139.972 102.484 139.654 103.127 138.958 103.888C138.253 104.633 137.17 105.433 135.991 106.019C134.82 106.621 133.569 107.041 132.611 107.247C131.632 107.446 130.963 107.463 130.963 107.463Z" fill="#C9C9C9"/>
<path d="M140.228 96.0742C140.241 96.0669 140.193 96.1952 140.106 96.3456C140.027 96.5114 139.898 96.7065 139.721 96.9083C139.375 97.3272 138.829 97.7799 138.229 98.102C137.628 98.4242 136.999 98.662 136.528 98.789C136.045 98.9233 135.724 98.985 135.724 98.985C135.724 98.985 136.033 98.8698 136.482 98.6738C136.932 98.4779 137.52 98.1631 138.053 97.7786C138.585 97.3941 139.025 96.9011 139.277 96.4955C139.398 96.2849 139.489 96.1118 139.537 95.9834C139.585 95.8551 139.594 95.8096 139.586 95.7942C139.635 95.6049 139.823 95.5176 140.002 95.5975C140.18 95.6774 140.285 95.9004 140.228 96.0742Z" fill="#C9C9C9"/>
<path d="M138.582 95.2315C138.586 95.2705 138.556 95.1842 138.529 95.386C138.511 95.4791 138.463 95.6104 138.376 95.702C138.346 95.7402 138.303 95.786 138.26 95.8318C138.078 95.9992 137.841 96.2198 137.526 96.4855C136.909 97.0095 136.064 97.6452 135.169 98.1865C134.282 98.7436 133.315 99.1821 132.581 99.4232C131.833 99.6718 131.306 99.7306 131.306 99.7306C131.306 99.7306 131.821 99.6171 132.534 99.3054C133.248 98.9938 134.139 98.4758 134.971 97.8475C135.803 97.2192 136.579 96.5197 137.137 95.9478C137.409 95.6656 137.638 95.4292 137.785 95.2611C137.815 95.2228 137.845 95.1845 137.871 95.1695C137.854 95.2003 137.84 95.27 137.866 95.3173C137.925 95.4276 137.93 95.2798 137.934 95.3188C137.893 95.1155 137.997 94.9309 138.173 94.9113C138.362 94.8842 138.54 95.0282 138.582 95.2315Z" fill="#C9C9C9"/>
<path d="M136.762 94.8045C136.762 94.8045 135.865 95.7085 134.8 96.3011C134.272 96.6051 133.693 96.8158 133.269 96.9374C132.831 97.0664 132.541 97.0909 132.541 97.0909C132.541 97.0909 132.84 97.0205 133.231 96.8365C133.643 96.6608 134.15 96.3485 134.61 95.9814C135.071 95.6143 135.498 95.185 135.791 94.8527C136.085 94.5205 136.258 94.278 136.258 94.278C136.358 94.1185 136.567 94.1 136.711 94.2416C136.868 94.3759 136.892 94.6072 136.792 94.7667C136.801 94.7822 136.788 94.7897 136.762 94.8045Z" fill="#C9C9C9"/>
<path d="M132.271 92.77C132.271 92.77 130.95 94.0303 129.435 94.9914C128.677 95.472 127.891 95.8666 127.272 96.1017C126.654 96.3368 126.212 96.4283 126.212 96.4283C126.212 96.4283 126.637 96.3054 127.222 96.0075C127.806 95.7095 128.551 95.2364 129.24 94.6923C130.632 93.5965 131.791 92.2241 131.791 92.2241C131.9 92.0789 132.126 92.0916 132.258 92.2419C132.402 92.3847 132.413 92.6256 132.305 92.7707C132.283 92.7625 132.271 92.77 132.271 92.77Z" fill="#C9C9C9"/>
<path d="M178.642 103.484C178.642 103.484 178.681 102.728 178.613 101.519C178.54 100.328 178.363 98.7172 177.983 97.1202C177.8 96.3186 177.579 95.5359 177.315 94.7917C177.073 94.0548 176.783 93.3763 176.525 92.8049C176.267 92.2335 176.019 91.762 175.814 91.4443C175.622 91.1203 175.53 90.9385 175.53 90.9385C175.53 90.9385 175.647 91.1077 175.864 91.4191C176.094 91.7243 176.38 92.177 176.688 92.7232C177.004 93.283 177.364 93.9435 177.686 94.676C178.02 95.4022 178.315 96.2003 178.585 97.011C179.13 98.6126 179.476 100.262 179.668 101.515C179.864 102.748 179.902 103.606 179.902 103.606L179.897 103.625C179.915 103.984 179.646 104.242 179.287 104.212C178.935 104.196 178.639 103.889 178.621 103.53C178.641 103.537 178.638 103.504 178.642 103.484Z" fill="#C9C9C9"/>
<path d="M182.189 103.396C182.189 103.396 182.179 102.804 182.101 101.878C182.023 100.952 181.868 99.7316 181.626 98.502C181.383 97.2724 181.025 96.0661 180.673 95.1724C180.495 94.7354 180.337 94.3588 180.192 94.1155C180.06 93.866 179.993 93.7245 179.993 93.7245C179.993 93.7245 180.073 93.8597 180.23 94.0966C180.399 94.3273 180.595 94.685 180.832 95.1103C181.3 95.9807 181.815 97.1781 182.223 98.4123C182.631 99.6465 182.947 100.891 183.153 101.841C183.351 102.777 183.446 103.431 183.446 103.431C183.497 103.791 183.244 104.077 182.896 104.094C182.548 104.11 182.222 103.836 182.171 103.475C182.188 103.449 182.192 103.429 182.189 103.396Z" fill="#C9C9C9"/>
<path d="M185.02 103.345C185.012 103.331 185.027 103.219 185.032 102.955C185.024 102.697 184.999 102.327 184.95 101.863C184.847 100.954 184.619 99.7253 184.254 98.5121C183.901 97.2927 183.432 96.0964 183.028 95.1994C182.632 94.3157 182.333 93.7322 182.333 93.7322C182.333 93.7322 182.695 94.2845 183.199 95.1316C183.703 95.9787 184.321 97.1529 184.843 98.3573C185.366 99.5618 185.763 100.829 185.996 101.794C186.107 102.279 186.19 102.691 186.234 102.983C186.278 103.275 186.286 103.48 186.291 103.461L186.299 103.474C186.329 103.825 186.055 104.101 185.704 104.085C185.353 104.068 185.045 103.768 185.023 103.431C185.027 103.411 185.024 103.378 185.02 103.345Z" fill="#C9C9C9"/>
<path d="M188.652 103.274C188.652 103.274 188.367 102.237 187.773 100.684C187.191 99.1263 186.303 97.086 185.262 95.0858C184.745 94.0923 184.183 93.1038 183.636 92.1933C183.076 91.2889 182.536 90.4433 182.037 89.7479C181.551 89.0464 181.124 88.4696 180.808 88.0776C180.504 87.6796 180.337 87.4542 180.337 87.4542C180.337 87.4542 180.529 87.6675 180.858 88.0534C181.199 88.4333 181.668 88.9727 182.204 89.65C182.753 90.3212 183.348 91.1234 183.977 92.0107C184.587 92.8909 185.232 93.8564 185.819 94.8328C187.013 96.7928 188.057 98.8254 188.763 100.375C189.468 101.924 189.863 103.011 189.863 103.011C189.983 103.344 189.815 103.681 189.489 103.755C189.15 103.834 188.788 103.634 188.668 103.3C188.656 103.307 188.648 103.293 188.652 103.274Z" fill="#C9C9C9"/>
<path d="M191.552 104.777C191.552 104.777 187.274 104.968 180.801 104.339C179.188 104.155 177.432 104.01 175.578 103.695C173.723 103.436 171.769 103.063 169.769 102.64C167.752 102.244 165.678 101.749 163.574 101.288C162.515 101.089 161.466 100.792 160.4 100.523L157.197 99.7357C155.074 99.0992 152.943 98.5046 150.867 97.8061C149.836 97.4255 148.818 97.0381 147.807 96.665C146.797 96.2918 145.795 95.9329 144.836 95.4768C143.873 95.0416 142.931 94.6139 142.009 94.1937C141.075 93.7802 140.187 93.3607 139.338 92.8651C137.643 91.9088 135.989 91.0796 134.563 90.1294C133.141 89.1583 131.849 88.2671 130.689 87.4911C129.541 86.7084 128.647 85.8472 127.862 85.2058C126.332 83.9028 125.457 83.1613 125.457 83.1613C125.449 83.147 125.44 83.1329 125.445 83.1119C125.458 83.1052 125.47 83.0985 125.491 83.106C125.491 83.106 126.401 83.7922 127.995 85.0056C128.806 85.5775 129.705 86.4177 130.874 87.1519C132.03 87.8928 133.357 88.7286 134.779 89.6437C136.219 90.5311 137.874 91.3042 139.556 92.2672C140.397 92.7487 141.285 93.1682 142.211 93.5674C143.132 93.9877 144.062 94.4221 145.017 94.8431C146.914 95.7478 148.952 96.4104 150.975 97.2479C153.025 98.0158 155.13 98.68 157.227 99.3859C159.35 99.9663 161.456 100.63 163.568 101.105C165.685 101.56 167.743 102.026 169.761 102.31C170.762 102.466 171.762 102.621 172.729 102.776C173.701 102.91 174.651 103.037 175.568 103.163C177.419 103.442 179.17 103.608 180.766 103.819C187.222 104.532 191.515 104.741 191.515 104.741C191.528 104.734 191.544 104.762 191.552 104.777C191.573 104.784 191.578 104.763 191.552 104.777Z" fill="#C9C9C9"/>
<path d="M153.935 116.69C153.935 116.69 153.181 116.63 151.873 116.353C151.22 116.188 150.422 116.026 149.525 115.754C148.62 115.522 147.609 115.165 146.507 114.766C145.426 114.321 144.234 113.879 143.019 113.288C142.405 112.996 141.784 112.691 141.149 112.391C140.511 112.058 139.89 111.699 139.249 111.332C137.944 110.644 136.685 109.756 135.37 108.914C134.085 108.039 132.798 107.076 131.539 106.134C130.336 105.092 129.078 104.096 127.938 103.023C126.815 101.923 125.678 100.883 124.638 99.8119C123.614 98.7143 122.661 97.6523 121.756 96.6185C120.877 95.5718 120.106 94.5414 119.358 93.6059C118.61 92.6704 117.943 91.8179 117.426 90.9962C116.891 90.2009 116.413 89.5015 116.028 88.9324C115.271 87.7879 114.83 87.123 114.83 87.123C114.83 87.123 115.326 87.7421 116.183 88.8354C116.606 89.3852 117.126 90.0454 117.711 90.8149C118.283 91.5909 119.004 92.3977 119.77 93.3067C120.539 94.1956 121.353 95.1867 122.274 96.194C123.225 97.1684 124.213 98.1775 125.216 99.2677C126.253 100.305 127.394 101.325 128.514 102.391C129.65 103.431 130.904 104.393 132.104 105.401C133.338 106.356 134.584 107.304 135.843 108.192C137.137 109.027 138.364 109.914 139.643 110.614C140.272 110.988 140.893 111.347 141.493 111.7C142.11 112.025 142.72 112.338 143.304 112.663C144.476 113.292 145.627 113.774 146.685 114.266C147.75 114.684 148.735 115.107 149.622 115.42C150.505 115.752 151.278 115.981 151.914 116.173C153.178 116.542 153.935 116.69 153.935 116.69Z" fill="#C9C9C9"/>
<path d="M161.416 93.7091C161.416 93.7091 159.791 93.8855 157.323 93.8381C156.083 93.7895 154.637 93.7577 153.08 93.5606C151.526 93.399 149.873 93.1221 148.221 92.7885C146.569 92.3984 144.913 91.9729 143.402 91.4514C142.641 91.1658 141.904 90.9232 141.227 90.6112C140.549 90.2992 139.897 90.0301 139.308 89.7271C138.732 89.4173 138.197 89.1226 137.747 88.858C137.283 88.6002 136.904 88.3159 136.579 88.0966C135.95 87.6653 135.587 87.4097 135.587 87.4097C135.587 87.4097 135.976 87.5952 136.648 87.9283C136.987 88.0843 137.388 88.3195 137.865 88.514C138.341 88.7084 138.881 88.9254 139.466 89.193C140.056 89.4394 140.709 89.6519 141.387 89.9074C142.065 90.1628 142.794 90.3345 143.552 90.5847C144.302 90.8205 145.099 90.9937 145.882 91.2302C146.682 91.4389 147.492 91.6053 148.297 91.7928C151.542 92.4727 154.816 92.9693 157.276 93.2641C158.519 93.4047 159.544 93.5122 160.249 93.5843C161.001 93.6504 161.416 93.7091 161.416 93.7091Z" fill="#C9C9C9"/>
<path d="M163.637 90.4708C163.637 90.4708 163.403 90.6168 162.887 90.7639C162.387 90.8826 161.68 91.0759 160.796 91.1935C159.054 91.4724 156.659 91.6293 154.251 91.4695C153.049 91.3789 151.822 91.2446 150.698 90.9974C150.129 90.906 149.579 90.7287 149.065 90.5882C148.548 90.4692 148.073 90.2504 147.624 90.0753C147.17 89.9216 146.788 89.6905 146.453 89.5106C146.104 89.3377 145.803 89.1586 145.589 88.9886C145.116 88.6547 144.874 88.4625 144.874 88.4625C144.874 88.4625 145.164 88.591 145.672 88.8105C145.907 88.9307 146.209 89.0523 146.571 89.1608C146.933 89.2692 147.319 89.4214 147.753 89.5099C148.195 89.6129 148.662 89.7596 149.167 89.828C149.668 89.918 150.199 90.0301 150.751 90.0923C151.859 90.2529 153.031 90.3788 154.217 90.4403C155.397 90.5233 156.579 90.5488 157.689 90.5943C158.794 90.6037 159.833 90.6117 160.715 90.6092C161.61 90.5997 162.344 90.6011 162.86 90.5691C163.113 90.5458 163.307 90.5356 163.455 90.5316C163.565 90.4908 163.637 90.4708 163.637 90.4708Z" fill="#C9C9C9"/>
<path d="M0 117.501H121.5" stroke="#C9C9C9"/>
<path d="M30.5 107.001L96.5 107.001" stroke="#C9C9C9"/>
<path d="M267.5 117.501H389" stroke="#C9C9C9"/>
<path d="M290.5 107.001L356.5 107.001" stroke="#C9C9C9"/>
<path d="M30.5 135.001H356.5" stroke="#C9C9C9"/>
</svg>
