<svg width="57" height="36" viewBox="0 0 57 36" fill="none" xmlns="http://www.w3.org/2000/svg">
<rect width="57" height="36" rx="5" fill="white"/>
<path d="M22.8085 12.2116L17.7026 23.8194H14.3715L11.8583 14.5548C11.7048 13.9837 11.573 13.7755 11.109 13.5346C10.3507 13.1424 9.10134 12.7742 8 12.5471L8.07403 12.2099H13.4363C14.1187 12.2099 14.7344 12.6434 14.8897 13.3935L16.2167 20.1101L19.4972 12.2099H22.8085V12.2116ZM35.8602 20.0292C35.8747 16.9669 31.4152 16.7966 31.4459 15.4288C31.4549 15.0125 31.872 14.5703 32.7819 14.4568C33.2333 14.4 34.4773 14.357 35.8891 14.9763L36.4434 12.5144C35.6851 12.2512 34.7102 12 33.4951 12C30.3806 12 28.1888 13.5776 28.1707 15.8366C28.1491 17.5088 29.7361 18.4396 30.9295 18.9953C32.1572 19.5647 32.5689 19.9295 32.5634 20.437C32.5544 21.2163 31.5849 21.5604 30.6767 21.5725C29.0933 21.5966 28.1725 21.1647 27.4395 20.8396L26.869 23.3841C27.6038 23.7058 28.9633 23.9862 30.3734 24C33.6846 24.0017 35.8494 22.443 35.8602 20.0292ZM44.086 23.8194H47L44.4561 12.2116H41.7659C41.1611 12.2116 40.6502 12.5471 40.4245 13.0632L35.6959 23.8194H39.0036L39.6608 22.0852H43.7032L44.086 23.8194ZM40.5689 19.7075L42.2281 15.3497L43.1832 19.7075H40.5689ZM27.3113 12.2116L24.706 23.8194H21.5537L24.1608 12.2116H27.3113Z" fill="#2C2C2C"/>
</svg>
